{"glyphs":{"0":{"ha":836,"x_min":90,"x_max":746,"o":"m 418 -20 q 173 113 255 -20 q 90 505 90 247 q 173 898 90 764 q 418 1031 255 1031 q 663 898 581 1031 q 725 735 704 833 q 746 505 746 638 q 725 275 746 372 q 663 113 704 178 q 418 -20 580 -20 m 418 89 q 562 192 515 89 q 608 505 608 294 q 562 819 608 717 q 418 922 515 922 q 275 819 322 922 q 240 691 252 768 q 228 505 228 614 q 275 192 228 293 q 418 89 323 89 m 419 269 q 386 298 397 269 q 366 366 374 327 q 354 441 359 397 q 350 509 350 486 q 353 567 350 525 q 363 646 355 609 q 416 743 383 743 q 449 718 435 743 q 471 644 462 692 q 482 568 478 610 q 486 503 486 526 q 484 450 486 490 q 475 368 481 410 q 419 269 458 269 z "},"1":{"ha":836,"x_min":160,"x_max":742,"o":"m 183 115 l 396 115 l 396 842 l 235 658 l 160 749 l 395 1013 l 532 1013 l 532 115 l 742 115 l 742 0 l 183 0 l 183 115 z "},"2":{"ha":836,"x_min":103,"x_max":718,"o":"m 103 91 q 120 133 103 116 q 212 230 159 174 q 325 351 264 286 q 394 427 371 401 q 430 466 418 452 q 455 496 442 480 q 512 570 491 539 q 547 630 534 600 q 571 736 571 683 q 522 867 571 820 q 384 916 471 916 q 111 825 262 916 l 111 964 q 249 1014 180 997 q 382 1031 316 1031 q 514 1012 452 1031 q 622 952 576 993 q 687 864 663 916 q 711 747 711 812 q 682 614 711 681 q 643 548 667 580 q 583 471 620 515 q 536 418 564 448 q 473 349 509 387 q 426 298 448 321 q 379 252 404 276 q 323 196 355 228 q 246 115 292 163 l 718 115 l 718 0 l 103 0 l 103 91 z "},"3":{"ha":836,"x_min":101,"x_max":740,"o":"m 384 -20 q 316 -17 351 -20 q 243 -7 280 -14 q 175 8 212 -1 q 101 31 138 18 l 101 169 q 169 137 136 151 q 237 113 202 123 q 304 100 271 104 q 371 96 337 96 q 544 146 484 96 q 604 291 604 198 q 545 433 604 382 q 380 485 485 485 l 276 485 l 276 597 l 380 597 q 528 639 476 597 q 581 756 581 680 q 532 874 581 833 q 389 916 484 916 q 267 902 333 916 q 132 861 201 889 l 132 987 q 278 1020 214 1009 q 393 1031 338 1031 q 524 1013 464 1031 q 629 957 584 994 q 716 761 716 884 q 704 682 716 717 q 670 621 692 648 q 534 542 624 566 q 687 448 634 515 q 727 370 715 413 q 740 279 740 328 q 647 60 740 140 q 535 1 601 21 q 384 -20 470 -20 z "},"4":{"ha":836,"x_min":69,"x_max":770,"o":"m 498 241 l 69 241 l 69 371 l 476 1013 l 635 1013 l 635 353 l 770 353 l 770 241 l 635 241 l 635 0 l 498 0 l 498 241 m 498 353 l 498 888 l 179 353 l 498 353 z "},"5":{"ha":836,"x_min":97,"x_max":725,"o":"m 356 -20 q 288 -17 326 -20 q 217 -9 250 -14 q 153 5 182 -3 q 97 24 124 13 l 97 163 q 222 113 161 129 q 348 96 286 96 q 526 155 467 96 q 587 323 587 216 q 570 425 587 382 q 524 494 553 467 q 451 538 496 522 q 345 554 406 554 q 240 542 292 554 q 140 504 187 529 l 140 1013 l 653 1013 l 653 897 l 265 897 l 265 648 q 324 665 294 659 q 384 669 350 669 q 528 644 466 669 q 633 576 591 619 q 725 326 725 484 q 629 72 725 164 q 515 4 583 27 q 356 -20 448 -20 z "},"6":{"ha":836,"x_min":90,"x_max":746,"o":"m 429 -20 q 275 13 336 -20 q 173 108 213 46 q 110 271 130 174 q 90 491 90 367 q 189 898 90 765 q 473 1031 288 1031 q 527 1028 501 1031 q 575 1021 553 1025 q 626 1007 602 1015 q 672 990 650 999 l 672 864 q 581 903 629 890 q 532 912 557 909 q 482 916 506 916 q 283 818 350 916 q 216 529 216 719 q 307 633 249 597 q 444 669 365 669 q 665 579 584 669 q 746 326 746 489 q 664 71 746 161 q 429 -20 582 -20 m 429 87 q 565 148 519 87 q 611 325 611 208 q 565 503 611 442 q 507 548 541 534 q 430 562 472 562 q 348 546 382 562 q 290 500 313 529 q 253 426 267 470 q 240 325 240 382 q 253 223 240 267 q 290 150 267 180 q 348 104 313 121 q 429 87 382 87 z "},"7":{"ha":836,"x_min":94,"x_max":732,"o":"m 579 897 l 94 897 l 94 1013 l 732 1013 l 732 954 l 370 0 l 227 0 l 579 897 z "},"8":{"ha":836,"x_min":89,"x_max":747,"o":"m 417 -20 q 176 56 263 -20 q 89 271 89 132 q 143 448 89 379 q 298 538 197 515 q 222 569 257 548 q 162 621 186 590 q 124 690 136 652 q 113 771 113 728 q 195 960 113 888 q 290 1013 235 995 q 418 1031 345 1031 q 642 960 559 1031 q 724 770 724 890 q 675 621 724 681 q 538 538 627 561 q 694 448 640 515 q 747 273 747 380 q 725 148 747 201 q 660 57 702 94 q 417 -20 572 -20 m 418 589 q 544 631 500 589 q 587 755 587 674 q 545 882 587 838 q 418 925 501 925 q 292 882 336 925 q 249 755 249 838 q 292 631 249 674 q 418 589 336 589 m 420 87 q 560 139 510 87 q 610 283 610 191 q 596 370 610 334 q 559 429 583 406 q 418 481 509 481 q 277 430 327 481 q 227 286 227 378 q 277 140 227 192 q 420 87 328 87 z "},"9":{"ha":836,"x_min":86,"x_max":742,"o":"m 358 -20 q 307 -17 333 -20 q 257 -9 281 -15 q 160 21 212 0 l 160 147 q 251 109 203 122 q 351 96 301 96 q 549 194 481 96 q 615 482 615 293 q 576 421 600 448 q 526 378 552 395 q 386 342 469 342 q 167 432 248 342 q 86 685 86 523 q 106 830 86 765 q 169 942 126 896 q 403 1031 250 1031 q 557 998 496 1031 q 659 903 619 965 q 722 739 703 836 q 742 519 742 642 q 719 284 742 385 q 644 115 695 183 q 358 -20 545 -20 m 402 449 q 484 466 450 449 q 542 511 519 482 q 591 686 591 574 q 542 861 591 799 q 484 907 519 890 q 402 924 450 924 q 326 909 360 924 q 267 864 291 895 q 221 686 221 804 q 267 509 221 569 q 402 449 312 449 z "},"\u0000":{"ha":0,"x_min":0,"x_max":0,"o":""},"\r":{"ha":836,"x_min":0,"x_max":0,"o":""}," ":{"ha":836,"x_min":0,"x_max":0,"o":""},"Â":{"ha":836,"x_min":25,"x_max":811,"o":"m 354 1256 l 482 1256 l 625 1076 l 530 1076 l 418 1196 l 306 1076 l 211 1076 l 354 1256 m 335 1013 l 501 1013 l 811 0 l 669 0 l 595 264 l 240 264 l 167 0 l 25 0 l 335 1013 m 562 374 l 418 892 l 273 374 l 562 374 z "},"Ä":{"ha":836,"x_min":25,"x_max":811,"o":"m 237 1117 q 216 1137 216 1117 l 216 1234 q 237 1255 216 1255 l 334 1255 q 354 1234 354 1255 l 354 1137 q 334 1117 354 1117 l 237 1117 m 503 1117 q 482 1137 482 1117 l 482 1234 q 503 1255 482 1255 l 599 1255 q 619 1234 619 1255 l 619 1137 q 599 1117 619 1117 l 503 1117 m 335 1013 l 501 1013 l 811 0 l 669 0 l 595 264 l 240 264 l 167 0 l 25 0 l 335 1013 m 562 374 l 418 892 l 273 374 l 562 374 z "},"À":{"ha":836,"x_min":25,"x_max":811,"o":"m 243 1254 l 368 1254 l 501 1075 l 397 1075 l 243 1254 m 335 1013 l 501 1013 l 811 0 l 669 0 l 595 264 l 240 264 l 167 0 l 25 0 l 335 1013 m 562 374 l 418 892 l 273 374 l 562 374 z "},"Ā":{"ha":836,"x_min":25,"x_max":811,"o":"m 215 1221 l 621 1221 l 621 1120 l 215 1120 l 215 1221 m 335 1013 l 501 1013 l 811 0 l 669 0 l 595 264 l 240 264 l 167 0 l 25 0 l 335 1013 m 562 374 l 418 892 l 273 374 l 562 374 z "},"Ą":{"ha":836,"x_min":25,"x_max":836,"o":"m 762 -184 q 799 -179 783 -184 q 836 -164 815 -174 l 836 -254 q 789 -265 806 -262 q 750 -268 772 -268 q 593 -151 593 -268 q 609 -82 593 -117 q 667 0 625 -47 l 669 0 l 595 264 l 240 264 l 167 0 l 25 0 l 335 1013 l 501 1013 l 811 0 l 747 0 q 701 -73 715 -44 q 688 -125 688 -102 q 762 -184 688 -184 m 562 374 l 418 892 l 273 374 l 562 374 z "},"Å":{"ha":836,"x_min":25,"x_max":811,"o":"m 315 949 q 254 1012 276 971 q 232 1102 232 1052 q 257 1198 232 1156 q 324 1264 282 1240 q 418 1289 366 1289 q 491 1275 457 1289 q 551 1235 526 1260 q 589 1177 574 1211 q 604 1102 604 1143 q 583 1013 604 1053 q 521 949 562 975 l 811 0 l 669 0 l 595 264 l 240 264 l 167 0 l 25 0 l 315 949 m 418 1000 q 491 1030 461 1000 q 521 1103 521 1060 q 491 1176 521 1146 q 456 1199 475 1192 q 417 1206 437 1206 q 345 1177 374 1206 q 315 1103 315 1147 q 345 1030 315 1060 q 418 1000 375 1000 m 562 374 l 418 889 l 273 374 l 562 374 z "},"Ã":{"ha":836,"x_min":25,"x_max":811,"o":"m 195 1076 q 203 1136 195 1109 q 230 1185 211 1163 q 323 1225 264 1225 q 368 1219 342 1225 q 421 1196 386 1215 l 460 1175 q 487 1162 473 1166 q 509 1158 498 1158 q 543 1176 530 1158 q 557 1221 557 1194 l 557 1225 l 642 1225 q 606 1117 640 1157 q 513 1076 571 1076 q 471 1082 494 1076 q 449 1089 461 1084 q 415 1105 436 1095 l 376 1128 q 362 1136 369 1133 q 349 1141 355 1139 q 329 1145 339 1145 q 293 1128 306 1145 q 279 1080 279 1110 l 279 1076 l 195 1076 m 335 1013 l 501 1013 l 811 0 l 669 0 l 595 264 l 240 264 l 167 0 l 25 0 l 335 1013 m 562 374 l 418 892 l 273 374 l 562 374 z "},"Æ":{"ha":836,"x_min":0,"x_max":800,"o":"m 278 1013 l 787 1013 l 787 897 l 558 897 l 558 597 l 766 597 l 766 482 l 558 482 l 558 115 l 800 115 l 800 0 l 432 0 l 432 260 l 193 260 l 125 0 l 0 0 l 278 1013 m 432 374 l 432 897 l 359 897 l 222 374 l 432 374 z "},"B":{"ha":836,"x_min":113,"x_max":771,"o":"m 113 1013 l 412 1013 q 652 945 567 1013 q 736 755 736 878 q 724 671 736 707 q 692 609 713 635 q 637 566 670 583 q 558 542 604 549 q 715 457 659 527 q 771 277 771 387 q 681 71 771 140 q 412 0 590 0 l 113 0 l 113 1013 m 410 595 q 553 633 510 595 q 597 753 597 671 q 554 866 597 833 q 410 900 510 900 l 250 900 l 250 595 l 410 595 m 412 113 q 583 155 530 113 q 633 292 633 197 q 580 437 633 391 q 412 484 526 484 l 250 484 l 250 113 l 412 113 z "},"C":{"ha":836,"x_min":94,"x_max":728,"o":"m 503 -20 q 332 14 408 -20 q 201 118 256 48 q 94 505 94 257 q 143 788 94 670 q 284 968 192 905 q 503 1031 376 1031 q 622 1018 569 1031 q 728 975 674 1005 l 728 835 q 620 898 678 876 q 503 920 561 920 q 304 817 370 920 q 237 505 237 713 q 504 92 237 92 q 621 113 562 92 q 728 176 678 135 l 728 36 q 621 -6 674 8 q 503 -20 566 -20 z "},"Ć":{"ha":836,"x_min":94,"x_max":728,"o":"m 517 1256 l 643 1256 l 488 1077 l 383 1077 l 517 1256 m 503 -20 q 201 118 309 -20 q 94 505 94 257 q 121 725 94 627 q 202 892 148 823 q 503 1031 311 1031 q 621 1017 566 1031 q 728 975 674 1004 l 728 835 q 620 898 678 876 q 503 920 561 920 q 304 817 370 920 q 237 505 237 713 q 304 195 237 298 q 385 119 336 146 q 503 92 434 92 q 621 113 562 92 q 728 176 678 135 l 728 36 q 621 -6 674 8 q 503 -20 566 -20 z "},"Č":{"ha":836,"x_min":94,"x_max":728,"o":"m 272 1256 l 367 1256 l 479 1135 l 591 1256 l 686 1256 l 543 1076 l 415 1076 l 272 1256 m 503 -20 q 201 118 309 -20 q 94 505 94 257 q 121 725 94 627 q 202 892 148 823 q 503 1031 311 1031 q 621 1017 566 1031 q 728 975 674 1004 l 728 835 q 620 898 678 876 q 503 920 561 920 q 304 817 370 920 q 237 505 237 713 q 304 195 237 298 q 385 119 336 146 q 503 92 434 92 q 621 113 562 92 q 728 176 678 135 l 728 36 q 621 -6 674 8 q 503 -20 566 -20 z "},"Ç":{"ha":836,"x_min":94,"x_max":728,"o":"m 503 920 q 304 817 370 920 q 237 505 237 713 q 304 195 237 298 q 385 119 336 146 q 503 92 434 92 q 621 113 562 92 q 728 176 678 135 l 728 36 q 621 -6 674 8 q 590 -13 606 -9 q 557 -17 574 -16 q 599 -78 587 -52 q 611 -111 606 -94 q 616 -149 616 -128 q 576 -237 616 -206 q 526 -260 556 -252 q 454 -268 496 -268 q 395 -264 425 -268 q 336 -252 364 -260 l 336 -163 q 438 -184 382 -184 q 522 -122 522 -184 q 507 -71 522 -100 q 494 -47 502 -60 q 475 -19 486 -34 q 201 118 300 -7 q 94 505 94 257 q 121 725 94 627 q 202 892 148 823 q 503 1031 311 1031 q 621 1017 566 1031 q 728 975 674 1004 l 728 835 q 620 898 678 876 q 503 920 561 920 z "},"Ċ":{"ha":836,"x_min":94,"x_max":728,"o":"m 419 1117 q 399 1137 399 1117 l 399 1236 q 419 1256 399 1256 l 517 1256 q 538 1236 538 1256 l 538 1137 q 517 1117 538 1117 l 419 1117 m 505 -20 q 202 118 309 -20 q 94 504 94 256 q 202 892 94 753 q 505 1031 310 1031 q 728 975 625 1031 l 728 835 q 622 898 678 876 q 502 920 565 920 q 237 505 237 920 q 502 92 237 92 q 728 176 626 92 l 728 36 q 505 -20 625 -20 z "},"D":{"ha":836,"x_min":93,"x_max":750,"o":"m 93 1013 l 298 1013 q 640 889 530 1013 q 750 505 750 766 q 640 123 750 247 q 298 0 530 0 l 93 0 l 93 1013 m 296 113 q 537 198 469 113 q 606 507 606 283 q 538 815 606 731 q 442 879 503 859 q 296 900 380 900 l 231 900 l 231 113 l 296 113 z "},"Ð":{"ha":836,"x_min":5,"x_max":747,"o":"m 90 481 l 5 481 l 5 582 l 90 582 l 90 1013 l 296 1013 q 637 889 528 1013 q 747 506 747 766 q 637 123 747 247 q 495 30 581 60 q 296 0 410 0 l 90 0 l 90 481 m 296 113 q 446 135 389 113 q 536 199 503 157 q 589 317 572 243 q 606 507 606 392 q 588 699 606 627 q 537 814 571 770 q 443 880 501 859 q 296 900 384 900 l 231 900 l 231 582 l 410 582 l 410 481 l 231 481 l 231 113 l 296 113 z "},"Ď":{"ha":836,"x_min":93,"x_max":750,"o":"m 158 1256 l 253 1256 l 365 1135 l 477 1256 l 572 1256 l 429 1076 l 301 1076 l 158 1256 m 93 1013 l 298 1013 q 640 889 530 1013 q 750 507 750 766 q 640 123 750 247 q 298 0 530 0 l 93 0 l 93 1013 m 296 113 q 479 149 411 113 q 576 272 547 186 q 606 506 606 357 q 576 741 606 655 q 479 864 547 827 q 296 900 411 900 l 231 900 l 231 113 l 296 113 z "},"Đ":{"ha":836,"x_min":5,"x_max":747,"o":"m 90 481 l 5 481 l 5 582 l 90 582 l 90 1013 l 296 1013 q 637 889 527 1013 q 747 506 747 766 q 637 123 747 247 q 296 0 528 0 l 90 0 l 90 481 m 296 113 q 479 149 411 113 q 576 272 547 186 q 606 506 606 357 q 576 741 606 655 q 479 864 547 827 q 296 900 411 900 l 231 900 l 231 582 l 410 582 l 410 481 l 231 481 l 231 113 l 296 113 z "},"E":{"ha":836,"x_min":134,"x_max":747,"o":"m 134 1013 l 734 1013 l 734 897 l 271 897 l 271 597 l 714 597 l 714 482 l 271 482 l 271 115 l 747 115 l 747 0 l 134 0 l 134 1013 z "},"É":{"ha":836,"x_min":134,"x_max":747,"o":"m 468 1259 l 594 1259 l 439 1080 l 334 1080 l 468 1259 m 134 1013 l 734 1013 l 734 897 l 271 897 l 271 597 l 714 597 l 714 482 l 271 482 l 271 115 l 747 115 l 747 0 l 134 0 l 134 1013 z "},"Ě":{"ha":836,"x_min":134,"x_max":747,"o":"m 235 1256 l 330 1256 l 442 1135 l 555 1256 l 650 1256 l 507 1076 l 378 1076 l 235 1256 m 134 1013 l 734 1013 l 734 897 l 271 897 l 271 597 l 714 597 l 714 482 l 271 482 l 271 115 l 747 115 l 747 0 l 134 0 l 134 1013 z "},"Ê":{"ha":836,"x_min":134,"x_max":747,"o":"m 366 1256 l 494 1256 l 637 1076 l 543 1076 l 430 1196 l 318 1076 l 223 1076 l 366 1256 m 134 1013 l 734 1013 l 734 897 l 271 897 l 271 597 l 714 597 l 714 482 l 271 482 l 271 115 l 747 115 l 747 0 l 134 0 l 134 1013 z "},"Ë":{"ha":836,"x_min":134,"x_max":747,"o":"m 249 1117 q 229 1137 229 1117 l 229 1234 q 249 1255 229 1255 l 346 1255 q 366 1234 366 1255 l 366 1137 q 346 1117 366 1117 l 249 1117 m 515 1117 q 494 1137 494 1117 l 494 1234 q 515 1255 494 1255 l 611 1255 q 631 1234 631 1255 l 631 1137 q 611 1117 631 1117 l 515 1117 m 134 1013 l 734 1013 l 734 897 l 271 897 l 271 597 l 714 597 l 714 482 l 271 482 l 271 115 l 747 115 l 747 0 l 134 0 l 134 1013 z "},"Ė":{"ha":836,"x_min":134,"x_max":747,"o":"m 380 1117 q 360 1137 360 1117 l 360 1236 q 380 1256 360 1256 l 479 1256 q 499 1236 499 1256 l 499 1137 q 479 1117 499 1117 l 380 1117 m 134 1013 l 734 1013 l 734 897 l 271 897 l 271 597 l 714 597 l 714 482 l 271 482 l 271 115 l 747 115 l 747 0 l 134 0 l 134 1013 z "},"È":{"ha":836,"x_min":134,"x_max":747,"o":"m 268 1259 l 393 1259 l 526 1080 l 422 1080 l 268 1259 m 134 1013 l 734 1013 l 734 897 l 271 897 l 271 597 l 714 597 l 714 482 l 271 482 l 271 115 l 747 115 l 747 0 l 134 0 l 134 1013 z "},"Ē":{"ha":836,"x_min":134,"x_max":747,"o":"m 227 1221 l 633 1221 l 633 1120 l 227 1120 l 227 1221 m 134 1013 l 734 1013 l 734 897 l 271 897 l 271 597 l 714 597 l 714 482 l 271 482 l 271 115 l 747 115 l 747 0 l 134 0 l 134 1013 z "},"Ę":{"ha":836,"x_min":134,"x_max":747,"o":"m 646 0 q 600 -73 613 -44 q 586 -125 586 -102 q 661 -184 586 -184 q 745 -164 703 -184 l 745 -254 q 694 -265 716 -262 q 648 -268 673 -268 q 532 -239 572 -268 q 492 -150 492 -210 q 508 -82 492 -117 q 565 0 524 -47 l 134 0 l 134 1013 l 734 1013 l 734 897 l 271 897 l 271 597 l 714 597 l 714 482 l 271 482 l 271 115 l 747 115 l 747 0 l 646 0 z "},"F":{"ha":836,"x_min":158,"x_max":754,"o":"m 158 1013 l 754 1013 l 754 897 l 296 897 l 296 585 l 711 585 l 711 470 l 296 470 l 296 0 l 158 0 l 158 1013 z "},"G":{"ha":836,"x_min":69,"x_max":749,"o":"m 475 -20 q 303 16 378 -20 q 176 119 228 51 q 69 505 69 258 q 178 893 69 755 q 477 1031 286 1031 q 602 1013 543 1031 q 714 958 661 994 l 714 818 q 656 865 685 846 q 602 895 627 884 q 541 914 572 908 q 479 920 509 920 q 279 817 347 920 q 212 504 212 713 q 229 320 212 397 q 277 193 245 244 q 477 92 342 92 q 556 102 522 92 q 588 116 572 108 q 618 135 604 123 l 618 407 l 471 407 l 471 519 l 749 519 l 749 83 q 625 7 693 32 q 475 -20 556 -20 z "},"Ğ":{"ha":836,"x_min":69,"x_max":749,"o":"m 445 1078 q 233 1242 248 1078 l 313 1242 q 446 1166 330 1166 q 577 1242 557 1166 l 658 1242 q 445 1078 642 1078 m 475 -20 q 303 16 378 -20 q 176 119 228 51 q 69 505 69 258 q 96 725 69 627 q 177 892 123 823 q 304 995 229 958 q 476 1031 379 1031 q 714 958 610 1031 l 714 818 q 656 865 685 846 q 602 895 627 884 q 541 914 572 908 q 479 920 509 920 q 279 817 347 920 q 212 504 212 713 q 229 320 212 397 q 277 193 245 244 q 360 116 311 140 q 477 92 410 92 q 618 135 564 92 l 618 407 l 471 407 l 471 519 l 749 519 l 749 83 q 625 7 693 32 q 475 -20 556 -20 z "},"Ǧ":{"ha":836,"x_min":69,"x_max":749,"o":"m 272 1256 l 367 1256 l 479 1135 l 591 1256 l 686 1256 l 543 1076 l 415 1076 l 272 1256 m 475 -20 q 176 118 283 -20 q 69 504 69 256 q 118 788 69 670 q 258 968 167 906 q 477 1031 349 1031 q 602 1013 544 1031 q 714 958 659 995 l 714 818 q 602 895 659 871 q 479 920 545 920 q 278 816 344 920 q 212 501 212 713 q 277 192 212 293 q 478 92 342 92 q 618 135 563 92 l 618 407 l 471 407 l 471 519 l 749 519 l 749 83 q 475 -20 637 -20 z "},"Ģ":{"ha":836,"x_min":69,"x_max":749,"o":"m 475 -20 q 176 118 283 -20 q 69 504 69 256 q 118 788 69 670 q 258 968 167 906 q 477 1031 349 1031 q 602 1013 544 1031 q 714 958 659 995 l 714 818 q 602 895 659 871 q 479 920 545 920 q 278 816 344 920 q 212 501 212 713 q 277 192 212 293 q 478 92 342 92 q 618 135 563 92 l 618 407 l 471 407 l 471 519 l 749 519 l 749 83 q 475 -20 637 -20 m 427 -155 l 589 -155 l 463 -389 l 363 -389 l 427 -155 z "},"Ġ":{"ha":836,"x_min":69,"x_max":749,"o":"m 419 1117 q 399 1137 399 1117 l 399 1236 q 419 1256 399 1256 l 517 1256 q 538 1236 538 1256 l 538 1137 q 517 1117 538 1117 l 419 1117 m 475 -20 q 176 118 283 -20 q 69 504 69 256 q 118 788 69 670 q 258 968 167 906 q 477 1031 349 1031 q 602 1013 544 1031 q 714 958 659 995 l 714 818 q 602 895 659 871 q 479 920 545 920 q 278 816 344 920 q 212 501 212 713 q 277 192 212 293 q 478 92 342 92 q 618 135 563 92 l 618 407 l 471 407 l 471 519 l 749 519 l 749 83 q 475 -20 637 -20 z "},"H":{"ha":836,"x_min":93,"x_max":743,"o":"m 93 1013 l 231 1013 l 231 597 l 606 597 l 606 1013 l 743 1013 l 743 0 l 606 0 l 606 482 l 231 482 l 231 0 l 93 0 l 93 1013 z "},"Ħ":{"ha":836,"x_min":2,"x_max":834,"o":"m 93 749 l 2 749 l 2 861 l 93 861 l 93 1013 l 230 1013 l 230 861 l 606 861 l 606 1013 l 743 1013 l 743 861 l 834 861 l 834 749 l 743 749 l 743 0 l 606 0 l 606 482 l 230 482 l 230 0 l 93 0 l 93 749 m 606 597 l 606 749 l 230 749 l 230 597 l 606 597 z "},"I":{"ha":836,"x_min":136,"x_max":699,"o":"m 136 115 l 349 115 l 349 897 l 136 897 l 136 1013 l 699 1013 l 699 897 l 486 897 l 486 115 l 699 115 l 699 0 l 136 0 l 136 115 z "},"Í":{"ha":836,"x_min":136,"x_max":699,"o":"m 469 1259 l 595 1259 l 439 1080 l 335 1080 l 469 1259 m 136 115 l 349 115 l 349 897 l 136 897 l 136 1013 l 699 1013 l 699 897 l 486 897 l 486 115 l 699 115 l 699 0 l 136 0 l 136 115 z "},"Î":{"ha":836,"x_min":136,"x_max":699,"o":"m 353 1256 l 481 1256 l 625 1076 l 530 1076 l 417 1196 l 305 1076 l 210 1076 l 353 1256 m 136 115 l 349 115 l 349 897 l 136 897 l 136 1013 l 699 1013 l 699 897 l 486 897 l 486 115 l 699 115 l 699 0 l 136 0 l 136 115 z "},"Ï":{"ha":836,"x_min":136,"x_max":699,"o":"m 237 1117 q 216 1137 216 1117 l 216 1234 q 237 1255 216 1255 l 334 1255 q 354 1234 354 1255 l 354 1137 q 334 1117 354 1117 l 237 1117 m 503 1117 q 482 1137 482 1117 l 482 1234 q 503 1255 482 1255 l 599 1255 q 619 1234 619 1255 l 619 1137 q 599 1117 619 1117 l 503 1117 m 136 115 l 349 115 l 349 897 l 136 897 l 136 1013 l 699 1013 l 699 897 l 486 897 l 486 115 l 699 115 l 699 0 l 136 0 l 136 115 z "},"İ":{"ha":836,"x_min":136,"x_max":699,"o":"m 368 1117 q 348 1137 348 1117 l 348 1236 q 368 1256 348 1256 l 467 1256 q 487 1236 487 1256 l 487 1137 q 467 1117 487 1117 l 368 1117 m 136 115 l 349 115 l 349 897 l 136 897 l 136 1013 l 699 1013 l 699 897 l 486 897 l 486 115 l 699 115 l 699 0 l 136 0 l 136 115 z "},"Ì":{"ha":836,"x_min":136,"x_max":699,"o":"m 252 1259 l 377 1259 l 511 1080 l 406 1080 l 252 1259 m 136 115 l 349 115 l 349 897 l 136 897 l 136 1013 l 699 1013 l 699 897 l 486 897 l 486 115 l 699 115 l 699 0 l 136 0 l 136 115 z "},"Ī":{"ha":836,"x_min":136,"x_max":699,"o":"m 227 1221 l 633 1221 l 633 1120 l 227 1120 l 227 1221 m 136 115 l 349 115 l 349 897 l 136 897 l 136 1013 l 699 1013 l 699 897 l 486 897 l 486 115 l 699 115 l 699 0 l 136 0 l 136 115 z "},"Į":{"ha":836,"x_min":136,"x_max":699,"o":"m 486 897 l 486 115 l 699 115 l 699 0 l 486 0 q 440 -73 454 -44 q 427 -125 427 -102 q 501 -184 427 -184 q 585 -164 544 -184 l 585 -254 q 535 -265 557 -262 q 488 -268 513 -268 q 372 -239 412 -268 q 332 -150 332 -210 q 348 -82 332 -117 q 406 0 363 -47 l 136 0 l 136 115 l 349 115 l 349 897 l 136 897 l 136 1013 l 699 1013 l 699 897 l 486 897 z "},"Ĩ":{"ha":836,"x_min":136,"x_max":699,"o":"m 195 1107 q 203 1167 195 1140 q 230 1216 211 1194 q 323 1256 264 1256 q 368 1251 342 1256 q 421 1227 386 1246 l 460 1206 q 487 1194 473 1198 q 509 1190 498 1190 q 543 1207 530 1190 q 557 1252 557 1225 l 557 1256 l 642 1256 q 606 1148 640 1188 q 513 1107 571 1107 q 471 1113 494 1107 q 449 1121 461 1116 q 415 1137 436 1126 l 376 1159 q 362 1167 369 1164 q 349 1173 355 1170 q 329 1176 339 1176 q 293 1159 306 1176 q 279 1112 279 1141 l 279 1107 l 195 1107 m 136 115 l 349 115 l 349 897 l 136 897 l 136 1013 l 699 1013 l 699 897 l 486 897 l 486 115 l 699 115 l 699 0 l 136 0 l 136 115 z "},"J":{"ha":836,"x_min":74,"x_max":648,"o":"m 340 -20 q 208 -5 269 -20 q 74 41 144 10 l 74 201 q 201 119 136 146 q 338 92 269 92 q 419 104 384 92 q 473 142 454 116 q 511 330 511 193 l 511 897 l 253 897 l 253 1013 l 648 1013 l 648 330 q 617 126 648 203 q 518 15 586 49 q 340 -20 450 -20 z "},"K":{"ha":836,"x_min":93,"x_max":831,"o":"m 93 1013 l 231 1013 l 231 562 l 659 1013 l 819 1013 l 425 599 l 831 0 l 665 0 l 335 507 l 231 396 l 231 0 l 93 0 l 93 1013 z "},"Ķ":{"ha":836,"x_min":93,"x_max":831,"o":"m 93 1013 l 231 1013 l 231 562 l 659 1013 l 819 1013 l 425 599 l 831 0 l 665 0 l 335 507 l 231 396 l 231 0 l 93 0 l 93 1013 m 412 -135 l 574 -135 l 448 -369 l 349 -369 l 412 -135 z "},"L":{"ha":836,"x_min":146,"x_max":772,"o":"m 146 1013 l 283 1013 l 283 115 l 772 115 l 772 0 l 146 0 l 146 1013 z "},"Ĺ":{"ha":836,"x_min":146,"x_max":772,"o":"m 279 1259 l 406 1259 l 250 1080 l 146 1080 l 279 1259 m 146 1013 l 283 1013 l 283 115 l 772 115 l 772 0 l 146 0 l 146 1013 z "},"Ľ":{"ha":836,"x_min":146,"x_max":772,"o":"m 146 1013 l 283 1013 l 283 115 l 772 115 l 772 0 l 146 0 l 146 1013 m 487 1011 l 621 1011 l 545 756 l 440 756 l 487 1011 z "},"Ļ":{"ha":836,"x_min":146,"x_max":772,"o":"m 146 1013 l 283 1013 l 283 115 l 772 115 l 772 0 l 146 0 l 146 1013 m 410 -135 l 572 -135 l 445 -369 l 346 -369 l 410 -135 z "},"Ł":{"ha":836,"x_min":-7,"x_max":772,"o":"m 146 387 l 47 315 l -7 390 l 146 497 l 146 1013 l 283 1013 l 283 595 l 497 743 l 550 668 l 283 482 l 283 115 l 772 115 l 772 0 l 146 0 l 146 387 z "},"M":{"ha":836,"x_min":58,"x_max":777,"o":"m 58 1013 l 241 1013 l 416 497 l 593 1013 l 777 1013 l 777 0 l 650 0 l 650 895 l 469 361 l 366 361 l 184 895 l 184 0 l 58 0 l 58 1013 z "},"N":{"ha":836,"x_min":94,"x_max":742,"o":"m 94 1013 l 268 1013 l 610 179 l 610 1013 l 742 1013 l 742 0 l 568 0 l 227 833 l 227 0 l 94 0 l 94 1013 z "},"Ń":{"ha":836,"x_min":94,"x_max":742,"o":"m 496 1259 l 622 1259 l 467 1080 l 362 1080 l 496 1259 m 94 1013 l 268 1013 l 610 179 l 610 1013 l 742 1013 l 742 0 l 568 0 l 227 833 l 227 0 l 94 0 l 94 1013 z "},"Ň":{"ha":836,"x_min":94,"x_max":742,"o":"m 235 1256 l 330 1256 l 442 1135 l 555 1256 l 650 1256 l 507 1076 l 378 1076 l 235 1256 m 94 1013 l 268 1013 l 610 179 l 610 1013 l 742 1013 l 742 0 l 568 0 l 227 833 l 227 0 l 94 0 l 94 1013 z "},"Ņ":{"ha":836,"x_min":94,"x_max":742,"o":"m 94 1013 l 268 1013 l 610 179 l 610 1013 l 742 1013 l 742 0 l 568 0 l 227 833 l 227 0 l 94 0 l 94 1013 m 369 -135 l 531 -135 l 404 -369 l 305 -369 l 369 -135 z "},"Ŋ":{"ha":836,"x_min":100,"x_max":736,"o":"m 363 -183 l 477 -183 q 568 -141 538 -183 q 598 0 598 -99 l 598 684 q 559 864 598 806 q 435 921 519 921 q 288 847 339 921 q 237 635 237 774 l 237 0 l 100 0 l 100 1013 l 224 1013 l 237 878 q 484 1032 311 1032 q 736 677 736 1032 l 736 -14 q 675 -218 736 -146 q 503 -289 615 -289 l 363 -289 l 363 -183 z "},"Ñ":{"ha":836,"x_min":94,"x_max":742,"o":"m 195 1107 q 203 1167 195 1140 q 230 1216 211 1194 q 323 1256 264 1256 q 368 1251 342 1256 q 421 1227 386 1246 l 460 1206 q 487 1194 473 1198 q 509 1190 498 1190 q 543 1207 530 1190 q 557 1252 557 1225 l 557 1256 l 642 1256 q 606 1148 640 1188 q 513 1107 571 1107 q 471 1113 494 1107 q 449 1121 461 1116 q 415 1137 436 1126 l 376 1159 q 362 1167 369 1164 q 349 1173 355 1170 q 329 1176 339 1176 q 293 1159 306 1176 q 279 1112 279 1141 l 279 1107 l 195 1107 m 94 1013 l 268 1013 l 610 179 l 610 1013 l 742 1013 l 742 0 l 568 0 l 227 833 l 227 0 l 94 0 l 94 1013 z "},"O":{"ha":836,"x_min":79,"x_max":757,"o":"m 418 -20 q 163 110 246 -20 q 79 505 79 239 q 163 901 79 772 q 418 1031 248 1031 q 566 1000 501 1031 q 673 901 630 968 q 757 505 757 770 q 673 111 757 241 q 566 12 630 43 q 418 -20 501 -20 m 418 92 q 568 187 522 92 q 614 505 614 280 q 568 824 614 730 q 418 920 522 920 q 269 824 315 920 q 222 505 222 726 q 269 187 222 285 q 418 92 315 92 z "},"Ó":{"ha":836,"x_min":79,"x_max":757,"o":"m 475 1259 l 602 1259 l 446 1080 l 342 1080 l 475 1259 m 418 -20 q 163 110 246 -20 q 79 505 79 239 q 163 901 79 772 q 418 1031 248 1031 q 566 1000 501 1031 q 673 901 630 968 q 757 505 757 770 q 673 111 757 241 q 566 12 630 43 q 418 -20 501 -20 m 418 92 q 568 187 522 92 q 614 505 614 280 q 568 824 614 730 q 418 920 522 920 q 269 824 315 920 q 222 505 222 726 q 269 187 222 285 q 418 92 315 92 z "},"Ô":{"ha":836,"x_min":79,"x_max":757,"o":"m 366 1256 l 494 1256 l 637 1076 l 543 1076 l 430 1196 l 318 1076 l 223 1076 l 366 1256 m 418 -20 q 163 110 246 -20 q 79 505 79 239 q 163 901 79 772 q 418 1031 248 1031 q 566 1000 501 1031 q 673 901 630 968 q 757 505 757 770 q 673 111 757 241 q 566 12 630 43 q 418 -20 501 -20 m 418 92 q 568 187 522 92 q 614 505 614 280 q 568 824 614 730 q 418 920 522 920 q 269 824 315 920 q 222 505 222 726 q 269 187 222 285 q 418 92 315 92 z "},"Ö":{"ha":836,"x_min":79,"x_max":757,"o":"m 237 1117 q 216 1137 216 1117 l 216 1234 q 237 1255 216 1255 l 334 1255 q 354 1234 354 1255 l 354 1137 q 334 1117 354 1117 l 237 1117 m 503 1117 q 482 1137 482 1117 l 482 1234 q 503 1255 482 1255 l 599 1255 q 619 1234 619 1255 l 619 1137 q 599 1117 619 1117 l 503 1117 m 418 -20 q 163 110 246 -20 q 79 505 79 239 q 163 901 79 772 q 418 1031 248 1031 q 566 1000 501 1031 q 673 901 630 968 q 757 505 757 770 q 673 111 757 241 q 566 12 630 43 q 418 -20 501 -20 m 418 92 q 568 187 522 92 q 614 505 614 280 q 568 824 614 730 q 418 920 522 920 q 269 824 315 920 q 222 505 222 726 q 269 187 222 285 q 418 92 315 92 z "},"Ò":{"ha":836,"x_min":79,"x_max":757,"o":"m 259 1259 l 384 1259 l 517 1080 l 413 1080 l 259 1259 m 418 -20 q 163 110 246 -20 q 79 505 79 239 q 163 901 79 772 q 418 1031 248 1031 q 566 1000 501 1031 q 673 901 630 968 q 757 505 757 770 q 673 111 757 241 q 566 12 630 43 q 418 -20 501 -20 m 418 92 q 568 187 522 92 q 614 505 614 280 q 568 824 614 730 q 418 920 522 920 q 269 824 315 920 q 222 505 222 726 q 269 187 222 285 q 418 92 315 92 z "},"Ơ":{"ha":836,"x_min":4,"x_max":808,"o":"m 794 1056 q 805 1006 802 1027 q 808 959 808 984 q 779 843 808 883 q 690 803 750 803 q 640 811 666 803 q 682 505 682 693 q 342 -20 682 -20 q 88 110 172 -20 q 4 505 4 239 q 88 901 4 770 q 342 1031 172 1031 q 573 933 492 1031 q 625 905 604 913 q 665 897 646 897 q 724 972 724 897 q 704 1056 724 1015 l 794 1056 m 493 187 q 538 505 538 280 q 493 824 538 730 q 342 920 448 920 q 193 824 239 920 q 147 505 147 726 q 193 187 147 285 q 342 92 239 92 q 493 187 448 92 z "},"Ő":{"ha":836,"x_min":79,"x_max":757,"o":"m 367 1261 l 493 1261 l 338 1082 l 233 1082 l 367 1261 m 583 1261 l 709 1261 l 554 1082 l 450 1082 l 583 1261 m 417 -20 q 163 110 247 -20 q 79 505 79 239 q 163 901 79 770 q 418 1031 247 1031 q 673 901 589 1031 q 757 505 757 770 q 417 -20 757 -20 m 418 92 q 568 187 522 92 q 614 505 614 280 q 568 824 614 730 q 418 920 522 920 q 269 824 315 920 q 222 505 222 726 q 269 187 222 285 q 418 92 315 92 z "},"Ō":{"ha":836,"x_min":79,"x_max":757,"o":"m 215 1221 l 621 1221 l 621 1120 l 215 1120 l 215 1221 m 417 -20 q 163 110 247 -20 q 79 505 79 239 q 163 901 79 770 q 418 1031 247 1031 q 673 901 589 1031 q 757 505 757 770 q 417 -20 757 -20 m 418 92 q 568 187 522 92 q 614 505 614 280 q 568 824 614 730 q 418 920 522 920 q 269 824 315 920 q 222 505 222 726 q 269 187 222 285 q 418 92 315 92 z "},"Ø":{"ha":836,"x_min":5,"x_max":814,"o":"m 5 0 l 126 171 q 92 309 105 218 q 83 398 86 352 q 79 502 79 445 q 100 737 79 640 q 163 901 121 835 q 270 999 207 968 q 417 1031 333 1031 q 491 1024 458 1031 q 555 1003 525 1017 q 652 921 612 976 l 746 1057 l 814 1007 l 700 846 q 725 781 714 818 q 743 703 735 745 q 753 613 749 664 q 757 505 757 563 q 673 111 757 241 q 569 14 633 47 q 415 -20 506 -20 q 342 -13 376 -20 q 275 8 307 -7 q 172 90 214 35 l 75 -47 l 5 0 m 571 807 q 548 857 562 836 q 515 891 533 878 q 417 920 477 920 q 325 894 360 920 q 267 819 289 868 q 233 684 244 768 q 222 465 222 600 q 223 417 222 435 q 224 377 223 399 q 225 355 225 368 q 229 319 226 343 l 571 807 m 418 92 q 510 117 474 92 q 568 188 547 142 q 602 308 590 233 q 614 507 614 384 q 613 573 614 543 q 610 626 612 603 q 607 667 609 648 q 600 703 604 685 l 252 205 q 317 122 272 153 q 418 92 361 92 z "},"Ǿ":{"ha":836,"x_min":5,"x_max":814,"o":"m 469 1259 l 595 1259 l 439 1080 l 335 1080 l 469 1259 m 5 0 l 126 171 q 92 309 104 220 q 79 505 79 399 q 416 1031 79 1031 q 652 921 574 1031 l 746 1057 l 814 1007 l 700 846 q 743 704 728 791 q 757 505 757 616 q 673 110 757 240 q 416 -20 589 -20 q 172 90 255 -20 l 75 -47 l 5 0 m 571 807 q 517 890 555 860 q 417 920 479 920 q 325 894 359 920 q 268 821 290 868 q 233 677 243 765 q 222 463 222 589 q 229 319 222 363 l 571 807 m 420 92 q 568 188 523 92 q 602 308 590 233 q 614 512 614 383 q 610 626 614 580 q 600 703 607 672 l 252 205 q 420 92 297 92 z "},"Õ":{"ha":836,"x_min":79,"x_max":757,"o":"m 195 1107 q 203 1167 195 1140 q 230 1216 211 1194 q 323 1256 264 1256 q 368 1251 342 1256 q 421 1227 386 1246 l 460 1206 q 487 1194 473 1198 q 509 1190 498 1190 q 543 1207 530 1190 q 557 1252 557 1225 l 557 1256 l 642 1256 q 606 1148 640 1188 q 513 1107 571 1107 q 471 1113 494 1107 q 449 1121 461 1116 q 415 1137 436 1126 l 376 1159 q 362 1167 369 1164 q 349 1173 355 1170 q 329 1176 339 1176 q 293 1159 306 1176 q 279 1112 279 1141 l 279 1107 l 195 1107 m 418 -20 q 163 110 246 -20 q 79 505 79 239 q 163 901 79 772 q 418 1031 248 1031 q 566 1000 501 1031 q 673 901 630 968 q 757 505 757 770 q 673 111 757 241 q 566 12 630 43 q 418 -20 501 -20 m 418 92 q 568 187 522 92 q 614 505 614 280 q 568 824 614 730 q 418 920 522 920 q 269 824 315 920 q 222 505 222 726 q 269 187 222 285 q 418 92 315 92 z "},"Œ":{"ha":836,"x_min":49,"x_max":825,"o":"m 415 0 q 240 30 308 0 q 133 113 173 59 q 49 507 49 228 q 71 751 49 656 q 132 900 92 845 q 241 984 173 956 q 415 1013 310 1013 l 818 1013 l 818 897 l 575 897 l 575 597 l 798 597 l 798 482 l 575 482 l 575 115 l 825 115 l 825 0 l 415 0 m 441 115 l 441 897 l 400 897 q 233 819 280 897 q 198 705 210 781 q 186 505 186 630 q 198 308 186 383 q 233 193 210 233 q 400 115 280 115 l 441 115 z "},"P":{"ha":836,"x_min":117,"x_max":757,"o":"m 117 1013 l 412 1013 q 669 936 581 1013 q 736 839 715 896 q 757 709 757 781 q 670 484 757 560 q 412 407 584 407 l 254 407 l 254 0 l 117 0 l 117 1013 m 412 519 q 500 533 463 519 q 561 570 536 547 q 614 710 614 620 q 561 850 614 800 q 412 900 509 900 l 254 900 l 254 519 l 412 519 z "},"Þ":{"ha":836,"x_min":136,"x_max":790,"o":"m 136 1013 l 273 1013 l 273 829 l 446 829 q 706 758 621 829 q 790 538 790 687 q 769 409 790 463 q 706 320 747 355 q 446 249 621 249 l 273 249 l 273 0 l 136 0 l 136 1013 m 432 361 q 593 406 538 361 q 646 539 646 450 q 633 616 646 582 q 593 673 620 650 q 528 705 568 693 q 432 717 488 717 l 273 717 l 273 361 l 432 361 z "},"Q":{"ha":836,"x_min":77,"x_max":815,"o":"m 444 -18 q 431 -19 441 -18 q 418 -20 420 -20 q 163 111 250 -24 q 79 505 77 245 q 163 901 79 772 q 418 1031 248 1031 q 566 1000 501 1031 q 673 901 630 968 q 757 505 757 770 q 711 184 757 307 q 653 81 688 125 q 570 14 618 38 l 815 -237 l 655 -237 l 444 -18 m 418 92 q 568 187 522 92 q 614 505 614 280 q 568 824 614 730 q 418 920 522 920 q 269 824 315 920 q 222 505 222 726 q 269 187 222 285 q 418 92 315 92 z "},"R":{"ha":836,"x_min":97,"x_max":836,"o":"m 97 1013 l 379 1013 q 635 937 547 1013 q 724 722 724 861 q 710 628 724 669 q 669 556 696 588 q 515 478 616 492 q 606 427 570 465 q 647 372 625 408 q 699 277 669 336 l 836 0 l 689 0 l 568 256 q 518 347 542 312 q 475 397 495 381 q 426 420 454 413 q 366 428 397 428 l 235 428 l 235 0 l 97 0 l 97 1013 m 385 541 q 531 585 483 541 q 579 718 579 629 q 528 854 579 807 q 467 888 504 876 q 379 900 430 900 l 235 900 l 235 541 l 385 541 z "},"Ŕ":{"ha":836,"x_min":97,"x_max":836,"o":"m 428 1259 l 554 1259 l 399 1080 l 294 1080 l 428 1259 m 97 1013 l 379 1013 q 634 937 545 1013 q 724 725 724 861 q 669 555 724 616 q 515 478 614 493 q 579 449 552 468 q 634 391 607 431 q 699 277 661 351 l 836 0 l 689 0 l 568 256 q 503 367 533 330 q 441 416 473 404 q 366 428 409 428 l 235 428 l 235 0 l 97 0 l 97 1013 m 385 541 q 579 716 579 541 q 528 854 579 808 q 379 900 477 900 l 235 900 l 235 541 l 385 541 z "},"Ř":{"ha":836,"x_min":97,"x_max":836,"o":"m 174 1256 l 269 1256 l 381 1135 l 494 1256 l 589 1256 l 446 1076 l 317 1076 l 174 1256 m 97 1013 l 379 1013 q 634 937 545 1013 q 724 725 724 861 q 669 555 724 616 q 515 478 614 493 q 579 449 552 468 q 634 391 607 431 q 699 277 661 351 l 836 0 l 689 0 l 568 256 q 503 367 533 330 q 441 416 473 404 q 366 428 409 428 l 235 428 l 235 0 l 97 0 l 97 1013 m 385 541 q 579 716 579 541 q 528 854 579 808 q 379 900 477 900 l 235 900 l 235 541 l 385 541 z "},"Ŗ":{"ha":836,"x_min":97,"x_max":836,"o":"m 97 1013 l 379 1013 q 634 937 545 1013 q 724 725 724 861 q 669 555 724 616 q 515 478 614 493 q 579 449 552 468 q 634 391 607 431 q 699 277 661 351 l 836 0 l 689 0 l 568 256 q 503 367 533 330 q 441 416 473 404 q 366 428 409 428 l 235 428 l 235 0 l 97 0 l 97 1013 m 385 541 q 579 716 579 541 q 528 854 579 808 q 379 900 477 900 l 235 900 l 235 541 l 385 541 m 418 -135 l 580 -135 l 453 -369 l 354 -369 l 418 -135 z "},"S":{"ha":836,"x_min":94,"x_max":745,"o":"m 396 -20 q 252 -4 323 -20 q 107 41 180 12 l 107 187 q 255 115 184 138 q 394 92 323 92 q 556 138 498 92 q 614 271 614 184 q 574 383 614 344 q 520 420 553 406 q 436 446 487 434 l 363 463 q 243 501 294 478 q 158 559 192 524 q 94 732 94 623 q 186 950 94 869 q 290 1010 229 989 q 428 1031 351 1031 q 551 1018 487 1031 q 616 1001 582 1011 q 686 978 650 991 l 686 839 q 623 874 654 860 q 562 899 592 889 q 435 920 498 920 q 282 874 338 920 q 225 749 225 829 q 235 691 225 715 q 262 651 245 668 q 400 591 301 614 l 472 575 q 679 471 612 543 q 745 278 745 401 q 721 146 745 201 q 656 56 697 92 q 396 -20 567 -20 z "},"Ś":{"ha":836,"x_min":94,"x_max":745,"o":"m 475 1259 l 602 1259 l 446 1080 l 342 1080 l 475 1259 m 397 -20 q 252 -4 323 -20 q 107 41 180 11 l 107 187 q 395 92 258 92 q 556 137 499 92 q 614 275 614 183 q 575 382 614 343 q 436 446 536 422 l 363 463 q 157 560 220 495 q 94 730 94 625 q 136 889 94 822 q 252 994 177 957 q 428 1031 327 1031 q 686 978 544 1031 l 686 839 q 434 920 561 920 q 281 875 338 920 q 225 747 225 830 q 263 650 225 686 q 400 591 301 613 l 472 575 q 680 470 616 543 q 745 279 745 397 q 655 57 745 133 q 397 -20 566 -20 z "},"Š":{"ha":836,"x_min":94,"x_max":745,"o":"m 222 1256 l 317 1256 l 429 1135 l 541 1256 l 636 1256 l 493 1076 l 365 1076 l 222 1256 m 396 -20 q 252 -5 315 -20 q 179 15 216 3 q 107 41 142 27 l 107 187 q 255 115 184 138 q 326 97 292 102 q 395 92 361 92 q 556 138 498 92 q 598 192 583 159 q 614 271 614 224 q 603 337 614 309 q 574 384 593 365 q 518 420 553 406 q 436 446 484 435 l 363 463 q 243 501 294 478 q 158 559 192 524 q 111 633 127 591 q 94 732 94 675 q 136 891 94 824 q 252 995 177 958 q 428 1031 327 1031 q 551 1018 487 1031 q 616 1001 582 1011 q 686 978 650 991 l 686 839 q 621 875 652 861 q 562 899 590 890 q 435 920 498 920 q 346 908 385 920 q 281 875 307 896 q 225 749 225 829 q 233 696 225 722 q 262 651 241 671 q 400 591 302 614 l 472 575 q 590 535 538 560 q 679 471 643 509 q 745 278 745 401 q 721 146 745 201 q 656 56 697 92 q 545 -1 611 18 q 396 -20 479 -20 z "},"Ş":{"ha":836,"x_min":94,"x_max":745,"o":"m 679 471 q 745 278 745 401 q 721 146 745 201 q 656 56 697 92 q 486 -14 592 3 q 513 -48 501 -31 q 531 -78 524 -64 q 544 -111 538 -94 q 549 -149 549 -128 q 508 -237 549 -206 q 458 -260 488 -252 q 387 -268 429 -268 q 328 -264 357 -268 q 268 -252 296 -260 l 268 -163 q 370 -184 315 -184 q 454 -122 454 -184 q 439 -71 454 -100 q 426 -47 434 -60 q 408 -20 418 -35 l 396 -20 q 252 -5 315 -20 q 179 15 216 3 q 107 41 142 27 l 107 187 q 255 115 184 138 q 326 97 292 102 q 395 92 361 92 q 556 138 498 92 q 598 192 583 159 q 614 271 614 224 q 603 337 614 309 q 574 384 593 365 q 518 420 553 406 q 436 446 484 435 l 363 463 q 243 501 294 478 q 158 559 192 524 q 111 633 127 591 q 94 732 94 675 q 136 891 94 824 q 252 995 177 958 q 428 1031 327 1031 q 551 1018 487 1031 q 616 1001 582 1011 q 686 978 650 991 l 686 839 q 621 875 652 861 q 562 899 590 890 q 435 920 498 920 q 346 908 385 920 q 281 875 307 896 q 225 749 225 829 q 233 696 225 722 q 262 651 241 671 q 400 591 302 614 l 472 575 q 590 535 538 560 q 679 471 643 509 z "},"Ș":{"ha":836,"x_min":94,"x_max":745,"o":"m 397 -20 q 252 -4 323 -20 q 107 41 180 11 l 107 187 q 395 92 258 92 q 556 137 499 92 q 614 275 614 183 q 575 382 614 343 q 436 446 536 422 l 363 463 q 157 560 220 495 q 94 730 94 625 q 136 889 94 822 q 252 994 177 957 q 428 1031 327 1031 q 686 978 544 1031 l 686 839 q 434 920 561 920 q 281 875 338 920 q 225 747 225 830 q 263 650 225 686 q 400 591 301 613 l 472 575 q 680 470 616 543 q 745 279 745 397 q 655 57 745 133 q 397 -20 566 -20 m 340 -134 l 503 -134 l 376 -368 l 277 -368 l 340 -134 z "},"T":{"ha":836,"x_min":32,"x_max":804,"o":"m 350 897 l 32 897 l 32 1013 l 804 1013 l 804 897 l 488 897 l 488 0 l 350 0 l 350 897 z "},"Ŧ":{"ha":836,"x_min":32,"x_max":804,"o":"m 350 391 l 170 391 l 170 507 l 350 507 l 350 897 l 32 897 l 32 1013 l 804 1013 l 804 897 l 488 897 l 488 507 l 667 507 l 667 391 l 488 391 l 488 0 l 350 0 l 350 391 z "},"Ť":{"ha":836,"x_min":32,"x_max":804,"o":"m 215 1256 l 310 1256 l 422 1135 l 534 1256 l 629 1256 l 486 1076 l 358 1076 l 215 1256 m 350 897 l 32 897 l 32 1013 l 804 1013 l 804 897 l 488 897 l 488 0 l 350 0 l 350 897 z "},"Ț":{"ha":836,"x_min":32,"x_max":804,"o":"m 488 0 l 475 0 q 531 -77 513 -43 q 549 -149 549 -112 q 386 -268 549 -268 q 268 -252 328 -268 l 268 -163 q 316 -179 289 -174 q 368 -184 342 -184 q 454 -123 454 -184 q 441 -74 454 -102 q 395 0 428 -46 l 350 0 l 350 897 l 32 897 l 32 1013 l 804 1013 l 804 897 l 488 897 l 488 0 z "},"U":{"ha":836,"x_min":100,"x_max":736,"o":"m 418 -20 q 290 0 347 -20 q 235 25 263 9 q 185 60 207 40 q 148 104 164 79 q 120 169 132 130 q 104 254 109 203 q 100 389 100 305 l 100 1013 l 237 1013 l 237 326 q 241 221 237 252 q 256 172 245 190 q 319 112 277 132 q 418 92 359 92 q 517 112 477 92 q 581 172 559 134 q 595 220 591 192 q 599 325 599 252 l 599 1013 l 736 1013 l 736 389 q 730 249 736 299 q 717 169 725 199 q 650 60 699 103 q 601 24 628 39 q 547 0 573 9 q 490 -14 522 -9 q 418 -20 458 -20 z "},"Ú":{"ha":836,"x_min":100,"x_max":736,"o":"m 456 1259 l 582 1259 l 427 1080 l 322 1080 l 456 1259 m 418 -20 q 290 0 347 -20 q 235 25 263 9 q 185 60 207 40 q 148 104 164 79 q 120 169 132 130 q 104 254 109 203 q 100 389 100 305 l 100 1013 l 237 1013 l 237 326 q 241 221 237 252 q 256 172 245 190 q 319 112 277 132 q 418 92 359 92 q 517 112 477 92 q 581 172 559 134 q 595 220 591 192 q 599 325 599 252 l 599 1013 l 736 1013 l 736 389 q 730 249 736 299 q 717 169 725 199 q 650 60 699 103 q 601 24 628 39 q 547 0 573 9 q 490 -14 522 -9 q 418 -20 458 -20 z "},"Û":{"ha":836,"x_min":100,"x_max":736,"o":"m 354 1256 l 482 1256 l 625 1076 l 530 1076 l 418 1196 l 306 1076 l 211 1076 l 354 1256 m 418 -20 q 290 0 347 -20 q 235 25 263 9 q 185 60 207 40 q 148 104 164 79 q 120 169 132 130 q 104 254 109 203 q 100 389 100 305 l 100 1013 l 237 1013 l 237 326 q 241 221 237 252 q 256 172 245 190 q 319 112 277 132 q 418 92 359 92 q 517 112 477 92 q 581 172 559 134 q 595 220 591 192 q 599 325 599 252 l 599 1013 l 736 1013 l 736 389 q 730 249 736 299 q 717 169 725 199 q 650 60 699 103 q 601 24 628 39 q 547 0 573 9 q 490 -14 522 -9 q 418 -20 458 -20 z "},"Ü":{"ha":836,"x_min":100,"x_max":736,"o":"m 237 1117 q 216 1137 216 1117 l 216 1234 q 237 1255 216 1255 l 334 1255 q 354 1234 354 1255 l 354 1137 q 334 1117 354 1117 l 237 1117 m 503 1117 q 482 1137 482 1117 l 482 1234 q 503 1255 482 1255 l 599 1255 q 619 1234 619 1255 l 619 1137 q 599 1117 619 1117 l 503 1117 m 418 -20 q 290 0 347 -20 q 235 25 263 9 q 185 60 207 40 q 148 104 164 79 q 120 169 132 130 q 104 254 109 203 q 100 389 100 305 l 100 1013 l 237 1013 l 237 326 q 241 221 237 252 q 256 172 245 190 q 319 112 277 132 q 418 92 359 92 q 517 112 477 92 q 581 172 559 134 q 595 220 591 192 q 599 325 599 252 l 599 1013 l 736 1013 l 736 389 q 730 249 736 299 q 717 169 725 199 q 650 60 699 103 q 601 24 628 39 q 547 0 573 9 q 490 -14 522 -9 q 418 -20 458 -20 z "},"Ù":{"ha":836,"x_min":100,"x_max":736,"o":"m 256 1256 l 380 1256 l 514 1077 l 410 1077 l 256 1256 m 418 -20 q 290 0 347 -20 q 235 25 263 9 q 185 60 207 40 q 148 104 164 79 q 120 169 132 130 q 104 254 109 203 q 100 389 100 305 l 100 1013 l 237 1013 l 237 326 q 241 221 237 252 q 256 172 245 190 q 319 112 277 132 q 418 92 359 92 q 517 112 477 92 q 581 172 559 134 q 595 220 591 192 q 599 325 599 252 l 599 1013 l 736 1013 l 736 389 q 730 249 736 299 q 717 169 725 199 q 650 60 699 103 q 601 24 628 39 q 547 0 573 9 q 490 -14 522 -9 q 418 -20 458 -20 z "},"Ư":{"ha":836,"x_min":6,"x_max":830,"o":"m 817 1059 q 827 1008 824 1030 q 830 962 830 987 q 801 846 830 886 q 712 806 772 806 q 677 809 694 806 q 642 823 661 813 l 642 389 q 637 253 642 303 q 623 168 632 203 q 554 57 601 97 q 454 0 507 18 q 326 -20 393 -20 q 192 1 252 -20 q 92 59 133 22 q 52 109 68 81 q 26 170 35 137 q 11 253 16 201 q 6 389 6 305 l 6 1013 l 144 1013 l 144 326 q 148 221 144 252 q 169 161 152 192 q 225 111 185 130 q 324 92 266 92 q 425 113 382 92 q 488 172 469 134 q 495 193 492 180 q 501 220 499 205 q 505 325 505 252 l 505 1013 l 642 1013 l 642 910 q 687 900 667 900 q 747 975 747 900 q 726 1059 747 1017 l 817 1059 z "},"Ű":{"ha":836,"x_min":100,"x_max":736,"o":"m 367 1256 l 493 1256 l 338 1077 l 233 1077 l 367 1256 m 583 1256 l 709 1256 l 554 1077 l 450 1077 l 583 1256 m 419 -20 q 286 1 345 -20 q 186 59 227 22 q 145 109 161 81 q 119 170 129 137 q 105 253 110 201 q 100 389 100 305 l 100 1013 l 237 1013 l 237 326 q 241 221 237 252 q 262 161 245 192 q 319 111 279 130 q 418 92 359 92 q 519 113 475 92 q 581 172 562 134 q 589 193 585 180 q 595 220 593 205 q 599 325 599 252 l 599 1013 l 736 1013 l 736 389 q 731 253 736 303 q 716 168 726 203 q 648 57 694 97 q 547 0 601 18 q 419 -20 487 -20 z "},"Ū":{"ha":836,"x_min":100,"x_max":736,"o":"m 215 1221 l 621 1221 l 621 1120 l 215 1120 l 215 1221 m 419 -20 q 286 1 345 -20 q 186 59 227 22 q 145 109 161 81 q 119 170 129 137 q 105 253 110 201 q 100 389 100 305 l 100 1013 l 237 1013 l 237 326 q 241 221 237 252 q 262 161 245 192 q 319 111 279 130 q 418 92 359 92 q 519 113 475 92 q 581 172 562 134 q 589 193 585 180 q 595 220 593 205 q 599 325 599 252 l 599 1013 l 736 1013 l 736 389 q 731 253 736 303 q 716 168 726 203 q 648 57 694 97 q 547 0 601 18 q 419 -20 487 -20 z "},"Ų":{"ha":836,"x_min":100,"x_max":736,"o":"m 736 1013 l 736 389 q 731 253 736 303 q 716 168 726 203 q 648 57 694 97 q 547 0 601 18 q 452 -18 503 -16 q 410 -87 422 -60 q 398 -136 398 -114 q 473 -195 398 -195 q 557 -175 515 -195 l 557 -265 q 507 -276 528 -273 q 460 -279 485 -279 q 344 -250 384 -279 q 304 -161 304 -221 q 318 -95 304 -129 q 372 -17 332 -61 q 267 8 313 -12 q 186 59 220 28 q 145 109 161 81 q 119 170 129 137 q 105 253 110 201 q 100 389 100 305 l 100 1013 l 237 1013 l 237 326 q 241 221 237 252 q 262 161 245 192 q 319 111 279 130 q 418 92 359 92 q 519 113 475 92 q 581 172 562 134 q 589 193 585 180 q 595 220 593 205 q 599 325 599 252 l 599 1013 l 736 1013 z "},"Ů":{"ha":836,"x_min":100,"x_max":736,"o":"m 425 917 q 331 942 373 917 q 263 1009 288 967 q 239 1103 239 1051 q 263 1197 239 1155 q 331 1264 288 1239 q 425 1289 373 1289 q 520 1264 477 1289 q 587 1197 562 1239 q 611 1103 611 1155 q 587 1009 611 1051 q 520 942 562 967 q 425 917 477 917 m 425 1000 q 497 1030 467 1000 q 528 1103 528 1061 q 497 1176 528 1146 q 425 1206 467 1206 q 352 1176 381 1206 q 322 1103 322 1147 q 352 1030 322 1059 q 425 1000 381 1000 m 419 -20 q 286 1 345 -20 q 186 59 227 22 q 145 109 161 81 q 119 170 129 137 q 105 253 110 201 q 100 389 100 305 l 100 1013 l 237 1013 l 237 326 q 241 221 237 252 q 262 161 245 192 q 319 111 279 130 q 418 92 359 92 q 519 113 475 92 q 581 172 562 134 q 589 193 585 180 q 595 220 593 205 q 599 325 599 252 l 599 1013 l 736 1013 l 736 389 q 731 253 736 303 q 716 168 726 203 q 648 57 694 97 q 547 0 601 18 q 419 -20 487 -20 z "},"Ũ":{"ha":836,"x_min":100,"x_max":736,"o":"m 195 1107 q 229 1216 195 1177 q 327 1256 263 1256 q 375 1248 354 1256 q 421 1227 395 1240 l 460 1206 q 509 1190 489 1190 q 543 1206 530 1190 q 557 1252 557 1223 l 557 1256 l 642 1256 q 606 1148 639 1190 q 511 1107 574 1107 q 468 1114 489 1107 q 415 1137 446 1120 l 376 1159 q 330 1176 347 1176 q 293 1159 307 1176 q 279 1112 279 1142 l 279 1107 l 195 1107 m 419 -20 q 286 1 345 -20 q 186 59 227 22 q 145 109 161 81 q 119 170 129 137 q 105 253 110 201 q 100 389 100 305 l 100 1013 l 237 1013 l 237 326 q 241 221 237 252 q 262 161 245 192 q 319 111 279 130 q 418 92 359 92 q 519 113 475 92 q 581 172 562 134 q 589 193 585 180 q 595 220 593 205 q 599 325 599 252 l 599 1013 l 736 1013 l 736 389 q 731 253 736 303 q 716 168 726 203 q 648 57 694 97 q 547 0 601 18 q 419 -20 487 -20 z "},"V":{"ha":836,"x_min":39,"x_max":798,"o":"m 39 1013 l 180 1013 l 418 115 l 656 1013 l 798 1013 l 501 0 l 335 0 l 39 1013 z "},"W":{"ha":836,"x_min":0,"x_max":836,"o":"m 0 1013 l 134 1013 l 231 191 l 346 734 l 489 734 l 606 189 l 703 1013 l 836 1013 l 685 0 l 555 0 l 418 602 l 281 0 l 151 0 l 0 1013 z "},"Ẃ":{"ha":836,"x_min":0,"x_max":836,"o":"m 456 1259 l 582 1259 l 427 1080 l 322 1080 l 456 1259 m 0 1013 l 134 1013 l 231 191 l 346 734 l 489 734 l 606 189 l 703 1013 l 836 1013 l 685 0 l 555 0 l 418 602 l 281 0 l 151 0 l 0 1013 z "},"Ŵ":{"ha":836,"x_min":0,"x_max":836,"o":"m 354 1256 l 482 1256 l 625 1076 l 530 1076 l 418 1196 l 306 1076 l 211 1076 l 354 1256 m 0 1013 l 134 1013 l 231 191 l 346 734 l 489 734 l 606 189 l 703 1013 l 836 1013 l 685 0 l 555 0 l 418 602 l 281 0 l 151 0 l 0 1013 z "},"Ẅ":{"ha":836,"x_min":0,"x_max":836,"o":"m 237 1119 q 216 1140 216 1119 l 216 1235 q 237 1256 216 1256 l 333 1256 q 354 1235 354 1256 l 354 1140 q 333 1119 354 1119 l 237 1119 m 503 1119 q 482 1140 482 1119 l 482 1235 q 503 1256 482 1256 l 598 1256 q 619 1235 619 1256 l 619 1140 q 598 1119 619 1119 l 503 1119 m 0 1013 l 134 1013 l 231 191 l 346 734 l 489 734 l 606 189 l 703 1013 l 836 1013 l 685 0 l 555 0 l 418 602 l 281 0 l 151 0 l 0 1013 z "},"Ẁ":{"ha":836,"x_min":0,"x_max":836,"o":"m 256 1256 l 380 1256 l 514 1077 l 410 1077 l 256 1256 m 0 1013 l 134 1013 l 231 191 l 346 734 l 489 734 l 606 189 l 703 1013 l 836 1013 l 685 0 l 555 0 l 418 602 l 281 0 l 151 0 l 0 1013 z "},"X":{"ha":836,"x_min":12,"x_max":823,"o":"m 351 536 l 58 1013 l 205 1013 l 428 631 l 654 1013 l 802 1013 l 498 536 l 823 0 l 676 0 l 428 436 l 160 0 l 12 0 l 351 536 z "},"Y":{"ha":836,"x_min":25,"x_max":811,"o":"m 349 454 l 25 1013 l 171 1013 l 418 566 l 664 1013 l 811 1013 l 486 454 l 486 0 l 349 0 l 349 454 z "},"Ý":{"ha":836,"x_min":25,"x_max":811,"o":"m 456 1256 l 582 1256 l 427 1077 l 322 1077 l 456 1256 m 349 454 l 25 1013 l 171 1013 l 418 566 l 664 1013 l 811 1013 l 486 454 l 486 0 l 349 0 l 349 454 z "},"Ŷ":{"ha":836,"x_min":25,"x_max":811,"o":"m 354 1256 l 482 1256 l 625 1076 l 530 1076 l 418 1196 l 306 1076 l 211 1076 l 354 1256 m 349 454 l 25 1013 l 171 1013 l 418 566 l 664 1013 l 811 1013 l 486 454 l 486 0 l 349 0 l 349 454 z "},"Ÿ":{"ha":836,"x_min":25,"x_max":811,"o":"m 237 1118 q 216 1139 216 1118 l 216 1236 q 237 1256 216 1256 l 334 1256 q 354 1236 354 1256 l 354 1139 q 334 1118 354 1118 l 237 1118 m 503 1118 q 482 1139 482 1118 l 482 1236 q 503 1256 482 1256 l 599 1256 q 619 1236 619 1256 l 619 1139 q 599 1118 619 1118 l 503 1118 m 349 454 l 25 1013 l 171 1013 l 418 566 l 664 1013 l 811 1013 l 486 454 l 486 0 l 349 0 l 349 454 z "},"Ỳ":{"ha":836,"x_min":25,"x_max":811,"o":"m 256 1256 l 380 1256 l 514 1077 l 410 1077 l 256 1256 m 349 454 l 25 1013 l 171 1013 l 418 566 l 664 1013 l 811 1013 l 486 454 l 486 0 l 349 0 l 349 454 z "},"Z":{"ha":836,"x_min":75,"x_max":762,"o":"m 75 104 l 589 897 l 90 897 l 90 1013 l 747 1013 l 747 908 l 218 115 l 762 115 l 762 0 l 75 0 l 75 104 z "},"Ź":{"ha":836,"x_min":75,"x_max":762,"o":"m 443 1256 l 569 1256 l 414 1077 l 309 1077 l 443 1256 m 75 104 l 589 897 l 90 897 l 90 1013 l 747 1013 l 747 908 l 218 115 l 762 115 l 762 0 l 75 0 l 75 104 z "},"Ž":{"ha":836,"x_min":75,"x_max":762,"o":"m 180 1256 l 275 1256 l 387 1135 l 499 1256 l 594 1256 l 451 1076 l 323 1076 l 180 1256 m 75 104 l 589 897 l 90 897 l 90 1013 l 747 1013 l 747 908 l 218 115 l 762 115 l 762 0 l 75 0 l 75 104 z "},"Ż":{"ha":836,"x_min":75,"x_max":762,"o":"m 371 1117 q 351 1137 351 1117 l 351 1236 q 371 1256 351 1256 l 469 1256 q 490 1236 490 1256 l 490 1137 q 469 1117 490 1117 l 371 1117 m 75 104 l 589 897 l 90 897 l 90 1013 l 747 1013 l 747 908 l 218 115 l 762 115 l 762 0 l 75 0 l 75 104 z "},"a":{"ha":836,"x_min":92,"x_max":760,"o":"m 345 -20 q 164 44 235 -20 q 92 226 92 107 q 140 379 92 324 q 264 457 187 435 q 427 479 340 479 l 595 479 l 595 499 q 546 634 595 596 q 408 672 496 672 q 272 653 338 672 q 148 600 205 634 l 148 725 q 274 763 210 748 q 404 778 338 778 q 536 759 472 778 q 647 698 600 741 q 709 585 694 656 q 720 433 720 534 l 720 278 q 727 137 720 214 q 760 0 734 60 l 635 0 q 616 57 623 26 q 606 115 610 87 q 495 14 566 47 q 345 -20 424 -20 m 376 85 q 502 123 453 85 q 572 222 550 161 q 595 354 595 283 l 595 382 l 437 382 q 333 370 384 382 q 250 325 283 358 q 217 228 217 292 q 261 120 217 156 q 376 85 305 85 z "},"á":{"ha":836,"x_min":92,"x_max":760,"o":"m 515 1135 l 649 1135 l 429 880 l 324 880 l 515 1135 m 348 -20 q 161 46 229 -20 q 111 120 129 77 q 92 222 92 162 q 178 414 92 347 q 427 479 262 479 l 595 479 l 595 499 q 549 631 595 589 q 404 672 504 672 q 275 654 340 672 q 148 600 208 635 l 148 725 q 211 747 176 736 q 281 765 245 758 q 405 778 341 778 q 566 749 498 778 q 625 715 597 736 q 673 667 653 694 q 696 626 687 648 q 709 583 705 604 q 720 433 720 535 l 720 278 q 722 209 722 239 q 726 153 723 179 q 734 100 730 125 q 742 62 739 75 q 753 22 747 41 q 760 0 759 3 l 635 0 q 616 59 626 20 q 610 89 613 74 q 606 115 607 104 q 555 55 586 81 q 494 13 524 28 q 348 -20 431 -20 m 374 85 q 535 157 476 85 q 595 354 595 229 l 595 382 l 437 382 q 273 344 329 382 q 217 229 217 306 q 258 123 217 161 q 306 95 278 105 q 374 85 334 85 z "},"ă":{"ha":836,"x_min":92,"x_max":760,"o":"m 420 879 q 208 1074 223 879 l 288 1074 q 327 998 296 1025 q 419 972 357 972 q 552 1074 533 972 l 633 1074 q 420 879 617 879 m 348 -20 q 161 46 229 -20 q 111 120 129 77 q 92 222 92 162 q 178 414 92 347 q 427 479 262 479 l 595 479 l 595 499 q 549 631 595 589 q 404 672 504 672 q 275 654 340 672 q 148 600 208 635 l 148 725 q 211 747 176 736 q 281 765 245 758 q 405 778 341 778 q 566 749 498 778 q 625 715 597 736 q 673 667 653 694 q 696 626 687 648 q 709 583 705 604 q 720 433 720 535 l 720 278 q 722 209 722 239 q 726 153 723 179 q 734 100 730 125 q 742 62 739 75 q 753 22 747 41 q 760 0 759 3 l 635 0 q 616 59 626 20 q 610 89 613 74 q 606 115 607 104 q 555 55 586 81 q 494 13 524 28 q 348 -20 431 -20 m 374 85 q 535 157 476 85 q 595 354 595 229 l 595 382 l 437 382 q 273 344 329 382 q 217 229 217 306 q 258 123 217 161 q 306 95 278 105 q 374 85 334 85 z "},"â":{"ha":836,"x_min":92,"x_max":760,"o":"m 370 1135 l 470 1135 l 637 880 l 543 880 l 420 1046 l 298 880 l 203 880 l 370 1135 m 348 -20 q 161 46 229 -20 q 111 120 129 77 q 92 222 92 162 q 178 414 92 347 q 427 479 262 479 l 595 479 l 595 499 q 549 631 595 589 q 404 672 504 672 q 275 654 340 672 q 148 600 208 635 l 148 725 q 211 747 176 736 q 281 765 245 758 q 405 778 341 778 q 566 749 498 778 q 625 715 597 736 q 673 667 653 694 q 696 626 687 648 q 709 583 705 604 q 720 433 720 535 l 720 278 q 722 209 722 239 q 726 153 723 179 q 734 100 730 125 q 742 62 739 75 q 753 22 747 41 q 760 0 759 3 l 635 0 q 616 59 626 20 q 610 89 613 74 q 606 115 607 104 q 555 55 586 81 q 494 13 524 28 q 348 -20 431 -20 m 374 85 q 535 157 476 85 q 595 354 595 229 l 595 382 l 437 382 q 273 344 329 382 q 217 229 217 306 q 258 123 217 161 q 306 95 278 105 q 374 85 334 85 z "},"ä":{"ha":836,"x_min":92,"x_max":760,"o":"m 239 916 q 218 936 218 916 l 218 1032 q 239 1053 218 1053 l 336 1053 q 356 1032 356 1053 l 356 936 q 336 916 356 916 l 239 916 m 505 916 q 484 936 484 916 l 484 1032 q 505 1053 484 1053 l 601 1053 q 621 1032 621 1053 l 621 936 q 601 916 621 916 l 505 916 m 348 -20 q 161 46 229 -20 q 111 120 129 77 q 92 222 92 162 q 178 414 92 347 q 427 479 262 479 l 595 479 l 595 499 q 549 631 595 589 q 404 672 504 672 q 275 654 340 672 q 148 600 208 635 l 148 725 q 211 747 176 736 q 281 765 245 758 q 405 778 341 778 q 566 749 498 778 q 625 715 597 736 q 673 667 653 694 q 696 626 687 648 q 709 583 705 604 q 720 433 720 535 l 720 278 q 722 209 722 239 q 726 153 723 179 q 734 100 730 125 q 742 62 739 75 q 753 22 747 41 q 760 0 759 3 l 635 0 q 616 59 626 20 q 610 89 613 74 q 606 115 607 104 q 555 55 586 81 q 494 13 524 28 q 348 -20 431 -20 m 374 85 q 535 157 476 85 q 595 354 595 229 l 595 382 l 437 382 q 273 344 329 382 q 217 229 217 306 q 258 123 217 161 q 306 95 278 105 q 374 85 334 85 z "},"à":{"ha":836,"x_min":92,"x_max":760,"o":"m 191 1135 l 326 1135 l 516 880 l 412 880 l 191 1135 m 348 -20 q 161 46 229 -20 q 111 120 129 77 q 92 222 92 162 q 178 414 92 347 q 427 479 262 479 l 595 479 l 595 499 q 549 631 595 589 q 404 672 504 672 q 275 654 340 672 q 148 600 208 635 l 148 725 q 211 747 176 736 q 281 765 245 758 q 405 778 341 778 q 566 749 498 778 q 625 715 597 736 q 673 667 653 694 q 696 626 687 648 q 709 583 705 604 q 720 433 720 535 l 720 278 q 722 209 722 239 q 726 153 723 179 q 734 100 730 125 q 742 62 739 75 q 753 22 747 41 q 760 0 759 3 l 635 0 q 616 59 626 20 q 610 89 613 74 q 606 115 607 104 q 555 55 586 81 q 494 13 524 28 q 348 -20 431 -20 m 374 85 q 535 157 476 85 q 595 354 595 229 l 595 382 l 437 382 q 273 344 329 382 q 217 229 217 306 q 258 123 217 161 q 306 95 278 105 q 374 85 334 85 z "},"ā":{"ha":836,"x_min":92,"x_max":760,"o":"m 217 1015 l 623 1015 l 623 914 l 217 914 l 217 1015 m 348 -20 q 161 46 229 -20 q 111 120 129 77 q 92 222 92 162 q 178 414 92 347 q 427 479 262 479 l 595 479 l 595 499 q 549 631 595 589 q 404 672 504 672 q 275 654 340 672 q 148 600 208 635 l 148 725 q 211 747 176 736 q 281 765 245 758 q 405 778 341 778 q 566 749 498 778 q 625 715 597 736 q 673 667 653 694 q 696 626 687 648 q 709 583 705 604 q 720 433 720 535 l 720 278 q 722 209 722 239 q 726 153 723 179 q 734 100 730 125 q 742 62 739 75 q 753 22 747 41 q 760 0 759 3 l 635 0 q 616 59 626 20 q 610 89 613 74 q 606 115 607 104 q 555 55 586 81 q 494 13 524 28 q 348 -20 431 -20 m 374 85 q 535 157 476 85 q 595 354 595 229 l 595 382 l 437 382 q 273 344 329 382 q 217 229 217 306 q 258 123 217 161 q 306 95 278 105 q 374 85 334 85 z "},"ą":{"ha":836,"x_min":92,"x_max":815,"o":"m 731 -182 q 815 -162 773 -182 l 815 -252 q 765 -263 787 -260 q 718 -266 743 -266 q 602 -237 642 -266 q 562 -148 562 -208 q 578 -80 562 -114 q 634 1 593 -47 q 616 59 627 20 q 610 89 613 74 q 606 115 607 104 q 555 55 586 81 q 494 13 524 28 q 348 -20 431 -20 q 161 46 229 -20 q 111 120 129 77 q 92 222 92 162 q 178 414 92 347 q 427 479 262 479 l 595 479 l 595 499 q 549 631 595 589 q 404 672 504 672 q 275 654 340 672 q 148 600 208 635 l 148 725 q 211 747 176 736 q 281 765 245 758 q 405 778 341 778 q 566 749 498 778 q 625 715 597 736 q 673 667 653 694 q 696 626 687 648 q 709 583 705 604 q 720 433 720 535 l 720 278 q 722 209 722 239 q 726 153 723 179 q 734 100 730 125 q 742 62 739 75 q 753 22 747 41 q 760 0 759 3 l 715 0 q 670 -72 683 -43 q 656 -123 656 -100 q 731 -182 656 -182 m 595 382 l 437 382 q 273 344 329 382 q 217 229 217 306 q 258 123 217 161 q 306 95 278 105 q 374 85 334 85 q 535 157 476 85 q 595 354 595 229 l 595 382 z "},"å":{"ha":836,"x_min":92,"x_max":760,"o":"m 420 847 q 288 901 342 847 q 234 1034 234 956 q 288 1166 234 1112 q 420 1219 342 1219 q 553 1166 499 1219 q 606 1034 606 1112 q 553 901 606 955 q 420 847 498 847 m 420 930 q 493 960 463 930 q 523 1034 523 990 q 493 1106 523 1076 q 419 1136 463 1136 q 347 1107 376 1136 q 317 1034 317 1077 q 347 960 317 990 q 420 930 377 930 m 348 -20 q 161 46 229 -20 q 111 120 129 77 q 92 222 92 162 q 178 414 92 347 q 427 479 262 479 l 595 479 l 595 499 q 549 631 595 589 q 404 672 504 672 q 275 654 340 672 q 148 600 208 635 l 148 725 q 211 747 176 736 q 281 765 245 758 q 405 778 341 778 q 566 749 498 778 q 625 715 597 736 q 673 667 653 694 q 696 626 687 648 q 709 583 705 604 q 720 433 720 535 l 720 278 q 722 209 722 239 q 726 153 723 179 q 734 100 730 125 q 742 62 739 75 q 753 22 747 41 q 760 0 759 3 l 635 0 q 616 59 626 20 q 610 89 613 74 q 606 115 607 104 q 555 55 586 81 q 494 13 524 28 q 348 -20 431 -20 m 374 85 q 535 157 476 85 q 595 354 595 229 l 595 382 l 437 382 q 273 344 329 382 q 217 229 217 306 q 258 123 217 161 q 306 95 278 105 q 374 85 334 85 z "},"ã":{"ha":836,"x_min":92,"x_max":760,"o":"m 197 908 q 232 1049 197 998 q 328 1099 267 1099 q 376 1090 353 1099 q 423 1058 398 1080 l 462 1021 q 488 1001 477 1008 q 508 994 498 994 q 546 1019 534 994 q 559 1099 558 1045 l 644 1099 q 608 958 643 1009 q 513 908 574 908 q 464 918 487 908 q 417 949 442 928 l 378 987 q 363 1000 370 995 q 353 1007 357 1004 q 332 1013 342 1013 q 294 988 307 1013 q 281 908 282 963 l 197 908 m 348 -20 q 161 46 229 -20 q 111 120 129 77 q 92 222 92 162 q 178 414 92 347 q 427 479 262 479 l 595 479 l 595 499 q 549 631 595 589 q 404 672 504 672 q 275 654 340 672 q 148 600 208 635 l 148 725 q 211 747 176 736 q 281 765 245 758 q 405 778 341 778 q 566 749 498 778 q 625 715 597 736 q 673 667 653 694 q 696 626 687 648 q 709 583 705 604 q 720 433 720 535 l 720 278 q 722 209 722 239 q 726 153 723 179 q 734 100 730 125 q 742 62 739 75 q 753 22 747 41 q 760 0 759 3 l 635 0 q 616 59 626 20 q 610 89 613 74 q 606 115 607 104 q 555 55 586 81 q 494 13 524 28 q 348 -20 431 -20 m 374 85 q 535 157 476 85 q 595 354 595 229 l 595 382 l 437 382 q 273 344 329 382 q 217 229 217 306 q 258 123 217 161 q 306 95 278 105 q 374 85 334 85 z "},"æ":{"ha":836,"x_min":28,"x_max":814,"o":"m 243 -20 q 83 39 138 -20 q 41 112 54 69 q 28 206 28 154 q 44 309 28 264 q 96 385 60 353 q 293 446 164 446 l 372 446 l 372 505 q 339 630 372 587 q 242 673 306 673 q 159 659 201 673 q 116 642 138 652 q 72 618 93 631 l 72 732 q 122 752 98 743 q 169 767 146 762 q 255 778 212 778 q 358 757 317 778 q 425 692 400 735 q 598 778 472 778 q 765 698 717 778 q 814 410 814 617 l 814 349 l 481 349 q 480 338 480 343 q 480 327 480 332 q 480 320 480 325 q 479 300 479 316 q 489 195 479 234 q 514 133 498 156 q 560 96 532 107 q 626 85 588 85 q 722 102 676 85 q 799 154 764 119 l 799 37 q 717 -6 758 8 q 622 -20 675 -20 q 499 8 549 -20 q 427 89 448 36 q 355 7 400 35 q 243 -20 310 -20 m 703 446 l 703 481 q 696 570 703 534 q 677 629 689 607 q 644 661 665 649 q 591 673 623 673 q 507 627 532 673 q 481 475 481 581 l 481 446 l 703 446 m 254 85 q 343 130 318 85 q 361 191 355 152 q 368 300 368 231 l 368 349 l 335 349 q 180 318 220 349 q 139 212 139 286 q 170 118 139 151 q 254 85 200 85 z "},"b":{"ha":836,"x_min":131,"x_max":754,"o":"m 465 -20 q 256 96 321 -20 l 243 0 l 131 0 l 131 1055 l 256 1055 l 256 663 q 342 750 287 722 q 465 778 397 778 q 602 743 547 778 q 691 650 658 708 q 740 522 725 592 q 754 380 754 451 q 739 238 754 309 q 691 109 724 168 q 602 16 657 51 q 465 -20 546 -20 m 439 86 q 535 114 499 86 q 590 186 572 142 q 616 282 609 231 q 623 379 623 333 q 616 476 623 425 q 590 572 609 528 q 535 644 572 616 q 439 672 499 672 q 344 644 380 672 q 289 572 308 616 q 262 477 269 528 q 256 380 256 426 q 262 282 256 333 q 289 186 269 231 q 344 114 308 142 q 439 86 380 86 z "},"c":{"ha":836,"x_min":111,"x_max":699,"o":"m 478 -20 q 276 31 358 -20 q 153 172 195 81 q 111 379 111 262 q 153 587 111 497 q 277 727 195 677 q 481 778 359 778 q 595 763 544 778 q 699 720 646 749 l 699 589 q 602 652 650 631 q 492 672 553 672 q 346 633 400 672 q 267 527 291 593 q 243 379 243 460 q 267 232 243 298 q 346 125 292 165 q 491 86 400 86 q 602 106 551 86 q 699 168 654 125 l 699 39 q 478 -20 602 -20 z "},"ć":{"ha":836,"x_min":111,"x_max":699,"o":"m 553 1135 l 687 1135 l 467 880 l 362 880 l 553 1135 m 483 -20 q 211 86 311 -20 q 111 379 111 193 q 137 549 111 476 q 211 673 163 623 q 484 778 311 778 q 593 764 545 778 q 699 720 643 750 l 699 589 q 600 652 647 634 q 487 672 548 672 q 306 596 369 672 q 243 380 243 519 q 257 259 243 315 q 306 163 272 203 q 489 86 370 86 q 551 92 523 86 q 603 106 579 97 q 655 133 633 118 q 699 168 677 149 l 699 39 q 648 14 675 25 q 595 -5 621 2 q 544 -16 572 -12 q 483 -20 515 -20 z "},"č":{"ha":836,"x_min":111,"x_max":699,"o":"m 241 1135 l 336 1135 l 458 968 l 581 1135 l 675 1135 l 508 880 l 408 880 l 241 1135 m 483 -20 q 211 86 311 -20 q 111 379 111 193 q 137 549 111 476 q 211 673 163 623 q 484 778 311 778 q 593 764 545 778 q 699 720 643 750 l 699 589 q 600 652 647 634 q 487 672 548 672 q 306 596 369 672 q 243 380 243 519 q 257 259 243 315 q 306 163 272 203 q 489 86 370 86 q 551 92 523 86 q 603 106 579 97 q 655 133 633 118 q 699 168 677 149 l 699 39 q 648 14 675 25 q 595 -5 621 2 q 544 -16 572 -12 q 483 -20 515 -20 z "},"ç":{"ha":836,"x_min":111,"x_max":699,"o":"m 487 672 q 306 596 369 672 q 243 380 243 519 q 257 259 243 315 q 306 163 272 203 q 489 86 370 86 q 551 92 523 86 q 603 106 579 97 q 655 133 633 118 q 699 168 677 149 l 699 39 q 648 14 675 25 q 595 -5 621 2 q 568 -12 582 -9 q 538 -16 554 -15 q 581 -78 565 -47 q 593 -111 588 -94 q 598 -149 598 -128 q 557 -237 598 -206 q 508 -260 538 -252 q 436 -268 478 -268 q 377 -264 407 -268 q 317 -252 346 -260 l 317 -163 q 420 -184 364 -184 q 504 -122 504 -184 q 489 -71 504 -100 q 476 -47 484 -60 q 457 -19 468 -34 q 210 86 301 -11 q 111 379 111 193 q 137 549 111 476 q 211 673 163 623 q 484 778 311 778 q 593 764 545 778 q 699 720 643 750 l 699 589 q 600 652 647 634 q 487 672 548 672 z "},"ċ":{"ha":836,"x_min":111,"x_max":699,"o":"m 398 914 q 378 935 378 914 l 378 1032 q 398 1053 378 1053 l 496 1053 q 517 1032 517 1053 l 517 935 q 496 914 517 914 l 398 914 m 486 -20 q 211 86 310 -20 q 111 379 111 192 q 211 672 111 566 q 486 778 310 778 q 593 764 541 778 q 699 720 646 750 l 699 589 q 599 652 649 633 q 486 672 549 672 q 306 596 368 672 q 243 379 243 521 q 306 162 243 238 q 486 86 369 86 q 699 168 612 86 l 699 39 q 486 -20 597 -20 z "},"d":{"ha":836,"x_min":83,"x_max":707,"o":"m 376 -20 q 237 16 293 -20 q 147 110 180 51 q 98 240 113 169 q 83 385 83 312 q 163 672 83 566 q 378 778 243 778 q 498 750 445 778 q 582 663 551 722 l 582 1055 l 707 1055 l 707 0 l 594 0 l 582 96 q 376 -20 515 -20 m 398 86 q 493 114 457 86 q 549 186 530 142 q 575 282 568 231 q 582 380 582 333 q 575 477 582 426 q 549 572 568 528 q 493 644 530 616 q 398 672 457 672 q 302 644 338 672 q 247 572 266 616 q 222 477 229 528 q 215 380 215 426 q 222 282 215 334 q 247 187 229 231 q 302 114 266 142 q 398 86 338 86 z "},"ð":{"ha":836,"x_min":93,"x_max":743,"o":"m 418 -20 q 178 81 264 -20 q 93 361 93 182 q 177 643 93 543 q 428 743 261 743 q 444 743 440 743 q 450 743 448 743 q 463 742 465 741 q 472 741 461 742 q 453 766 468 746 q 425 802 438 786 q 400 832 413 817 q 375 861 388 846 l 186 799 l 165 865 l 326 920 l 203 1055 l 351 1055 l 437 957 l 633 1021 l 656 954 l 486 900 q 682 627 620 757 q 728 497 713 562 q 743 358 743 431 q 659 81 743 182 q 555 5 615 29 q 418 -20 494 -20 m 418 86 q 561 158 511 86 q 611 360 611 232 q 591 507 611 438 q 538 623 571 575 q 511 631 526 627 q 486 636 496 635 q 433 640 458 640 q 278 569 330 640 q 225 362 225 498 q 275 158 225 231 q 418 86 325 86 z "},"ď":{"ha":836,"x_min":63,"x_max":890,"o":"m 755 1056 l 890 1056 l 813 801 l 709 801 l 755 1056 m 357 -20 q 142 87 221 -20 q 63 380 63 194 q 142 672 63 567 q 357 778 222 778 q 562 663 500 778 l 562 1055 l 686 1055 l 686 0 l 574 0 l 562 96 q 357 -20 498 -20 m 377 86 q 562 379 562 86 q 377 672 562 672 q 195 379 195 672 q 377 86 195 86 z "},"đ":{"ha":836,"x_min":83,"x_max":836,"o":"m 379 -20 q 253 9 307 -20 q 162 87 199 37 q 83 381 83 195 q 163 672 83 566 q 379 778 243 778 q 500 749 448 778 q 582 663 552 719 l 582 872 l 375 872 l 375 954 l 582 954 l 582 1055 l 707 1055 l 707 954 l 836 954 l 836 872 l 707 872 l 707 0 l 594 0 l 582 96 q 547 47 566 68 q 499 10 527 26 q 379 -20 447 -20 m 397 86 q 535 161 488 86 q 582 379 582 235 q 535 598 582 524 q 479 652 513 633 q 397 672 446 672 q 261 598 307 672 q 215 379 215 524 q 261 160 215 235 q 319 104 285 121 q 397 86 354 86 z "},"e":{"ha":836,"x_min":84,"x_max":755,"o":"m 460 -20 q 184 86 284 -20 q 84 374 84 191 q 124 578 84 487 q 242 724 163 670 q 435 778 320 778 q 671 681 587 778 q 755 411 755 583 l 755 350 l 214 350 l 214 346 q 277 157 214 227 q 461 86 339 86 q 598 109 532 86 q 726 163 664 131 l 726 39 q 595 -4 661 12 q 460 -20 529 -20 m 630 448 q 611 562 630 511 q 550 642 592 612 q 440 672 509 672 q 325 642 371 672 q 252 561 278 612 q 219 448 226 510 l 630 448 z "},"é":{"ha":836,"x_min":84,"x_max":755,"o":"m 523 1135 l 657 1135 l 437 880 l 332 880 l 523 1135 m 459 -20 q 184 86 283 -20 q 84 378 84 193 q 110 546 84 474 q 181 669 136 618 q 297 751 231 724 q 440 778 363 778 q 672 681 589 778 q 755 411 755 583 l 755 350 l 214 350 l 214 346 q 279 154 214 222 q 355 104 311 121 q 461 86 399 86 q 587 105 524 86 q 654 129 620 115 q 726 163 689 144 l 726 39 q 653 12 690 24 q 589 -5 616 1 q 524 -16 556 -13 q 459 -20 491 -20 m 630 448 q 615 548 629 506 q 578 615 601 589 q 437 672 530 672 q 288 612 346 672 q 219 447 231 553 l 630 448 z "},"ě":{"ha":836,"x_min":84,"x_max":755,"o":"m 226 1135 l 320 1135 l 442 968 l 565 1135 l 659 1135 l 492 880 l 393 880 l 226 1135 m 459 -20 q 183 87 283 -20 q 84 376 84 193 q 128 589 84 499 q 252 728 172 679 q 437 778 332 778 q 671 680 588 778 q 755 411 755 581 l 755 350 l 214 350 l 214 346 q 279 154 214 222 q 461 86 345 86 q 726 163 579 86 l 726 39 q 588 -5 654 9 q 459 -20 523 -20 m 630 448 q 579 613 628 554 q 439 672 531 672 q 289 613 347 672 q 219 447 231 555 l 630 448 z "},"ê":{"ha":836,"x_min":84,"x_max":755,"o":"m 378 1135 l 478 1135 l 645 880 l 551 880 l 428 1046 l 306 880 l 212 880 l 378 1135 m 459 -20 q 184 86 283 -20 q 84 378 84 193 q 110 546 84 474 q 181 669 136 618 q 297 751 231 724 q 440 778 363 778 q 672 681 589 778 q 755 411 755 583 l 755 350 l 214 350 l 214 346 q 279 154 214 222 q 355 104 311 121 q 461 86 399 86 q 587 105 524 86 q 654 129 620 115 q 726 163 689 144 l 726 39 q 653 12 690 24 q 589 -5 616 1 q 524 -16 556 -13 q 459 -20 491 -20 m 630 448 q 615 548 629 506 q 578 615 601 589 q 437 672 530 672 q 288 612 346 672 q 219 447 231 553 l 630 448 z "},"ë":{"ha":836,"x_min":84,"x_max":755,"o":"m 247 916 q 227 936 227 916 l 227 1032 q 247 1053 227 1053 l 344 1053 q 364 1032 364 1053 l 364 936 q 344 916 364 916 l 247 916 m 513 916 q 492 936 492 916 l 492 1032 q 513 1053 492 1053 l 609 1053 q 629 1032 629 1053 l 629 936 q 609 916 629 916 l 513 916 m 459 -20 q 184 86 283 -20 q 84 378 84 193 q 110 546 84 474 q 181 669 136 618 q 297 751 231 724 q 440 778 363 778 q 672 681 589 778 q 755 411 755 583 l 755 350 l 214 350 l 214 346 q 279 154 214 222 q 355 104 311 121 q 461 86 399 86 q 587 105 524 86 q 654 129 620 115 q 726 163 689 144 l 726 39 q 653 12 690 24 q 589 -5 616 1 q 524 -16 556 -13 q 459 -20 491 -20 m 630 448 q 615 548 629 506 q 578 615 601 589 q 437 672 530 672 q 288 612 346 672 q 219 447 231 553 l 630 448 z "},"ė":{"ha":836,"x_min":84,"x_max":755,"o":"m 378 914 q 358 935 358 914 l 358 1032 q 378 1053 358 1053 l 477 1053 q 497 1032 497 1053 l 497 935 q 477 914 497 914 l 378 914 m 459 -20 q 183 87 283 -20 q 84 376 84 193 q 128 589 84 499 q 252 728 172 679 q 437 778 332 778 q 671 680 588 778 q 755 411 755 581 l 755 350 l 214 350 l 214 346 q 279 154 214 222 q 461 86 345 86 q 726 163 579 86 l 726 39 q 588 -5 654 9 q 459 -20 523 -20 m 630 448 q 579 613 628 554 q 439 672 531 672 q 289 613 347 672 q 219 447 231 555 l 630 448 z "},"è":{"ha":836,"x_min":84,"x_max":755,"o":"m 199 1135 l 334 1135 l 524 880 l 420 880 l 199 1135 m 459 -20 q 184 86 283 -20 q 84 378 84 193 q 110 546 84 474 q 181 669 136 618 q 297 751 231 724 q 440 778 363 778 q 672 681 589 778 q 755 411 755 583 l 755 350 l 214 350 l 214 346 q 279 154 214 222 q 355 104 311 121 q 461 86 399 86 q 587 105 524 86 q 654 129 620 115 q 726 163 689 144 l 726 39 q 653 12 690 24 q 589 -5 616 1 q 524 -16 556 -13 q 459 -20 491 -20 m 630 448 q 615 548 629 506 q 578 615 601 589 q 437 672 530 672 q 288 612 346 672 q 219 447 231 553 l 630 448 z "},"ē":{"ha":836,"x_min":84,"x_max":755,"o":"m 239 1015 l 645 1015 l 645 914 l 239 914 l 239 1015 m 459 -20 q 183 87 283 -20 q 84 376 84 193 q 128 589 84 499 q 252 728 172 679 q 437 778 332 778 q 671 680 588 778 q 755 411 755 581 l 755 350 l 214 350 l 214 346 q 279 154 214 222 q 461 86 345 86 q 726 163 579 86 l 726 39 q 588 -5 654 9 q 459 -20 523 -20 m 630 448 q 579 613 628 554 q 439 672 531 672 q 289 613 347 672 q 219 447 231 555 l 630 448 z "},"Ĕ":{"ha":836,"x_min":134,"x_max":747,"o":"m 445 1098 q 233 1262 248 1098 l 313 1262 q 446 1187 330 1187 q 577 1262 557 1187 l 658 1262 q 445 1098 642 1098 m 134 1013 l 734 1013 l 734 897 l 271 897 l 271 597 l 714 597 l 714 482 l 271 482 l 271 115 l 747 115 l 747 0 l 134 0 l 134 1013 z "},"ĕ":{"ha":836,"x_min":84,"x_max":755,"o":"m 437 880 q 224 1075 240 880 l 305 1075 q 345 998 313 1023 q 437 973 376 973 q 527 998 496 973 q 569 1075 559 1023 l 650 1075 q 589 929 642 978 q 437 880 534 880 m 459 -20 q 184 86 283 -20 q 84 378 84 193 q 110 546 84 474 q 181 669 136 618 q 297 751 231 724 q 440 778 363 778 q 672 681 589 778 q 755 411 755 583 l 755 350 l 214 350 l 214 346 q 279 154 214 222 q 355 104 311 121 q 461 86 399 86 q 587 105 524 86 q 654 129 620 115 q 726 163 689 144 l 726 39 q 589 -5 656 10 q 524 -16 556 -13 q 459 -20 491 -20 m 630 448 q 615 548 629 506 q 578 615 601 589 q 437 672 530 672 q 288 612 346 672 q 219 447 231 553 l 630 448 z "},"ę":{"ha":836,"x_min":84,"x_max":755,"o":"m 214 350 l 214 346 q 279 154 214 222 q 461 86 345 86 q 726 163 579 86 l 726 39 q 665 16 694 26 q 606 -1 635 7 q 560 -73 574 -45 q 547 -125 547 -102 q 621 -184 547 -184 q 705 -164 663 -184 l 705 -254 q 655 -265 677 -262 q 608 -268 633 -268 q 492 -239 532 -268 q 452 -150 452 -210 q 465 -89 452 -120 q 511 -17 477 -57 q 459 -20 487 -20 q 183 87 283 -20 q 84 376 84 193 q 128 589 84 499 q 252 728 172 679 q 437 778 332 778 q 671 680 588 778 q 755 411 755 581 l 755 350 l 214 350 m 439 672 q 289 613 347 672 q 219 447 231 555 l 630 448 q 579 613 628 554 q 439 672 531 672 z "},"f":{"ha":836,"x_min":113,"x_max":702,"o":"m 316 663 l 113 663 l 113 760 l 316 760 l 316 812 q 373 996 316 937 q 552 1055 431 1055 l 702 1055 l 702 951 l 560 951 q 467 924 494 951 q 441 827 441 897 l 441 760 l 702 760 l 702 663 l 441 663 l 441 0 l 316 0 l 316 663 z "},"g":{"ha":836,"x_min":102,"x_max":726,"o":"m 406 -298 q 296 -288 351 -298 q 187 -261 241 -278 l 187 -138 q 296 -180 239 -162 q 413 -199 353 -199 q 527 -170 486 -199 q 584 -89 568 -140 q 601 31 601 -37 l 601 121 q 518 25 570 56 q 395 -5 466 -5 q 258 29 315 -5 q 168 121 202 64 q 118 248 134 178 q 102 387 102 317 q 118 525 102 456 q 168 651 134 594 q 259 743 203 709 q 397 778 316 778 q 517 749 466 778 q 601 659 568 721 l 613 757 l 726 757 l 726 49 q 650 -204 726 -111 q 406 -298 574 -298 m 420 98 q 555 172 509 98 q 601 387 601 246 q 594 482 601 433 q 569 575 587 532 q 514 645 550 618 q 420 672 478 672 q 282 600 330 672 q 234 389 234 528 q 283 173 234 248 q 420 98 332 98 z "},"ğ":{"ha":836,"x_min":102,"x_max":726,"o":"m 437 880 q 224 1075 240 880 l 305 1075 q 345 998 313 1023 q 437 973 376 973 q 527 998 496 973 q 569 1075 559 1023 l 650 1075 q 589 929 642 978 q 437 880 534 880 m 408 -298 q 355 -296 381 -298 q 300 -289 328 -294 q 187 -261 246 -280 l 187 -138 q 251 -165 220 -153 q 308 -184 282 -176 q 410 -199 359 -199 q 555 -143 508 -199 q 589 -74 577 -116 q 601 31 601 -33 l 601 121 q 519 26 571 57 q 395 -5 468 -5 q 182 101 261 -5 q 102 386 102 208 q 182 671 102 564 q 395 778 262 778 q 518 749 467 778 q 601 659 568 720 l 613 757 l 726 757 l 726 49 q 645 -210 726 -121 q 408 -298 565 -298 m 422 98 q 555 172 510 98 q 601 386 601 246 q 555 600 601 528 q 497 655 532 638 q 421 672 463 672 q 282 600 330 672 q 234 385 234 527 q 283 172 234 246 q 422 98 332 98 z "},"ǧ":{"ha":836,"x_min":102,"x_max":726,"o":"m 220 1135 l 315 1135 l 437 968 l 559 1135 l 654 1135 l 487 880 l 387 880 l 220 1135 m 408 -298 q 187 -261 303 -298 l 187 -138 q 309 -184 255 -170 q 412 -199 362 -199 q 555 -143 510 -199 q 601 31 601 -87 l 601 121 q 397 -5 543 -5 q 240 43 307 -5 q 138 179 174 91 q 102 387 102 267 q 138 594 102 506 q 240 730 174 682 q 397 778 307 778 q 601 659 540 778 l 613 757 l 726 757 l 726 49 q 408 -298 726 -298 m 420 98 q 555 172 510 98 q 601 386 601 245 q 420 672 601 672 q 282 600 330 672 q 234 387 234 528 q 282 172 234 245 q 420 98 331 98 z "},"ģ":{"ha":836,"x_min":102,"x_max":726,"o":"m 475 1114 l 574 1114 l 511 880 l 349 880 l 475 1114 m 408 -298 q 187 -261 303 -298 l 187 -138 q 309 -184 255 -170 q 412 -199 362 -199 q 555 -143 510 -199 q 601 31 601 -87 l 601 121 q 397 -5 543 -5 q 240 43 307 -5 q 138 179 174 91 q 102 387 102 267 q 138 594 102 506 q 240 730 174 682 q 397 778 307 778 q 601 659 540 778 l 613 757 l 726 757 l 726 49 q 408 -298 726 -298 m 420 98 q 555 172 510 98 q 601 386 601 245 q 420 672 601 672 q 282 600 330 672 q 234 387 234 528 q 282 172 234 245 q 420 98 331 98 z "},"ġ":{"ha":836,"x_min":102,"x_max":726,"o":"m 387 914 q 367 935 367 914 l 367 1032 q 387 1053 367 1053 l 486 1053 q 506 1032 506 1053 l 506 935 q 486 914 506 914 l 387 914 m 408 -298 q 187 -261 303 -298 l 187 -138 q 309 -184 255 -170 q 412 -199 362 -199 q 555 -143 510 -199 q 601 31 601 -87 l 601 121 q 397 -5 543 -5 q 240 43 307 -5 q 138 179 174 91 q 102 387 102 267 q 138 594 102 506 q 240 730 174 682 q 397 778 307 778 q 601 659 540 778 l 613 757 l 726 757 l 726 49 q 408 -298 726 -298 m 420 98 q 555 172 510 98 q 601 386 601 245 q 420 672 601 672 q 282 600 330 672 q 234 387 234 528 q 282 172 234 245 q 420 98 331 98 z "},"h":{"ha":836,"x_min":132,"x_max":713,"o":"m 132 1055 l 257 1055 l 257 646 q 481 778 326 778 q 625 734 575 778 q 694 621 675 691 q 713 471 713 551 l 713 0 l 587 0 l 587 471 q 551 621 587 573 q 439 669 515 669 q 329 634 369 669 q 273 545 290 600 q 257 429 257 490 l 257 0 l 132 0 l 132 1055 z "},"ħ":{"ha":836,"x_min":47,"x_max":713,"o":"m 132 861 l 47 861 l 47 972 l 132 972 l 132 1055 l 257 1055 l 257 972 l 496 972 l 496 861 l 257 861 l 257 646 q 482 778 323 778 q 713 471 713 778 l 713 0 l 587 0 l 587 471 q 552 621 587 573 q 439 669 516 669 q 304 608 351 669 q 257 429 257 546 l 257 0 l 132 0 l 132 861 z "},"i":{"ha":836,"x_min":182,"x_max":741,"o":"m 355 897 q 334 918 334 897 l 334 1035 q 355 1055 334 1055 l 452 1055 q 473 1035 473 1055 l 473 918 q 452 897 473 897 l 355 897 m 583 -5 q 409 67 471 -5 q 348 270 348 139 l 348 662 l 182 662 l 182 760 l 473 760 l 473 270 q 504 144 473 187 q 595 100 535 100 l 741 100 l 741 -5 l 583 -5 z "},"ı":{"ha":836,"x_min":182,"x_max":741,"o":"m 583 -5 q 485 12 528 -5 q 410 66 442 28 q 348 270 348 138 l 348 662 l 182 662 l 182 760 l 473 760 l 473 270 q 504 143 473 184 q 595 100 535 100 l 741 100 l 741 -5 l 583 -5 z "},"í":{"ha":836,"x_min":182,"x_max":741,"o":"m 538 1117 l 673 1117 l 452 862 l 348 862 l 538 1117 m 583 -5 q 485 12 528 -5 q 410 66 442 28 q 348 270 348 138 l 348 662 l 182 662 l 182 760 l 473 760 l 473 270 q 504 143 473 184 q 595 100 535 100 l 741 100 l 741 -5 l 583 -5 z "},"î":{"ha":836,"x_min":182,"x_max":741,"o":"m 349 1118 l 448 1118 l 615 863 l 521 863 l 398 1029 l 276 863 l 182 863 l 349 1118 m 583 -5 q 485 12 528 -5 q 410 66 442 28 q 348 270 348 138 l 348 662 l 182 662 l 182 760 l 473 760 l 473 270 q 504 143 473 184 q 595 100 535 100 l 741 100 l 741 -5 l 583 -5 z "},"ï":{"ha":836,"x_min":182,"x_max":741,"o":"m 222 916 q 202 936 202 916 l 202 1032 q 222 1053 202 1053 l 319 1053 q 340 1032 340 1053 l 340 936 q 319 916 340 916 l 222 916 m 488 916 q 468 936 468 916 l 468 1032 q 488 1053 468 1053 l 585 1053 q 605 1032 605 1053 l 605 936 q 585 916 605 916 l 488 916 m 583 -5 q 485 12 528 -5 q 410 66 442 28 q 348 270 348 138 l 348 662 l 182 662 l 182 760 l 473 760 l 473 270 q 504 143 473 184 q 595 100 535 100 l 741 100 l 741 -5 l 583 -5 z "},"ì":{"ha":836,"x_min":148,"x_max":741,"o":"m 148 1117 l 282 1117 l 473 862 l 368 862 l 148 1117 m 583 -5 q 485 12 528 -5 q 410 66 442 28 q 348 270 348 138 l 348 662 l 182 662 l 182 760 l 473 760 l 473 270 q 504 143 473 184 q 595 100 535 100 l 741 100 l 741 -5 l 583 -5 z "},"ī":{"ha":836,"x_min":182,"x_max":741,"o":"m 182 996 l 587 996 l 587 895 l 182 895 l 182 996 m 583 -5 q 485 12 528 -5 q 410 66 442 28 q 348 270 348 138 l 348 662 l 182 662 l 182 760 l 473 760 l 473 270 q 504 143 473 184 q 595 100 535 100 l 741 100 l 741 -5 l 583 -5 z "},"Ĭ":{"ha":836,"x_min":136,"x_max":699,"o":"m 417 1098 q 205 1262 220 1098 l 286 1262 q 418 1187 302 1187 q 549 1262 529 1187 l 630 1262 q 417 1098 614 1098 m 136 115 l 349 115 l 349 897 l 136 897 l 136 1013 l 699 1013 l 699 897 l 486 897 l 486 115 l 699 115 l 699 0 l 136 0 l 136 115 z "},"ĭ":{"ha":836,"x_min":182,"x_max":741,"o":"m 410 880 q 198 1075 214 880 l 279 1075 q 319 998 286 1023 q 410 973 350 973 q 500 998 469 973 q 543 1075 533 1023 l 623 1075 q 562 929 616 978 q 410 880 509 880 m 583 -5 q 485 12 528 -5 q 410 66 442 28 q 348 270 348 138 l 348 662 l 182 662 l 182 760 l 473 760 l 473 270 q 504 143 473 184 q 595 100 535 100 l 741 100 l 741 -5 l 583 -5 z "},"į":{"ha":836,"x_min":182,"x_max":743,"o":"m 357 897 q 334 918 334 897 l 334 1035 q 357 1055 334 1055 l 450 1055 q 473 1035 473 1055 l 473 918 q 450 897 473 897 l 357 897 m 659 -177 q 743 -157 701 -177 l 743 -247 q 693 -257 715 -254 q 646 -260 671 -260 q 530 -232 570 -260 q 490 -142 490 -203 q 504 -79 490 -111 q 553 -4 518 -47 q 410 66 463 4 q 348 270 348 138 l 348 662 l 182 662 l 182 760 l 473 760 l 473 270 q 504 143 473 184 q 595 100 535 100 l 741 100 l 741 -5 l 635 -5 q 596 -70 608 -44 q 585 -117 585 -96 q 659 -177 585 -177 z "},"ĩ":{"ha":836,"x_min":182,"x_max":741,"o":"m 182 854 q 216 994 182 943 q 314 1045 250 1045 q 408 1004 362 1045 l 447 966 q 474 945 463 951 q 494 940 485 940 q 531 965 519 940 q 544 1045 543 991 l 629 1045 q 594 905 629 956 q 496 854 560 854 q 402 895 448 854 l 363 932 q 316 959 336 959 q 279 934 292 959 q 266 854 267 909 l 182 854 m 583 -5 q 485 12 528 -5 q 410 66 442 28 q 348 270 348 138 l 348 662 l 182 662 l 182 760 l 473 760 l 473 270 q 504 143 473 184 q 595 100 535 100 l 741 100 l 741 -5 l 583 -5 z "},"j":{"ha":836,"x_min":161,"x_max":567,"o":"m 442 897 q 422 918 422 897 l 422 1035 q 442 1055 422 1055 l 540 1055 q 560 1035 560 1055 l 560 918 q 540 897 560 897 l 442 897 m 161 -183 l 320 -183 q 442 -14 442 -183 l 442 663 l 227 663 l 227 760 l 567 760 l 567 -14 q 506 -217 567 -145 q 334 -289 445 -289 l 161 -289 l 161 -183 z "},"k":{"ha":836,"x_min":153,"x_max":808,"o":"m 153 1055 l 282 1055 l 282 444 l 610 760 l 762 760 l 463 473 l 808 0 l 656 0 l 375 392 l 282 304 l 282 0 l 153 0 l 153 1055 z "},"ķ":{"ha":836,"x_min":153,"x_max":808,"o":"m 153 1055 l 282 1055 l 282 444 l 610 760 l 762 760 l 463 473 l 808 0 l 656 0 l 375 392 l 282 304 l 282 0 l 153 0 l 153 1055 m 425 -135 l 587 -135 l 460 -369 l 361 -369 l 425 -135 z "},"l":{"ha":836,"x_min":122,"x_max":715,"o":"m 557 -5 q 384 67 445 -5 q 322 270 322 139 l 322 958 l 122 958 l 122 1055 l 447 1055 l 447 270 q 478 144 447 187 q 569 100 509 100 l 715 100 l 715 -5 l 557 -5 z "},"ĺ":{"ha":836,"x_min":109,"x_max":701,"o":"m 391 1275 l 517 1275 l 362 1096 l 258 1096 l 391 1275 m 543 -5 q 370 66 431 -5 q 309 270 309 138 l 309 958 l 109 958 l 109 1055 l 433 1055 l 433 270 q 555 100 433 100 l 701 100 l 701 -5 l 543 -5 z "},"ľ":{"ha":836,"x_min":109,"x_max":785,"o":"m 543 -5 q 370 66 431 -5 q 309 270 309 138 l 309 958 l 109 958 l 109 1055 l 433 1055 l 433 270 q 555 100 433 100 l 701 100 l 701 -5 l 543 -5 m 650 1055 l 785 1055 l 708 800 l 604 800 l 650 1055 z "},"ļ":{"ha":836,"x_min":109,"x_max":701,"o":"m 543 -5 q 370 66 431 -5 q 309 270 309 138 l 309 958 l 109 958 l 109 1055 l 433 1055 l 433 270 q 555 100 433 100 l 701 100 l 701 -5 l 543 -5 m 337 -135 l 499 -135 l 372 -369 l 273 -369 l 337 -135 z "},"ł":{"ha":836,"x_min":52,"x_max":701,"o":"m 543 -5 q 446 12 489 -5 q 370 66 403 28 q 309 270 309 138 l 309 468 l 106 326 l 52 401 l 309 581 l 309 958 l 109 958 l 109 1055 l 433 1055 l 433 665 l 647 814 l 701 739 l 433 553 l 433 270 q 465 143 433 184 q 555 100 496 100 l 701 100 l 701 -5 l 543 -5 z "},"m":{"ha":836,"x_min":74,"x_max":770,"o":"m 74 760 l 176 760 l 187 694 q 323 778 233 778 q 458 682 420 778 q 604 778 505 778 q 732 709 696 778 q 770 440 770 637 l 770 0 l 656 0 l 656 435 q 651 567 656 520 q 637 636 647 614 q 570 673 621 673 q 499 633 519 673 q 483 564 488 609 q 478 435 478 518 l 478 0 l 364 0 l 364 435 q 359 565 364 517 q 345 635 355 613 q 276 673 326 673 q 208 633 226 673 q 192 563 197 610 q 187 435 187 516 l 187 0 l 74 0 l 74 760 z "},"n":{"ha":836,"x_min":132,"x_max":713,"o":"m 132 760 l 245 760 l 257 646 q 480 778 326 778 q 713 471 713 778 l 713 0 l 587 0 l 587 471 q 552 621 587 573 q 441 669 516 669 q 305 607 353 669 q 257 429 257 544 l 257 0 l 132 0 l 132 760 z "},"ń":{"ha":836,"x_min":132,"x_max":713,"o":"m 526 1135 l 661 1135 l 440 880 l 336 880 l 526 1135 m 132 760 l 245 760 l 257 646 q 482 778 323 778 q 713 471 713 778 l 713 0 l 587 0 l 587 471 q 552 621 587 573 q 439 669 516 669 q 304 608 351 669 q 257 429 257 546 l 257 0 l 132 0 l 132 760 z "},"ň":{"ha":836,"x_min":132,"x_max":713,"o":"m 193 1135 l 288 1135 l 410 968 l 532 1135 l 627 1135 l 460 880 l 360 880 l 193 1135 m 132 760 l 245 760 l 257 646 q 482 778 323 778 q 713 471 713 778 l 713 0 l 587 0 l 587 471 q 552 621 587 573 q 439 669 516 669 q 304 608 351 669 q 257 429 257 546 l 257 0 l 132 0 l 132 760 z "},"ņ":{"ha":836,"x_min":132,"x_max":713,"o":"m 132 760 l 245 760 l 257 646 q 482 778 323 778 q 713 471 713 778 l 713 0 l 587 0 l 587 471 q 552 621 587 573 q 439 669 516 669 q 304 608 351 669 q 257 429 257 546 l 257 0 l 132 0 l 132 760 m 373 -135 l 535 -135 l 408 -369 l 309 -369 l 373 -135 z "},"ŋ":{"ha":836,"x_min":132,"x_max":713,"o":"m 340 -183 l 466 -183 q 587 -14 587 -183 l 587 471 q 552 621 587 573 q 439 669 516 669 q 304 608 351 669 q 257 429 257 546 l 257 0 l 132 0 l 132 760 l 245 760 l 257 646 q 482 778 323 778 q 713 471 713 778 l 713 -14 q 652 -218 713 -146 q 479 -289 592 -289 l 340 -289 l 340 -183 z "},"ñ":{"ha":836,"x_min":132,"x_max":713,"o":"m 195 872 q 230 1013 195 962 q 326 1063 264 1063 q 374 1054 351 1063 q 421 1022 396 1044 l 460 985 q 486 965 475 972 q 506 958 496 958 q 544 983 532 958 q 557 1063 556 1009 l 642 1063 q 606 922 641 973 q 511 872 572 872 q 462 882 485 872 q 415 913 440 892 l 376 951 q 361 964 368 959 q 351 971 355 968 q 330 977 340 977 q 292 952 304 977 q 279 872 280 927 l 195 872 m 132 760 l 245 760 l 257 646 q 481 778 326 778 q 585 758 543 778 q 656 702 628 739 q 713 471 713 625 l 713 0 l 587 0 l 587 471 q 551 621 587 573 q 438 669 515 669 q 304 608 351 669 q 257 429 257 546 l 257 0 l 132 0 l 132 760 z "},"o":{"ha":836,"x_min":93,"x_max":743,"o":"m 419 -20 q 177 83 260 -20 q 93 378 93 186 q 177 675 93 572 q 418 778 261 778 q 660 675 576 778 q 743 378 743 572 q 660 82 743 184 q 419 -20 576 -20 m 418 86 q 561 162 511 86 q 611 380 611 238 q 561 596 611 521 q 418 672 511 672 q 275 596 325 672 q 225 380 225 521 q 275 162 225 238 q 418 86 326 86 z "},"ó":{"ha":836,"x_min":93,"x_max":743,"o":"m 513 1135 l 647 1135 l 427 880 l 322 880 l 513 1135 m 418 -20 q 176 82 260 -20 q 113 210 134 135 q 93 380 93 285 q 176 675 93 572 q 418 778 260 778 q 660 675 577 778 q 743 380 743 572 q 660 82 743 182 q 418 -20 578 -20 m 418 86 q 562 161 513 86 q 611 379 611 235 q 562 598 611 524 q 418 672 513 672 q 274 598 323 672 q 225 379 225 524 q 274 161 225 235 q 418 86 323 86 z "},"ô":{"ha":836,"x_min":93,"x_max":743,"o":"m 368 1135 l 468 1135 l 635 880 l 541 880 l 418 1046 l 296 880 l 201 880 l 368 1135 m 418 -20 q 176 82 260 -20 q 113 210 134 135 q 93 380 93 285 q 176 675 93 572 q 418 778 260 778 q 660 675 577 778 q 743 380 743 572 q 660 82 743 182 q 418 -20 578 -20 m 418 86 q 562 161 513 86 q 611 379 611 235 q 562 598 611 524 q 418 672 513 672 q 274 598 323 672 q 225 379 225 524 q 274 161 225 235 q 418 86 323 86 z "},"ö":{"ha":836,"x_min":93,"x_max":743,"o":"m 237 916 q 216 936 216 916 l 216 1032 q 237 1053 216 1053 l 334 1053 q 354 1032 354 1053 l 354 936 q 334 916 354 916 l 237 916 m 503 916 q 482 936 482 916 l 482 1032 q 503 1053 482 1053 l 599 1053 q 619 1032 619 1053 l 619 936 q 599 916 619 916 l 503 916 m 418 -20 q 176 82 260 -20 q 113 210 134 135 q 93 380 93 285 q 176 675 93 572 q 418 778 260 778 q 660 675 577 778 q 743 380 743 572 q 660 82 743 182 q 418 -20 578 -20 m 418 86 q 562 161 513 86 q 611 379 611 235 q 562 598 611 524 q 418 672 513 672 q 274 598 323 672 q 225 379 225 524 q 274 161 225 235 q 418 86 323 86 z "},"ò":{"ha":836,"x_min":93,"x_max":743,"o":"m 189 1135 l 323 1135 l 514 880 l 410 880 l 189 1135 m 418 -20 q 176 82 260 -20 q 113 210 134 135 q 93 380 93 285 q 176 675 93 572 q 418 778 260 778 q 660 675 577 778 q 743 380 743 572 q 660 82 743 182 q 418 -20 578 -20 m 418 86 q 562 161 513 86 q 611 379 611 235 q 562 598 611 524 q 418 672 513 672 q 274 598 323 672 q 225 379 225 524 q 274 161 225 235 q 418 86 323 86 z "},"ơ":{"ha":836,"x_min":22,"x_max":815,"o":"m 802 771 q 812 721 809 743 q 815 674 815 699 q 786 558 815 598 q 697 518 758 518 q 677 519 687 518 q 658 524 667 520 q 672 378 672 458 q 589 82 672 184 q 347 -20 505 -20 q 104 82 187 -20 q 22 378 22 183 q 105 675 22 572 q 347 778 189 778 q 621 625 541 778 q 672 612 649 612 q 732 687 732 612 q 711 771 732 730 l 802 771 m 347 86 q 540 379 540 86 q 347 672 540 672 q 154 379 154 672 q 347 86 154 86 z "},"ő":{"ha":836,"x_min":93,"x_max":743,"o":"m 363 1135 l 478 1135 l 326 880 l 233 880 l 363 1135 m 589 1135 l 710 1135 l 542 880 l 450 880 l 589 1135 m 418 -20 q 176 82 258 -20 q 93 378 93 183 q 176 675 93 572 q 418 778 260 778 q 660 675 576 778 q 743 378 743 572 q 660 82 743 184 q 418 -20 576 -20 m 418 86 q 611 379 611 86 q 418 672 611 672 q 225 379 225 672 q 418 86 225 86 z "},"ō":{"ha":836,"x_min":93,"x_max":743,"o":"m 215 1014 l 621 1014 l 621 913 l 215 913 l 215 1014 m 418 -20 q 176 82 258 -20 q 93 378 93 183 q 176 675 93 572 q 418 778 260 778 q 660 675 576 778 q 743 378 743 572 q 660 82 743 184 q 418 -20 576 -20 m 418 86 q 611 379 611 86 q 418 672 611 672 q 225 379 225 672 q 418 86 225 86 z "},"Ŏ":{"ha":836,"x_min":79,"x_max":757,"o":"m 418 1078 q 205 1242 222 1078 l 286 1242 q 419 1166 303 1166 q 550 1242 530 1166 l 631 1242 q 418 1078 615 1078 m 418 -20 q 163 110 246 -20 q 79 505 79 239 q 163 901 79 772 q 418 1031 248 1031 q 566 1000 501 1031 q 673 901 630 968 q 757 505 757 770 q 673 111 757 241 q 566 12 630 43 q 418 -20 501 -20 m 418 92 q 568 187 522 92 q 614 505 614 280 q 568 824 614 730 q 418 920 522 920 q 269 824 315 920 q 222 505 222 726 q 269 187 222 285 q 418 92 315 92 z "},"ŏ":{"ha":836,"x_min":93,"x_max":743,"o":"m 418 880 q 205 1075 220 880 l 286 1075 q 326 998 294 1023 q 418 973 357 973 q 508 998 477 973 q 550 1075 541 1023 l 631 1075 q 570 929 623 978 q 418 880 515 880 m 418 -20 q 176 82 260 -20 q 113 210 134 135 q 93 380 93 285 q 176 675 93 572 q 418 778 260 778 q 660 675 577 778 q 743 380 743 572 q 660 82 743 182 q 418 -20 578 -20 m 418 86 q 562 161 513 86 q 611 379 611 235 q 562 598 611 524 q 418 672 513 672 q 274 598 323 672 q 225 379 225 524 q 274 161 225 235 q 418 86 323 86 z "},"ø":{"ha":836,"x_min":32,"x_max":796,"o":"m 32 -14 l 147 122 q 123 178 132 151 q 107 237 114 205 q 93 379 93 301 q 176 675 93 572 q 417 778 260 778 q 482 773 450 778 q 539 760 513 769 q 588 736 564 751 q 633 703 612 722 l 733 822 l 796 770 l 685 637 q 728 528 713 592 q 743 380 743 463 q 660 82 743 182 q 417 -20 576 -20 q 350 -14 380 -20 q 295 1 321 -9 q 203 61 241 20 l 94 -65 l 32 -14 m 554 608 q 497 656 532 641 q 418 672 462 672 q 273 600 323 672 q 236 513 249 564 q 222 393 222 463 q 227 318 222 355 q 241 231 232 278 l 554 608 m 417 86 q 562 161 513 86 q 611 377 611 235 q 607 452 611 415 q 603 486 606 467 q 595 529 600 505 l 281 150 q 310 120 296 131 q 340 102 323 110 q 375 91 357 95 q 417 86 393 86 z "},"ǿ":{"ha":836,"x_min":32,"x_max":796,"o":"m 513 1135 l 647 1135 l 427 880 l 322 880 l 513 1135 m 32 -14 l 147 122 q 93 381 93 222 q 176 676 93 574 q 419 778 260 778 q 633 703 554 778 l 733 822 l 796 770 l 685 637 q 743 380 743 546 q 660 82 743 183 q 418 -20 577 -20 q 203 61 279 -20 l 94 -65 l 32 -14 m 554 608 q 495 657 530 642 q 420 672 461 672 q 273 600 324 672 q 222 396 222 528 q 227 318 222 357 q 241 231 232 279 l 554 608 m 417 86 q 562 160 513 86 q 611 374 611 235 q 607 452 611 415 q 595 529 603 490 l 281 150 q 417 86 330 86 z "},"õ":{"ha":836,"x_min":93,"x_max":743,"o":"m 195 872 q 230 1013 195 962 q 326 1063 264 1063 q 374 1054 351 1063 q 421 1022 396 1044 l 460 985 q 486 965 475 972 q 506 958 496 958 q 544 983 532 958 q 557 1063 556 1009 l 642 1063 q 606 922 641 973 q 511 872 572 872 q 462 882 485 872 q 415 913 440 892 l 376 951 q 361 964 368 959 q 351 971 355 968 q 330 977 340 977 q 292 952 304 977 q 279 872 280 927 l 195 872 m 418 -20 q 176 82 260 -20 q 113 210 134 135 q 93 380 93 285 q 176 675 93 572 q 418 778 260 778 q 660 675 577 778 q 743 380 743 572 q 660 82 743 182 q 418 -20 578 -20 m 418 86 q 562 161 513 86 q 611 379 611 235 q 562 598 611 524 q 418 672 513 672 q 274 598 323 672 q 225 379 225 524 q 274 161 225 235 q 418 86 323 86 z "},"œ":{"ha":836,"x_min":9,"x_max":821,"o":"m 250 -20 q 139 5 183 -20 q 68 74 96 29 q 9 378 9 168 q 24 566 9 493 q 67 684 39 638 q 253 778 125 778 q 357 757 315 778 q 432 692 400 735 q 606 778 483 778 q 772 698 723 778 q 821 410 821 617 l 821 349 l 488 349 l 488 292 q 522 132 488 182 q 632 83 555 83 q 682 88 657 83 q 730 102 707 92 q 806 154 774 119 l 806 37 q 763 11 785 22 q 724 -6 741 -1 q 629 -20 683 -20 q 432 71 497 -20 q 393 29 412 45 q 353 3 374 13 q 250 -20 311 -20 m 252 83 q 350 140 323 83 q 371 223 363 169 q 378 373 378 277 q 366 561 378 496 q 327 650 354 626 q 253 675 299 675 q 193 660 216 675 q 157 618 170 646 q 136 536 144 591 q 129 378 129 482 q 136 223 129 278 q 157 140 143 169 q 196 96 172 109 q 252 83 220 83 m 710 446 q 711 466 710 451 q 711 481 711 480 q 684 629 711 584 q 599 675 657 675 q 514 629 540 675 q 488 475 488 582 l 488 446 l 710 446 z "},"p":{"ha":836,"x_min":129,"x_max":751,"o":"m 129 760 l 242 760 l 254 663 q 458 778 319 778 q 673 671 595 778 q 751 380 751 565 q 672 87 751 195 q 458 -20 593 -20 q 254 96 316 -20 l 254 -289 l 129 -289 l 129 760 m 442 86 q 621 379 621 86 q 442 672 621 672 q 302 596 351 672 q 254 380 254 520 q 303 162 254 239 q 442 86 351 86 z "},"þ":{"ha":836,"x_min":129,"x_max":751,"o":"m 129 1063 l 254 1063 l 254 663 q 458 778 319 778 q 673 671 595 778 q 751 378 751 564 q 673 86 751 191 q 457 -20 594 -20 q 390 -12 418 -20 q 336 10 361 -4 q 254 96 284 41 l 254 -289 l 129 -289 l 129 1063 m 439 86 q 621 379 621 86 q 439 672 621 672 q 301 598 348 672 q 254 379 254 524 q 301 161 254 235 q 439 86 348 86 z "},"q":{"ha":836,"x_min":93,"x_max":715,"o":"m 590 94 q 383 -22 526 -22 q 246 13 302 -22 q 157 105 191 47 q 108 232 123 163 q 93 372 93 302 q 172 667 93 559 q 387 775 251 775 q 590 660 526 775 l 602 757 l 715 757 l 715 -292 l 590 -292 l 590 94 m 408 83 q 543 160 495 83 q 590 377 590 236 q 543 594 590 518 q 408 669 496 669 q 272 593 319 669 q 225 376 225 517 q 272 160 225 236 q 408 83 319 83 z "},"r":{"ha":836,"x_min":205,"x_max":743,"o":"m 205 760 l 318 760 l 330 611 q 426 735 362 692 q 580 778 490 778 q 743 730 673 778 l 743 603 q 569 663 669 663 q 392 589 454 663 q 330 378 330 515 l 330 0 l 205 0 l 205 760 z "},"ŕ":{"ha":836,"x_min":205,"x_max":743,"o":"m 557 1135 l 692 1135 l 471 880 l 367 880 l 557 1135 m 205 760 l 318 760 l 330 611 q 424 734 361 690 q 581 778 488 778 q 743 730 671 778 l 743 603 q 570 663 665 663 q 392 590 453 663 q 330 378 330 517 l 330 0 l 205 0 l 205 760 z "},"ř":{"ha":836,"x_min":205,"x_max":743,"o":"m 229 1135 l 323 1135 l 445 968 l 568 1135 l 662 1135 l 495 880 l 395 880 l 229 1135 m 205 760 l 318 760 l 330 611 q 424 734 361 690 q 581 778 488 778 q 743 730 671 778 l 743 603 q 570 663 665 663 q 392 590 453 663 q 330 378 330 517 l 330 0 l 205 0 l 205 760 z "},"ŗ":{"ha":836,"x_min":155,"x_max":743,"o":"m 205 760 l 318 760 l 330 611 q 424 734 361 690 q 581 778 488 778 q 743 730 671 778 l 743 603 q 570 663 665 663 q 392 590 453 663 q 330 378 330 517 l 330 0 l 205 0 l 205 760 m 218 -135 l 380 -135 l 254 -369 l 155 -369 l 218 -135 z "},"s":{"ha":836,"x_min":144,"x_max":699,"o":"m 399 -20 q 144 28 291 -20 l 144 157 q 398 85 287 85 q 525 118 477 85 q 572 207 572 151 q 533 284 572 255 q 406 332 493 314 l 354 343 q 197 415 247 365 q 147 551 147 465 q 222 719 147 660 q 434 778 296 778 q 660 733 551 778 l 660 611 q 437 673 553 673 q 273 562 273 673 q 288 504 273 525 q 342 468 302 482 q 460 437 382 453 l 510 428 q 699 222 699 391 q 618 45 699 110 q 399 -20 538 -20 z "},"ś":{"ha":836,"x_min":144,"x_max":699,"o":"m 530 1135 l 665 1135 l 444 880 l 340 880 l 530 1135 m 398 -20 q 278 -8 339 -20 q 144 28 216 4 l 144 157 q 399 85 283 85 q 527 119 481 85 q 572 207 572 153 q 534 283 572 253 q 406 332 496 313 l 401 334 l 354 343 q 195 415 243 365 q 147 549 147 466 q 220 719 147 660 q 433 778 294 778 q 660 733 551 778 l 660 611 q 552 658 605 642 q 437 673 498 673 q 273 562 273 673 q 304 486 273 511 q 361 461 322 473 q 460 437 400 449 l 510 428 q 699 220 699 392 q 618 44 699 107 q 398 -20 538 -20 z "},"š":{"ha":836,"x_min":144,"x_max":699,"o":"m 201 1135 l 296 1135 l 418 968 l 541 1135 l 635 1135 l 468 880 l 368 880 l 201 1135 m 400 -20 q 278 -8 338 -20 q 216 7 252 -3 q 144 28 180 16 l 144 157 q 218 123 188 135 q 278 103 249 111 q 338 90 309 94 q 399 85 368 85 q 527 119 481 85 q 562 160 551 136 q 572 208 572 184 q 532 285 572 256 q 406 332 492 315 l 401 334 l 354 343 q 263 370 303 353 q 197 414 224 387 q 147 551 147 464 q 221 719 147 661 q 313 764 260 750 q 433 778 367 778 q 549 767 494 778 q 603 753 575 762 q 660 733 631 745 l 660 611 q 552 658 606 643 q 439 673 497 673 q 315 646 357 673 q 273 562 273 618 q 282 518 277 536 q 303 487 287 500 q 356 462 320 473 q 460 437 393 450 l 510 428 q 651 357 606 409 q 699 219 699 306 q 678 118 699 161 q 618 44 657 75 q 522 -4 577 12 q 400 -20 467 -20 z "},"ş":{"ha":836,"x_min":144,"x_max":699,"o":"m 651 357 q 699 219 699 306 q 678 118 699 161 q 618 44 657 75 q 486 -12 564 1 q 512 -47 501 -30 q 531 -78 524 -64 q 544 -111 538 -94 q 549 -149 549 -128 q 508 -237 549 -206 q 458 -260 488 -252 q 387 -268 429 -268 q 328 -264 357 -268 q 268 -252 296 -260 l 268 -163 q 370 -184 315 -184 q 454 -122 454 -184 q 439 -71 454 -100 q 426 -47 434 -60 q 408 -20 418 -35 l 400 -20 q 278 -8 338 -20 q 216 7 252 -3 q 144 28 180 16 l 144 157 q 218 123 188 135 q 278 103 249 111 q 338 90 309 94 q 399 85 368 85 q 527 119 481 85 q 562 160 551 136 q 572 208 572 184 q 532 285 572 256 q 406 332 492 315 l 401 334 l 354 343 q 263 370 303 353 q 197 414 224 387 q 147 551 147 464 q 221 719 147 661 q 313 764 260 750 q 433 778 367 778 q 549 767 494 778 q 603 753 575 762 q 660 733 631 745 l 660 611 q 552 658 606 643 q 439 673 497 673 q 315 646 357 673 q 273 562 273 618 q 282 518 277 536 q 303 487 287 500 q 356 462 320 473 q 460 437 393 450 l 510 428 q 651 357 606 409 z "},"ș":{"ha":836,"x_min":144,"x_max":699,"o":"m 398 -20 q 278 -8 339 -20 q 144 28 216 4 l 144 157 q 399 85 283 85 q 527 119 481 85 q 572 207 572 153 q 534 283 572 253 q 406 332 496 313 l 401 334 l 354 343 q 195 415 243 365 q 147 549 147 466 q 220 719 147 660 q 433 778 294 778 q 660 733 551 778 l 660 611 q 552 658 605 642 q 437 673 498 673 q 273 562 273 673 q 304 486 273 511 q 361 461 322 473 q 460 437 400 449 l 510 428 q 699 220 699 392 q 618 44 699 107 q 398 -20 538 -20 m 340 -134 l 503 -134 l 376 -368 l 277 -368 l 340 -134 z "},"ß":{"ha":836,"x_min":127,"x_max":779,"o":"m 496 -20 q 402 -12 446 -20 q 361 -2 387 -8 q 311 14 336 4 l 311 125 q 408 94 360 104 q 494 83 453 83 q 610 116 567 83 q 643 157 633 134 q 653 210 653 180 q 630 284 653 252 q 587 328 613 308 q 528 367 561 347 l 482 393 q 427 433 450 412 q 389 477 404 455 q 366 523 374 500 q 358 577 358 547 q 372 654 358 618 q 413 720 385 691 q 574 802 467 778 q 532 913 572 874 q 414 951 490 951 q 293 907 332 951 q 254 768 254 863 l 254 0 l 127 0 l 127 771 q 199 985 127 916 q 414 1055 271 1055 q 626 981 555 1055 q 699 759 697 905 q 536 707 594 750 q 479 599 479 666 q 498 538 479 566 q 526 510 510 522 q 562 484 541 497 l 602 458 q 689 397 655 425 q 742 340 722 370 q 779 208 779 283 q 762 115 779 157 q 703 40 744 72 q 496 -20 627 -20 z "},"t":{"ha":836,"x_min":89,"x_max":700,"o":"m 547 -3 q 350 54 408 -3 q 292 248 292 111 l 292 663 l 89 663 l 89 760 l 292 760 l 292 958 l 416 1013 l 416 760 l 700 760 l 700 663 l 416 663 l 416 248 q 448 131 416 164 q 559 97 480 97 l 700 97 l 700 -3 l 547 -3 z "},"ŧ":{"ha":836,"x_min":89,"x_max":700,"o":"m 547 -3 q 349 54 407 -3 q 292 248 292 110 l 292 408 l 136 408 l 136 505 l 292 505 l 292 663 l 89 663 l 89 760 l 292 760 l 292 965 l 416 1013 l 416 760 l 700 760 l 700 663 l 416 663 l 416 505 l 572 505 l 572 408 l 416 408 l 416 248 q 448 130 416 163 q 559 97 480 97 l 700 97 l 700 -3 l 547 -3 z "},"ť":{"ha":836,"x_min":89,"x_max":700,"o":"m 556 1141 l 690 1141 l 614 886 l 509 886 l 556 1141 m 547 -3 q 349 54 408 -3 q 292 248 292 109 l 292 663 l 89 663 l 89 760 l 292 760 l 292 958 l 416 1013 l 416 760 l 700 760 l 700 663 l 416 663 l 416 248 q 448 130 416 164 q 559 97 479 97 l 700 97 l 700 -3 l 547 -3 z "},"ț":{"ha":836,"x_min":89,"x_max":700,"o":"m 416 663 l 416 248 q 448 130 416 164 q 559 97 479 97 l 700 97 l 700 -3 l 568 -3 q 616 -72 601 -41 q 631 -138 631 -104 q 468 -257 631 -257 q 350 -241 410 -257 l 350 -152 q 398 -169 371 -163 q 450 -174 425 -174 q 536 -113 536 -174 q 525 -66 536 -92 q 484 1 513 -41 q 349 54 393 11 q 292 248 292 109 l 292 663 l 89 663 l 89 760 l 292 760 l 292 958 l 416 1013 l 416 760 l 700 760 l 700 663 l 416 663 z "},"u":{"ha":836,"x_min":132,"x_max":713,"o":"m 363 -20 q 132 288 132 -20 l 132 758 l 257 758 l 257 288 q 406 89 257 89 q 540 152 492 89 q 587 329 587 214 l 587 758 l 713 758 l 713 0 l 600 0 l 587 114 q 363 -20 519 -20 z "},"ú":{"ha":836,"x_min":132,"x_max":713,"o":"m 513 1115 l 647 1115 l 427 860 l 322 860 l 513 1115 m 362 -20 q 189 57 246 -20 q 132 288 132 133 l 132 758 l 257 758 l 257 288 q 294 137 257 184 q 338 101 311 114 q 406 89 365 89 q 541 151 494 89 q 587 329 587 213 l 587 758 l 713 758 l 713 0 l 600 0 l 587 114 q 497 14 554 48 q 362 -20 439 -20 z "},"û":{"ha":836,"x_min":132,"x_max":713,"o":"m 368 1115 l 468 1115 l 635 860 l 541 860 l 418 1026 l 296 860 l 201 860 l 368 1115 m 362 -20 q 189 57 246 -20 q 132 288 132 133 l 132 758 l 257 758 l 257 288 q 294 137 257 184 q 338 101 311 114 q 406 89 365 89 q 541 151 494 89 q 587 329 587 213 l 587 758 l 713 758 l 713 0 l 600 0 l 587 114 q 497 14 554 48 q 362 -20 439 -20 z "},"ü":{"ha":836,"x_min":132,"x_max":713,"o":"m 237 916 q 216 936 216 916 l 216 1032 q 237 1053 216 1053 l 334 1053 q 354 1032 354 1053 l 354 936 q 334 916 354 916 l 237 916 m 503 916 q 482 936 482 916 l 482 1032 q 503 1053 482 1053 l 599 1053 q 619 1032 619 1053 l 619 936 q 599 916 619 916 l 503 916 m 362 -20 q 189 57 246 -20 q 132 288 132 133 l 132 758 l 257 758 l 257 288 q 294 137 257 184 q 338 101 311 114 q 406 89 365 89 q 541 151 494 89 q 587 329 587 213 l 587 758 l 713 758 l 713 0 l 600 0 l 587 114 q 497 14 554 48 q 362 -20 439 -20 z "},"ù":{"ha":836,"x_min":132,"x_max":713,"o":"m 189 1115 l 323 1115 l 514 860 l 410 860 l 189 1115 m 362 -20 q 189 57 246 -20 q 132 288 132 133 l 132 758 l 257 758 l 257 288 q 294 137 257 184 q 338 101 311 114 q 406 89 365 89 q 541 151 494 89 q 587 329 587 213 l 587 758 l 713 758 l 713 0 l 600 0 l 587 114 q 497 14 554 48 q 362 -20 439 -20 z "},"ư":{"ha":836,"x_min":26,"x_max":810,"o":"m 796 771 q 807 721 804 743 q 810 674 810 699 q 781 558 810 598 q 692 518 752 518 q 607 543 650 518 l 607 0 l 494 0 l 481 114 q 256 -20 414 -20 q 26 288 26 -20 l 26 758 l 151 758 l 151 288 q 188 137 151 185 q 300 89 224 89 q 435 151 389 89 q 481 329 481 212 l 481 758 l 607 758 l 607 630 q 667 612 642 612 q 726 687 726 612 q 706 771 726 730 l 796 771 z "},"ű":{"ha":836,"x_min":132,"x_max":713,"o":"m 363 1115 l 478 1115 l 326 860 l 233 860 l 363 1115 m 589 1115 l 710 1115 l 542 860 l 450 860 l 589 1115 m 362 -20 q 132 288 132 -20 l 132 758 l 257 758 l 257 288 q 293 137 257 185 q 406 89 330 89 q 541 151 494 89 q 587 329 587 212 l 587 758 l 713 758 l 713 0 l 600 0 l 587 114 q 362 -20 520 -20 z "},"ū":{"ha":836,"x_min":132,"x_max":713,"o":"m 215 994 l 621 994 l 621 894 l 215 894 l 215 994 m 362 -20 q 132 288 132 -20 l 132 758 l 257 758 l 257 288 q 293 137 257 185 q 406 89 330 89 q 541 151 494 89 q 587 329 587 212 l 587 758 l 713 758 l 713 0 l 600 0 l 587 114 q 362 -20 520 -20 z "},"ų":{"ha":836,"x_min":132,"x_max":814,"o":"m 730 -184 q 814 -164 772 -184 l 814 -254 q 764 -265 785 -262 q 717 -268 742 -268 q 601 -239 641 -268 q 561 -150 561 -210 q 577 -82 561 -117 q 634 0 593 -47 l 587 0 l 587 114 q 362 -20 520 -20 q 132 288 132 -20 l 132 758 l 257 758 l 257 288 q 293 137 257 185 q 406 89 330 89 q 541 151 494 89 q 587 329 587 212 l 587 758 l 713 758 l 713 0 l 715 0 q 669 -73 682 -44 q 655 -125 655 -102 q 730 -184 655 -184 z "},"ů":{"ha":836,"x_min":132,"x_max":713,"o":"m 429 817 q 334 842 376 817 q 267 909 292 867 q 242 1003 242 951 q 267 1097 242 1055 q 334 1164 292 1139 q 429 1189 376 1189 q 524 1164 481 1189 q 590 1097 566 1139 q 614 1003 614 1055 q 590 909 614 951 q 524 842 566 867 q 429 817 481 817 m 428 900 q 501 930 471 900 q 531 1003 531 960 q 501 1076 531 1046 q 428 1105 471 1105 q 355 1076 385 1105 q 326 1003 326 1046 q 355 929 326 959 q 428 900 385 900 m 362 -20 q 132 288 132 -20 l 132 758 l 257 758 l 257 288 q 293 137 257 185 q 406 89 330 89 q 541 151 494 89 q 587 329 587 212 l 587 758 l 713 758 l 713 0 l 600 0 l 587 114 q 362 -20 520 -20 z "},"ũ":{"ha":836,"x_min":132,"x_max":713,"o":"m 195 852 q 229 992 195 941 q 327 1044 263 1044 q 421 1002 375 1044 l 460 965 q 487 944 476 949 q 507 939 498 939 q 544 964 532 939 q 557 1044 556 989 l 642 1044 q 607 904 642 955 q 509 852 573 852 q 415 894 461 852 l 376 931 q 329 958 349 958 q 292 932 304 958 q 279 852 280 907 l 195 852 m 362 -20 q 132 288 132 -20 l 132 758 l 257 758 l 257 288 q 293 137 257 185 q 406 89 330 89 q 541 151 494 89 q 587 329 587 212 l 587 758 l 713 758 l 713 0 l 600 0 l 587 114 q 362 -20 520 -20 z "},"v":{"ha":836,"x_min":68,"x_max":768,"o":"m 68 760 l 197 760 l 418 122 l 639 760 l 768 760 l 498 0 l 338 0 l 68 760 z "},"w":{"ha":836,"x_min":0,"x_max":836,"o":"m 0 760 l 123 760 l 256 146 l 364 538 l 471 538 l 581 146 l 713 760 l 836 760 l 659 0 l 539 0 l 418 416 l 297 0 l 178 0 l 0 760 z "},"ẃ":{"ha":836,"x_min":0,"x_max":836,"o":"m 556 1117 l 690 1117 l 470 862 l 366 862 l 556 1117 m 0 760 l 123 760 l 256 146 l 364 538 l 471 538 l 581 146 l 713 760 l 836 760 l 659 0 l 539 0 l 418 416 l 297 0 l 178 0 l 0 760 z "},"ŵ":{"ha":836,"x_min":0,"x_max":836,"o":"m 368 1117 l 468 1117 l 635 862 l 541 862 l 418 1028 l 296 862 l 201 862 l 368 1117 m 0 760 l 123 760 l 256 146 l 364 538 l 471 538 l 581 146 l 713 760 l 836 760 l 659 0 l 539 0 l 418 416 l 297 0 l 178 0 l 0 760 z "},"ẅ":{"ha":836,"x_min":0,"x_max":836,"o":"m 237 895 q 216 916 216 895 l 216 1012 q 237 1032 216 1032 l 334 1032 q 354 1012 354 1032 l 354 916 q 334 895 354 895 l 237 895 m 503 895 q 482 916 482 895 l 482 1012 q 503 1032 482 1032 l 599 1032 q 619 1012 619 1032 l 619 916 q 599 895 619 895 l 503 895 m 0 760 l 123 760 l 256 146 l 364 538 l 471 538 l 581 146 l 713 760 l 836 760 l 659 0 l 539 0 l 418 416 l 297 0 l 178 0 l 0 760 z "},"ẁ":{"ha":836,"x_min":0,"x_max":836,"o":"m 146 1117 l 280 1117 l 471 862 l 366 862 l 146 1117 m 0 760 l 123 760 l 256 146 l 364 538 l 471 538 l 581 146 l 713 760 l 836 760 l 659 0 l 539 0 l 418 416 l 297 0 l 178 0 l 0 760 z "},"x":{"ha":836,"x_min":52,"x_max":785,"o":"m 350 396 l 78 760 l 216 760 l 418 485 l 618 760 l 758 760 l 486 396 l 785 0 l 640 0 l 418 304 l 196 0 l 52 0 l 350 396 z "},"y":{"ha":836,"x_min":71,"x_max":782,"o":"m 125 -184 l 199 -184 q 283 -153 254 -184 q 364 12 317 -119 l 71 760 l 203 760 l 428 165 l 650 760 l 782 760 l 582 244 q 541 138 558 183 q 532 116 535 124 q 525 96 529 109 q 511 57 520 84 l 503 35 q 453 -95 476 -39 q 413 -179 429 -151 q 225 -289 352 -289 l 125 -289 l 125 -184 z "},"ý":{"ha":836,"x_min":71,"x_max":782,"o":"m 513 1116 l 647 1116 l 427 861 l 322 861 l 513 1116 m 125 -184 l 199 -184 q 250 -175 229 -184 q 285 -153 271 -166 q 319 -99 300 -137 q 364 12 338 -61 l 71 760 l 203 760 l 428 165 l 650 760 l 782 760 l 582 244 q 537 130 552 168 q 516 73 523 92 q 503 35 509 54 q 447 -107 469 -60 q 411 -181 425 -155 q 372 -235 390 -218 q 335 -263 355 -252 q 282 -282 311 -276 q 225 -289 253 -289 l 125 -289 l 125 -184 z "},"ŷ":{"ha":836,"x_min":71,"x_max":782,"o":"m 376 1117 l 476 1117 l 643 862 l 549 862 l 426 1028 l 304 862 l 210 862 l 376 1117 m 125 -184 l 199 -184 q 250 -175 229 -184 q 285 -153 271 -166 q 318 -99 300 -137 q 364 12 337 -61 l 71 760 l 203 760 l 428 165 l 650 760 l 782 760 l 582 244 q 553 171 563 195 q 538 131 544 146 q 525 95 532 115 q 503 35 518 75 q 448 -107 467 -58 q 412 -183 428 -156 q 337 -261 382 -234 q 225 -289 293 -289 l 125 -289 l 125 -184 z "},"ÿ":{"ha":836,"x_min":71,"x_max":782,"o":"m 237 895 q 216 916 216 895 l 216 1012 q 237 1032 216 1032 l 334 1032 q 354 1012 354 1032 l 354 916 q 334 895 354 895 l 237 895 m 503 895 q 482 916 482 895 l 482 1012 q 503 1032 482 1032 l 599 1032 q 619 1012 619 1032 l 619 916 q 599 895 619 895 l 503 895 m 125 -184 l 199 -184 q 250 -175 229 -184 q 285 -153 271 -166 q 319 -99 300 -137 q 364 12 338 -61 l 71 760 l 203 760 l 428 165 l 650 760 l 782 760 l 582 244 q 553 169 563 194 q 538 133 543 144 q 531 113 534 121 q 522 88 528 104 q 503 35 515 71 q 458 -81 475 -38 q 430 -147 440 -124 q 412 -182 419 -170 q 379 -228 397 -208 q 334 -262 361 -248 q 225 -289 288 -289 l 125 -289 l 125 -184 z "},"ỳ":{"ha":836,"x_min":71,"x_max":782,"o":"m 154 1117 l 288 1117 l 479 862 l 374 862 l 154 1117 m 125 -184 l 199 -184 q 250 -175 229 -184 q 285 -153 271 -166 q 319 -99 300 -137 q 364 12 338 -61 l 71 760 l 203 760 l 428 165 l 650 760 l 782 760 l 582 244 q 550 161 561 190 q 534 119 538 133 q 526 97 529 106 q 518 76 523 89 q 503 35 513 63 q 456 -86 473 -43 q 429 -150 439 -129 q 412 -183 419 -171 q 336 -261 383 -234 q 225 -289 289 -289 l 125 -289 l 125 -184 z "},"z":{"ha":836,"x_min":138,"x_max":705,"o":"m 138 115 l 574 661 l 154 661 l 154 761 l 705 761 l 705 647 l 269 102 l 705 102 l 705 0 l 138 0 l 138 115 z "},"ź":{"ha":836,"x_min":138,"x_max":705,"o":"m 571 1118 l 705 1118 l 485 863 l 380 863 l 571 1118 m 138 115 l 574 661 l 154 661 l 154 761 l 705 761 l 705 647 l 269 102 l 705 102 l 705 0 l 138 0 l 138 115 z "},"ž":{"ha":836,"x_min":138,"x_max":705,"o":"m 201 1118 l 296 1118 l 418 952 l 541 1118 l 635 1118 l 468 863 l 368 863 l 201 1118 m 138 115 l 574 661 l 154 661 l 154 761 l 705 761 l 705 647 l 269 102 l 705 102 l 705 0 l 138 0 l 138 115 z "},"ſ":{"ha":836,"x_min":153,"x_max":769,"o":"m 383 663 l 153 663 l 153 760 l 383 760 l 383 812 q 441 996 383 939 q 619 1055 500 1055 l 769 1055 l 769 951 l 627 951 q 569 944 591 951 q 534 924 547 937 q 508 827 508 897 l 508 -183 l 383 -183 l 383 663 z "},"ż":{"ha":836,"x_min":138,"x_max":705,"o":"m 368 897 q 348 917 348 897 l 348 1015 q 368 1035 348 1035 l 467 1035 q 487 1015 487 1035 l 487 917 q 467 897 487 897 l 368 897 m 138 115 l 574 661 l 154 661 l 154 761 l 705 761 l 705 647 l 269 102 l 705 102 l 705 0 l 138 0 l 138 115 z "},"ª":{"ha":836,"x_min":183,"x_max":652,"o":"m 371 473 q 234 519 286 473 q 183 644 183 566 q 246 779 183 731 q 427 827 310 827 l 550 827 l 550 829 q 509 922 550 891 q 456 946 486 939 q 395 953 426 953 q 313 941 354 953 q 225 907 270 928 l 225 993 q 317 1021 271 1013 q 362 1028 340 1026 q 409 1031 383 1031 q 588 972 528 1031 q 647 790 647 916 l 647 486 l 559 486 l 550 562 q 473 496 516 518 q 371 473 430 473 m 391 554 q 506 603 461 554 q 550 729 550 651 l 550 749 l 464 749 q 324 726 366 749 q 282 650 282 702 q 290 609 282 625 q 312 581 298 592 q 391 554 342 554 m 199 401 l 652 401 l 652 318 l 199 318 l 199 401 z "},"º":{"ha":836,"x_min":165,"x_max":671,"o":"m 418 473 q 309 494 354 473 q 234 549 264 515 q 184 634 202 583 q 165 751 165 685 q 234 955 165 878 q 311 1010 266 990 q 418 1031 357 1031 q 525 1010 479 1031 q 603 954 571 990 q 671 751 671 878 q 603 549 671 625 q 525 494 571 514 q 418 473 479 473 m 418 553 q 526 606 487 553 q 555 667 545 630 q 566 753 566 703 q 527 899 566 846 q 482 938 509 924 q 418 951 455 951 q 310 899 349 951 q 271 751 271 846 q 310 604 271 656 q 418 553 349 553 m 187 401 l 646 401 l 646 318 l 187 318 l 187 401 z "},"А":{"ha":836,"x_min":25,"x_max":811,"o":"m 335 1013 l 501 1013 l 811 0 l 669 0 l 595 264 l 240 264 l 167 0 l 25 0 l 335 1013 m 562 374 l 418 892 l 273 374 l 562 374 z "},"Б":{"ha":836,"x_min":113,"x_max":771,"o":"m 113 1013 l 724 1013 l 724 900 l 250 900 l 250 595 l 410 595 q 735 455 667 585 q 763 374 754 419 q 771 284 771 328 q 683 71 771 141 q 412 0 595 0 l 113 0 l 113 1013 m 412 113 q 583 154 532 113 q 633 291 633 196 q 580 437 633 391 q 412 484 527 484 l 250 484 l 250 113 l 412 113 z "},"В":{"ha":836,"x_min":113,"x_max":771,"o":"m 113 1013 l 412 1013 q 652 945 568 1013 q 736 753 736 878 q 558 542 736 569 q 714 457 656 527 q 771 276 771 387 q 412 0 771 0 l 113 0 l 113 1013 m 410 595 q 552 632 507 595 q 597 753 597 670 q 554 866 597 831 q 410 900 511 900 l 250 900 l 250 595 l 410 595 m 412 113 q 583 154 532 113 q 633 291 633 196 q 580 437 633 391 q 412 484 527 484 l 250 484 l 250 113 l 412 113 z "},"Г":{"ha":836,"x_min":146,"x_max":772,"o":"m 146 1013 l 772 1013 l 772 897 l 283 897 l 283 0 l 146 0 l 146 1013 z "},"Ѓ":{"ha":836,"x_min":146,"x_max":772,"o":"m 505 1256 l 631 1256 l 475 1077 l 371 1077 l 505 1256 m 146 1013 l 772 1013 l 772 897 l 283 897 l 283 0 l 146 0 l 146 1013 z "},"Ґ":{"ha":836,"x_min":146,"x_max":772,"o":"m 146 1013 l 657 1013 l 659 1220 l 772 1220 l 772 897 l 283 897 l 283 0 l 146 0 l 146 1013 z "},"Д":{"ha":836,"x_min":22,"x_max":814,"o":"m 22 115 l 75 115 q 99 152 87 115 q 121 249 111 188 q 138 387 131 311 q 150 543 146 463 q 154 696 154 623 l 154 1013 l 732 1013 l 732 115 l 814 115 l 814 -218 l 699 -218 l 699 0 l 138 0 l 138 -218 l 22 -218 l 22 115 m 594 115 l 594 897 l 292 897 l 292 696 q 288 563 292 635 q 279 418 284 490 q 268 286 273 347 q 257 187 262 225 q 251 145 252 149 q 247 130 247 136 q 279 115 247 115 l 594 115 z "},"Е":{"ha":836,"x_min":134,"x_max":747,"o":"m 134 1013 l 734 1013 l 734 897 l 271 897 l 271 597 l 714 597 l 714 482 l 271 482 l 271 115 l 747 115 l 747 0 l 134 0 l 134 1013 z "},"Ѐ":{"ha":836,"x_min":134,"x_max":747,"o":"m 256 1256 l 380 1256 l 514 1077 l 410 1077 l 256 1256 m 134 1013 l 734 1013 l 734 897 l 271 897 l 271 597 l 714 597 l 714 482 l 271 482 l 271 115 l 747 115 l 747 0 l 134 0 l 134 1013 z "},"Ё":{"ha":836,"x_min":134,"x_max":747,"o":"m 275 1118 q 254 1139 254 1118 l 254 1236 q 275 1256 254 1256 l 372 1256 q 392 1236 392 1256 l 392 1139 q 372 1118 392 1118 l 275 1118 m 541 1118 q 520 1139 520 1118 l 520 1236 q 541 1256 520 1256 l 637 1256 q 657 1236 657 1256 l 657 1139 q 637 1118 657 1118 l 541 1118 m 134 1013 l 734 1013 l 734 897 l 271 897 l 271 597 l 714 597 l 714 482 l 271 482 l 271 115 l 747 115 l 747 0 l 134 0 l 134 1013 z "},"Ж":{"ha":836,"x_min":10,"x_max":826,"o":"m 216 604 l 22 1013 l 162 1013 l 355 609 l 355 1013 l 481 1013 l 481 609 l 674 1013 l 814 1013 l 620 604 l 826 0 l 692 0 l 542 441 l 481 315 l 481 0 l 355 0 l 355 315 l 294 441 l 144 0 l 10 0 l 216 604 z "},"З":{"ha":836,"x_min":93,"x_max":732,"o":"m 375 -20 q 93 31 236 -20 l 93 167 q 229 113 163 130 q 361 96 296 96 q 536 146 475 96 q 596 289 596 197 q 536 433 596 381 q 372 485 475 485 l 268 485 l 268 597 l 372 597 q 520 638 467 597 q 572 758 572 680 q 523 874 572 833 q 378 916 473 916 q 261 903 326 916 q 123 861 197 890 l 123 987 q 269 1020 205 1009 q 386 1031 333 1031 q 555 997 482 1031 q 668 903 627 964 q 708 761 708 842 q 526 542 708 589 q 679 448 627 515 q 732 278 732 381 q 638 60 732 139 q 375 -20 544 -20 z "},"И":{"ha":836,"x_min":94,"x_max":742,"o":"m 94 1013 l 227 1013 l 227 179 l 568 1013 l 742 1013 l 742 0 l 610 0 l 610 833 l 268 0 l 94 0 l 94 1013 z "},"Й":{"ha":836,"x_min":94,"x_max":742,"o":"m 418 1091 q 205 1255 221 1091 l 286 1255 q 418 1180 303 1180 q 550 1255 530 1180 l 631 1255 q 418 1091 615 1091 m 94 1013 l 227 1013 l 227 179 l 568 1013 l 742 1013 l 742 0 l 610 0 l 610 833 l 268 0 l 94 0 l 94 1013 z "},"Ѝ":{"ha":836,"x_min":94,"x_max":742,"o":"m 256 1255 l 380 1255 l 514 1076 l 410 1076 l 256 1255 m 94 1013 l 227 1013 l 227 179 l 568 1013 l 742 1013 l 742 0 l 610 0 l 610 833 l 268 0 l 94 0 l 94 1013 z "},"К":{"ha":836,"x_min":93,"x_max":831,"o":"m 93 1013 l 231 1013 l 231 562 l 659 1013 l 819 1013 l 425 599 l 831 0 l 665 0 l 335 507 l 231 396 l 231 0 l 93 0 l 93 1013 z "},"Ќ":{"ha":836,"x_min":93,"x_max":831,"o":"m 474 1255 l 600 1255 l 445 1076 l 340 1076 l 474 1255 m 93 1013 l 231 1013 l 231 562 l 659 1013 l 819 1013 l 425 599 l 831 0 l 665 0 l 335 507 l 231 396 l 231 0 l 93 0 l 93 1013 z "},"Л":{"ha":836,"x_min":9,"x_max":749,"o":"m 9 111 q 111 132 73 111 q 166 204 149 153 q 190 350 184 256 q 194 452 193 391 q 196 584 195 513 q 197 724 197 654 l 197 1013 l 749 1013 l 749 0 l 611 0 l 611 897 l 334 897 l 334 602 q 330 385 334 487 q 307 204 325 283 q 250 81 289 126 q 9 0 181 0 l 9 111 z "},"М":{"ha":836,"x_min":58,"x_max":777,"o":"m 58 1013 l 241 1013 l 416 497 l 593 1013 l 777 1013 l 777 0 l 650 0 l 650 895 l 469 361 l 366 361 l 184 895 l 184 0 l 58 0 l 58 1013 z "},"Н":{"ha":836,"x_min":93,"x_max":743,"o":"m 93 1013 l 231 1013 l 231 597 l 606 597 l 606 1013 l 743 1013 l 743 0 l 606 0 l 606 482 l 231 482 l 231 0 l 93 0 l 93 1013 z "},"О":{"ha":836,"x_min":79,"x_max":757,"o":"m 417 -20 q 163 110 247 -20 q 79 505 79 239 q 163 901 79 770 q 418 1031 247 1031 q 673 901 589 1031 q 757 505 757 770 q 417 -20 757 -20 m 418 92 q 568 187 522 92 q 614 505 614 280 q 568 824 614 730 q 418 920 522 920 q 269 824 315 920 q 222 505 222 726 q 269 187 222 285 q 418 92 315 92 z "},"П":{"ha":836,"x_min":93,"x_max":743,"o":"m 93 1013 l 743 1013 l 743 0 l 606 0 l 606 897 l 231 897 l 231 0 l 93 0 l 93 1013 z "},"Р":{"ha":836,"x_min":134,"x_max":774,"o":"m 134 1013 l 429 1013 q 774 709 774 1013 q 429 407 774 407 l 271 407 l 271 0 l 134 0 l 134 1013 m 429 519 q 578 569 525 519 q 631 710 631 619 q 578 850 631 801 q 429 900 526 900 l 271 900 l 271 519 l 429 519 z "},"С":{"ha":836,"x_min":94,"x_max":728,"o":"m 503 -20 q 332 14 408 -20 q 201 118 256 48 q 94 505 94 257 q 143 788 94 670 q 284 968 192 905 q 503 1031 376 1031 q 622 1018 569 1031 q 728 975 674 1005 l 728 835 q 620 898 678 876 q 503 920 561 920 q 304 817 370 920 q 237 505 237 713 q 504 92 237 92 q 621 113 562 92 q 728 176 678 135 l 728 36 q 621 -6 674 8 q 503 -20 566 -20 z "},"Т":{"ha":836,"x_min":32,"x_max":804,"o":"m 350 897 l 32 897 l 32 1013 l 804 1013 l 804 897 l 488 897 l 488 0 l 350 0 l 350 897 z "},"У":{"ha":836,"x_min":84,"x_max":795,"o":"m 138 117 l 212 117 q 298 149 268 117 q 352 232 328 180 q 360 253 357 243 q 372 282 364 262 l 84 1013 l 231 1013 l 442 450 l 651 1013 l 795 1013 l 516 288 q 474 188 496 235 q 429 106 452 140 q 353 29 398 58 q 239 0 309 0 l 138 0 l 138 117 z "},"Ў":{"ha":836,"x_min":84,"x_max":795,"o":"m 431 1091 q 219 1255 235 1091 l 300 1255 q 433 1180 317 1180 q 564 1255 543 1180 l 644 1255 q 431 1091 629 1091 m 138 117 l 212 117 q 298 149 268 117 q 352 232 328 180 q 360 253 357 243 q 372 282 364 262 l 84 1013 l 231 1013 l 442 450 l 651 1013 l 795 1013 l 516 288 q 474 188 496 235 q 429 106 452 140 q 353 29 398 58 q 239 0 309 0 l 138 0 l 138 117 z "},"Ф":{"ha":836,"x_min":45,"x_max":791,"o":"m 349 103 q 166 165 232 109 q 72 314 100 221 q 45 524 45 408 q 72 729 45 639 q 165 873 99 819 q 349 930 232 926 l 349 1013 l 487 1013 l 487 930 q 675 870 609 925 q 766 723 741 815 q 791 517 791 631 q 765 304 791 396 q 671 160 738 213 q 487 103 605 107 l 487 0 l 349 0 l 349 103 m 349 819 q 240 770 274 807 q 197 669 206 732 q 188 516 188 606 q 197 363 188 426 q 240 263 206 300 q 349 214 274 227 l 349 819 m 487 214 q 595 263 562 227 q 639 363 629 300 q 648 516 648 426 q 639 669 648 606 q 595 770 629 732 q 487 819 562 807 l 487 214 z "},"Х":{"ha":836,"x_min":12,"x_max":823,"o":"m 351 536 l 58 1013 l 205 1013 l 428 631 l 654 1013 l 802 1013 l 498 536 l 823 0 l 676 0 l 428 436 l 160 0 l 12 0 l 351 536 z "},"Ч":{"ha":836,"x_min":93,"x_max":741,"o":"m 603 446 q 481 401 532 411 q 369 391 430 391 q 263 400 313 391 q 175 436 213 409 q 115 518 136 463 q 93 665 93 572 l 93 1013 l 231 1013 l 231 682 q 248 571 231 606 q 303 527 266 536 q 398 517 340 517 q 471 522 439 517 q 533 540 503 526 q 603 584 564 554 l 603 1013 l 741 1013 l 741 0 l 603 0 l 603 446 z "},"Ц":{"ha":836,"x_min":68,"x_max":809,"o":"m 694 0 l 68 0 l 68 1013 l 205 1013 l 205 115 l 581 115 l 581 1013 l 718 1013 l 718 115 l 809 115 l 809 -218 l 694 -218 l 694 0 z "},"Ш":{"ha":836,"x_min":77,"x_max":760,"o":"m 77 1013 l 203 1013 l 203 115 l 355 115 l 355 1013 l 481 1013 l 481 115 l 633 115 l 633 1013 l 760 1013 l 760 0 l 77 0 l 77 1013 z "},"Щ":{"ha":836,"x_min":63,"x_max":836,"o":"m 721 0 l 63 0 l 63 1013 l 189 1013 l 189 115 l 341 115 l 341 1013 l 467 1013 l 467 115 l 619 115 l 619 1013 l 745 1013 l 745 115 l 836 115 l 836 -218 l 721 -218 l 721 0 z "},"Џ":{"ha":836,"x_min":93,"x_max":743,"o":"m 360 0 l 93 0 l 93 1013 l 231 1013 l 231 115 l 606 115 l 606 1013 l 743 1013 l 743 0 l 476 0 l 476 -218 l 360 -218 l 360 0 z "},"Я":{"ha":836,"x_min":31,"x_max":748,"o":"m 281 452 q 188 501 233 469 q 116 586 144 533 q 87 722 87 640 q 176 937 87 861 q 432 1013 264 1013 l 748 1013 l 748 0 l 610 0 l 610 428 l 414 428 l 176 0 l 31 0 l 281 452 m 610 541 l 610 900 l 432 900 q 283 854 334 900 q 232 716 232 808 q 427 541 232 541 l 610 541 z "},"Ь":{"ha":836,"x_min":134,"x_max":774,"o":"m 134 1013 l 271 1013 l 271 606 l 429 606 q 774 303 774 606 q 429 0 774 0 l 134 0 l 134 1013 m 429 113 q 578 162 526 113 q 631 302 631 212 q 578 443 631 393 q 429 493 525 493 l 271 493 l 271 113 l 429 113 z "},"Ъ":{"ha":836,"x_min":35,"x_max":787,"o":"m 212 897 l 35 897 l 35 1013 l 349 1013 l 349 606 l 443 606 q 787 303 787 606 q 443 0 787 0 l 212 0 l 212 897 m 443 113 q 592 162 539 113 q 644 302 644 212 q 591 443 644 393 q 443 493 538 493 l 349 493 l 349 113 l 443 113 z "},"Ы":{"ha":836,"x_min":44,"x_max":769,"o":"m 44 1013 l 181 1013 l 181 606 l 243 606 q 400 571 331 606 q 509 470 469 537 q 549 303 549 403 q 508 136 549 203 q 399 34 468 68 q 243 0 330 0 l 44 0 l 44 1013 m 631 1013 l 769 1013 l 769 0 l 631 0 l 631 1013 m 243 113 q 359 157 312 113 q 406 302 406 201 q 365 443 406 393 q 243 493 324 493 l 181 493 l 181 113 l 243 113 z "},"Љ":{"ha":836,"x_min":0,"x_max":836,"o":"m 0 111 q 100 132 64 111 q 152 204 136 153 q 174 350 169 256 q 178 452 177 391 q 180 584 180 513 q 181 724 181 654 l 181 1013 l 550 1013 l 550 606 l 564 606 q 692 571 629 606 q 795 470 754 537 q 836 303 836 403 q 795 136 836 203 q 692 34 754 68 q 564 0 629 0 l 424 0 l 424 897 l 307 897 l 307 619 q 294 291 307 430 q 222 81 281 152 q 0 0 156 0 l 0 111 m 564 113 q 668 161 625 113 q 710 301 710 209 q 669 443 710 392 q 564 493 628 493 l 550 493 l 550 113 l 564 113 z "},"Њ":{"ha":836,"x_min":30,"x_max":836,"o":"m 30 1013 l 156 1013 l 156 597 l 424 597 l 424 1013 l 550 1013 l 550 606 l 564 606 q 761 533 686 606 q 836 316 836 460 q 795 136 836 206 q 692 33 754 66 q 564 0 629 0 l 424 0 l 424 482 l 156 482 l 156 0 l 30 0 l 30 1013 m 564 113 q 668 160 625 113 q 710 301 710 208 q 670 442 710 391 q 564 493 629 493 l 550 493 l 550 113 l 564 113 z "},"Ѕ":{"ha":836,"x_min":94,"x_max":745,"o":"m 397 -20 q 252 -4 323 -20 q 107 41 180 11 l 107 187 q 395 92 258 92 q 556 137 499 92 q 614 275 614 183 q 575 382 614 343 q 436 446 536 422 l 363 463 q 157 560 220 495 q 94 730 94 625 q 136 889 94 822 q 252 994 177 957 q 428 1031 327 1031 q 686 978 544 1031 l 686 839 q 434 920 561 920 q 281 875 338 920 q 225 747 225 830 q 263 650 225 686 q 400 591 301 613 l 472 575 q 680 470 616 543 q 745 279 745 397 q 655 57 745 133 q 397 -20 566 -20 z "},"Є":{"ha":836,"x_min":87,"x_max":721,"o":"m 497 -20 q 195 118 302 -20 q 87 504 87 256 q 196 892 87 753 q 497 1031 304 1031 q 721 975 616 1031 l 721 835 q 491 920 618 920 q 352 879 404 920 q 272 759 299 838 q 234 564 245 680 l 659 564 l 659 448 l 231 448 q 261 265 232 346 q 349 138 290 184 q 496 92 407 92 q 613 113 555 92 q 721 176 671 134 l 721 36 q 497 -20 616 -20 z "},"Э":{"ha":836,"x_min":115,"x_max":748,"o":"m 338 -20 q 115 36 219 -20 l 115 176 q 224 113 165 134 q 340 92 282 92 q 486 137 428 92 q 573 263 544 182 q 605 448 602 343 l 176 448 l 176 564 l 602 564 q 560 767 588 688 q 481 883 532 846 q 346 920 430 920 q 115 835 216 920 l 115 975 q 338 1031 219 1031 q 640 892 532 1031 q 748 504 748 753 q 641 118 748 256 q 338 -20 533 -20 z "},"І":{"ha":836,"x_min":136,"x_max":699,"o":"m 136 115 l 349 115 l 349 897 l 136 897 l 136 1013 l 699 1013 l 699 897 l 486 897 l 486 115 l 699 115 l 699 0 l 136 0 l 136 115 z "},"Ї":{"ha":836,"x_min":136,"x_max":699,"o":"m 237 1118 q 216 1139 216 1118 l 216 1236 q 237 1256 216 1256 l 334 1256 q 354 1236 354 1256 l 354 1139 q 334 1118 354 1118 l 237 1118 m 503 1118 q 482 1139 482 1118 l 482 1236 q 503 1256 482 1256 l 599 1256 q 619 1236 619 1256 l 619 1139 q 599 1118 619 1118 l 503 1118 m 136 115 l 349 115 l 349 897 l 136 897 l 136 1013 l 699 1013 l 699 897 l 486 897 l 486 115 l 699 115 l 699 0 l 136 0 l 136 115 z "},"Ј":{"ha":836,"x_min":74,"x_max":648,"o":"m 343 -20 q 212 -6 275 -20 q 74 41 149 8 l 74 201 q 201 119 136 146 q 342 92 266 92 q 441 113 404 92 q 495 187 479 135 q 511 330 511 239 l 511 897 l 253 897 l 253 1013 l 648 1013 l 648 330 q 577 61 648 142 q 343 -20 507 -20 z "},"Ћ":{"ha":836,"x_min":-24,"x_max":770,"o":"m 122 899 l -24 899 l -24 1014 l 562 1014 l 562 899 l 260 899 l 260 543 q 287 569 275 559 q 317 587 300 578 q 331 594 327 593 q 350 605 336 595 q 494 637 392 630 q 510 638 503 637 q 527 638 517 638 q 695 581 637 638 q 706 570 701 576 q 712 562 711 564 q 770 331 770 486 l 770 0 l 632 0 l 632 313 q 595 465 632 418 q 479 512 559 512 q 414 505 445 512 q 353 484 382 497 q 327 469 337 476 q 307 450 316 462 q 272 376 284 423 q 260 272 260 329 l 260 0 l 122 0 l 122 899 z "},"Ю":{"ha":836,"x_min":54,"x_max":809,"o":"m 537 -20 q 338 101 401 -20 q 267 452 274 222 l 192 452 l 192 0 l 54 0 l 54 1013 l 192 1013 l 192 567 l 267 567 q 337 908 274 786 q 538 1031 401 1031 q 809 505 809 1031 q 742 110 809 240 q 537 -20 674 -20 m 538 92 q 642 187 610 92 q 667 312 659 235 q 675 505 675 389 q 667 699 675 621 q 642 824 659 776 q 602 895 627 871 q 538 920 576 920 q 433 824 465 920 q 401 505 401 728 q 433 187 401 283 q 538 92 465 92 z "},"Ђ":{"ha":836,"x_min":-31,"x_max":770,"o":"m 446 -319 q 414 -318 431 -319 q 391 -317 396 -317 l 389 -195 l 441 -206 q 451 -207 446 -207 q 466 -208 456 -208 q 563 -186 527 -208 q 616 -112 600 -164 q 632 31 632 -60 l 632 313 q 595 465 632 418 q 479 512 559 512 q 414 505 445 512 q 353 484 382 497 q 327 469 337 476 q 307 450 316 462 q 272 376 284 423 q 260 272 260 329 l 260 0 l 122 0 l 122 899 l -31 899 l -31 1014 l 562 1014 l 562 899 l 260 899 l 260 543 q 287 569 275 559 q 317 587 300 578 q 331 594 327 593 q 350 605 336 595 q 494 637 392 630 q 510 638 503 637 q 527 638 517 638 q 695 581 637 638 q 706 570 701 576 q 712 562 711 564 q 770 331 770 486 l 770 31 q 738 -174 770 -98 q 635 -285 707 -251 q 446 -319 564 -319 z "},"Ѣ":{"ha":836,"x_min":22,"x_max":774,"o":"m 199 749 l 22 749 l 22 861 l 199 861 l 199 1013 l 336 1013 l 336 861 l 586 861 l 586 749 l 336 749 l 336 606 l 429 606 q 774 303 774 606 q 429 0 774 0 l 199 0 l 199 749 m 429 113 q 578 162 526 113 q 631 302 631 212 q 578 443 631 393 q 429 493 525 493 l 336 493 l 336 113 l 429 113 z "},"Ѳ":{"ha":836,"x_min":79,"x_max":757,"o":"m 417 -20 q 163 110 247 -20 q 79 505 79 239 q 163 901 79 770 q 418 1031 247 1031 q 673 901 589 1031 q 757 505 757 770 q 417 -20 757 -20 m 613 562 q 565 830 608 741 q 418 920 522 920 q 271 830 314 920 q 223 562 229 741 l 613 562 m 418 92 q 563 178 521 92 q 612 437 606 264 l 224 437 q 271 181 229 271 q 418 92 313 92 z "},"Ғ":{"ha":836,"x_min":64,"x_max":779,"o":"m 153 563 l 64 563 l 64 678 l 153 678 l 153 1013 l 779 1013 l 779 897 l 290 897 l 290 678 l 661 678 l 661 563 l 290 563 l 290 0 l 153 0 l 153 563 z "},"Ҕ":{"ha":836,"x_min":119,"x_max":745,"o":"m 399 -163 l 441 -163 q 570 -112 532 -163 q 608 71 608 -61 l 608 267 q 439 482 608 482 l 256 482 l 256 0 l 119 0 l 119 1013 l 745 1013 l 745 897 l 256 897 l 256 597 l 467 597 q 670 517 595 597 q 745 278 745 437 l 745 71 q 675 -195 745 -111 q 451 -278 606 -278 l 399 -278 l 399 -163 z "},"Җ":{"ha":836,"x_min":10,"x_max":826,"o":"m 711 0 l 692 0 l 542 441 l 481 315 l 481 0 l 355 0 l 355 315 l 294 441 l 144 0 l 10 0 l 216 604 l 22 1013 l 162 1013 l 355 609 l 355 1013 l 481 1013 l 481 609 l 674 1013 l 814 1013 l 620 604 l 787 115 l 826 115 l 826 -218 l 711 -218 l 711 0 z "},"Ҙ":{"ha":836,"x_min":93,"x_max":732,"o":"m 732 278 q 655 76 732 153 q 439 -16 579 -1 q 485 -84 470 -53 q 499 -149 499 -115 q 336 -268 499 -268 q 218 -252 278 -268 l 218 -163 q 266 -179 239 -174 q 318 -184 293 -184 q 405 -123 405 -184 q 395 -81 405 -104 q 359 -20 385 -57 q 93 31 228 -16 l 93 167 q 229 113 163 130 q 361 96 296 96 q 536 146 475 96 q 596 289 596 197 q 536 433 596 381 q 372 485 475 485 l 268 485 l 268 597 l 372 597 q 520 638 467 597 q 572 758 572 680 q 523 874 572 833 q 378 916 473 916 q 261 903 326 916 q 123 861 197 890 l 123 987 q 269 1020 205 1009 q 386 1031 333 1031 q 555 997 482 1031 q 668 903 627 964 q 708 761 708 842 q 526 542 708 589 q 679 448 627 515 q 732 278 732 381 z "},"Қ":{"ha":836,"x_min":93,"x_max":830,"o":"m 686 0 l 665 0 l 335 507 l 231 396 l 231 0 l 93 0 l 93 1013 l 231 1013 l 231 562 l 659 1013 l 819 1013 l 425 599 l 753 115 l 830 115 l 830 -218 l 686 -218 l 686 0 z "},"Ң":{"ha":836,"x_min":41,"x_max":836,"o":"m 692 0 l 554 0 l 554 482 l 179 482 l 179 0 l 41 0 l 41 1013 l 179 1013 l 179 597 l 554 597 l 554 1013 l 692 1013 l 692 115 l 836 115 l 836 -218 l 692 -218 l 692 0 z "},"Ҫ":{"ha":836,"x_min":94,"x_max":728,"o":"m 502 920 q 237 505 237 920 q 502 92 237 92 q 728 176 626 92 l 728 36 q 557 -17 646 -7 q 602 -84 588 -54 q 616 -149 616 -115 q 454 -268 616 -268 q 336 -252 396 -268 l 336 -163 q 384 -179 357 -174 q 435 -184 410 -184 q 522 -123 522 -184 q 512 -80 522 -104 q 476 -19 502 -56 q 194 127 294 -9 q 94 504 94 264 q 202 892 94 753 q 505 1031 310 1031 q 728 975 625 1031 l 728 835 q 622 898 678 876 q 502 920 565 920 z "},"Ҭ":{"ha":836,"x_min":32,"x_max":804,"o":"m 488 0 l 350 0 l 350 897 l 32 897 l 32 1013 l 804 1013 l 804 897 l 488 897 l 488 115 l 632 115 l 632 -218 l 488 -218 l 488 0 z "},"Ү":{"ha":836,"x_min":25,"x_max":811,"o":"m 349 454 l 25 1013 l 171 1013 l 418 566 l 664 1013 l 811 1013 l 486 454 l 486 0 l 349 0 l 349 454 z "},"Ұ":{"ha":836,"x_min":25,"x_max":811,"o":"m 349 285 l 170 285 l 170 400 l 349 400 l 349 454 l 25 1013 l 171 1013 l 418 566 l 664 1013 l 811 1013 l 486 454 l 486 400 l 667 400 l 667 285 l 486 285 l 486 0 l 349 0 l 349 285 z "},"Ҳ":{"ha":836,"x_min":12,"x_max":823,"o":"m 680 0 l 676 0 l 428 436 l 160 0 l 12 0 l 351 536 l 58 1013 l 205 1013 l 428 631 l 654 1013 l 802 1013 l 498 536 l 754 115 l 823 115 l 823 -218 l 680 -218 l 680 0 z "},"Һ":{"ha":836,"x_min":109,"x_max":756,"o":"m 109 1014 l 246 1014 l 246 551 q 304 595 270 576 l 336 613 q 403 635 362 627 q 481 645 444 644 l 513 646 q 612 631 571 646 q 682 589 654 616 q 692 578 688 584 q 699 570 697 572 q 756 339 756 494 l 756 0 l 618 0 l 618 321 q 582 473 618 426 q 465 520 545 520 q 400 513 431 520 q 339 492 369 505 q 313 477 323 484 q 293 458 302 470 q 258 384 271 431 q 246 280 246 337 l 246 0 l 109 0 l 109 1014 z "},"Ӏ":{"ha":836,"x_min":136,"x_max":699,"o":"m 136 115 l 349 115 l 349 897 l 136 897 l 136 1013 l 699 1013 l 699 897 l 486 897 l 486 115 l 699 115 l 699 0 l 136 0 l 136 115 z "},"Ӂ":{"ha":836,"x_min":10,"x_max":826,"o":"m 418 1091 q 205 1255 221 1091 l 286 1255 q 418 1180 303 1180 q 550 1255 530 1180 l 631 1255 q 418 1091 615 1091 m 216 604 l 22 1013 l 162 1013 l 355 609 l 355 1013 l 481 1013 l 481 609 l 674 1013 l 814 1013 l 620 604 l 826 0 l 692 0 l 542 441 l 481 315 l 481 0 l 355 0 l 355 315 l 294 441 l 144 0 l 10 0 l 216 604 z "},"Ӄ":{"ha":836,"x_min":93,"x_max":819,"o":"m 374 -163 l 416 -163 q 544 -112 507 -163 q 582 71 582 -61 l 582 267 q 414 482 582 482 l 311 482 l 231 396 l 231 0 l 93 0 l 93 1013 l 231 1013 l 231 562 l 659 1013 l 819 1013 l 425 597 l 441 597 q 642 518 565 597 q 720 278 720 439 l 720 71 q 650 -195 720 -111 q 425 -278 580 -278 l 374 -278 l 374 -163 z "},"Ӈ":{"ha":836,"x_min":93,"x_max":743,"o":"m 397 -163 l 439 -163 q 568 -112 530 -163 q 606 71 606 -61 l 606 482 l 231 482 l 231 0 l 93 0 l 93 1013 l 231 1013 l 231 597 l 606 597 l 606 1013 l 743 1013 l 743 71 q 673 -195 743 -113 q 449 -278 604 -278 l 397 -278 l 397 -163 z "},"Ӌ":{"ha":836,"x_min":88,"x_max":736,"o":"m 454 115 l 598 115 l 598 487 q 540 442 577 463 l 508 425 q 442 402 483 411 q 363 393 401 394 l 331 391 q 163 448 222 391 q 145 468 151 461 q 103 561 118 505 q 88 699 88 616 l 88 1014 l 226 1014 l 226 716 q 262 565 226 612 q 376 517 298 517 q 440 524 406 517 q 505 545 475 531 q 551 579 536 560 q 585 650 572 604 q 598 758 598 695 l 598 1014 l 736 1014 l 736 0 l 598 0 l 598 -218 l 454 -218 l 454 115 z "},"Ӑ":{"ha":836,"x_min":25,"x_max":811,"o":"m 418 1091 q 205 1255 221 1091 l 286 1255 q 419 1180 303 1180 q 550 1255 530 1180 l 631 1255 q 418 1091 615 1091 m 335 1013 l 501 1013 l 811 0 l 669 0 l 595 264 l 240 264 l 167 0 l 25 0 l 335 1013 m 562 374 l 418 892 l 273 374 l 562 374 z "},"Ӓ":{"ha":836,"x_min":25,"x_max":811,"o":"m 237 1118 q 216 1139 216 1118 l 216 1236 q 237 1256 216 1256 l 334 1256 q 354 1236 354 1256 l 354 1139 q 334 1118 354 1118 l 237 1118 m 503 1118 q 482 1139 482 1118 l 482 1236 q 503 1256 482 1256 l 599 1256 q 619 1236 619 1256 l 619 1139 q 599 1118 619 1118 l 503 1118 m 335 1013 l 501 1013 l 811 0 l 669 0 l 595 264 l 240 264 l 167 0 l 25 0 l 335 1013 m 562 374 l 418 892 l 273 374 l 562 374 z "},"Ӗ":{"ha":836,"x_min":134,"x_max":747,"o":"m 430 1091 q 218 1255 233 1091 l 298 1255 q 431 1180 315 1180 q 562 1255 542 1180 l 643 1255 q 430 1091 627 1091 m 134 1013 l 734 1013 l 734 897 l 271 897 l 271 597 l 714 597 l 714 482 l 271 482 l 271 115 l 747 115 l 747 0 l 134 0 l 134 1013 z "},"Ә":{"ha":836,"x_min":79,"x_max":757,"o":"m 417 -20 q 163 110 246 -20 q 79 505 79 239 l 79 562 l 613 562 l 613 567 q 567 825 613 731 q 412 920 520 920 q 301 897 360 920 q 194 835 242 875 l 194 975 q 302 1017 247 1004 q 414 1031 358 1031 q 672 901 588 1031 q 757 506 757 772 q 673 111 757 241 q 417 -20 589 -20 m 421 92 q 563 178 521 92 q 612 437 606 264 l 225 437 q 273 180 225 268 q 421 92 320 92 z "},"Ӛ":{"ha":836,"x_min":79,"x_max":757,"o":"m 237 1118 q 216 1139 216 1118 l 216 1236 q 237 1256 216 1256 l 334 1256 q 354 1236 354 1256 l 354 1139 q 334 1118 354 1118 l 237 1118 m 503 1118 q 482 1139 482 1118 l 482 1236 q 503 1256 482 1256 l 599 1256 q 619 1236 619 1256 l 619 1139 q 599 1118 619 1118 l 503 1118 m 417 -20 q 163 110 246 -20 q 79 505 79 239 l 79 562 l 613 562 l 613 567 q 567 825 613 731 q 412 920 520 920 q 301 897 360 920 q 194 835 242 875 l 194 975 q 302 1017 247 1004 q 414 1031 358 1031 q 672 901 588 1031 q 757 506 757 772 q 673 111 757 241 q 417 -20 589 -20 m 421 92 q 563 178 521 92 q 612 437 606 264 l 225 437 q 273 180 225 268 q 421 92 320 92 z "},"Ӝ":{"ha":836,"x_min":10,"x_max":826,"o":"m 237 1118 q 216 1139 216 1118 l 216 1236 q 237 1256 216 1256 l 334 1256 q 354 1236 354 1256 l 354 1139 q 334 1118 354 1118 l 237 1118 m 503 1118 q 482 1139 482 1118 l 482 1236 q 503 1256 482 1256 l 599 1256 q 619 1236 619 1256 l 619 1139 q 599 1118 619 1118 l 503 1118 m 216 604 l 22 1013 l 162 1013 l 355 609 l 355 1013 l 481 1013 l 481 609 l 674 1013 l 814 1013 l 620 604 l 826 0 l 692 0 l 542 441 l 481 315 l 481 0 l 355 0 l 355 315 l 294 441 l 144 0 l 10 0 l 216 604 z "},"Ӟ":{"ha":836,"x_min":93,"x_max":732,"o":"m 225 1118 q 205 1139 205 1118 l 205 1236 q 225 1256 205 1256 l 322 1256 q 342 1236 342 1256 l 342 1139 q 322 1118 342 1118 l 225 1118 m 491 1118 q 471 1139 471 1118 l 471 1236 q 491 1256 471 1256 l 587 1256 q 608 1236 608 1256 l 608 1139 q 587 1118 608 1118 l 491 1118 m 375 -20 q 93 31 236 -20 l 93 167 q 229 113 163 130 q 361 96 296 96 q 536 146 475 96 q 596 289 596 197 q 536 433 596 381 q 372 485 475 485 l 268 485 l 268 597 l 372 597 q 520 638 467 597 q 572 758 572 680 q 523 874 572 833 q 378 916 473 916 q 261 903 326 916 q 123 861 197 890 l 123 987 q 269 1020 205 1009 q 386 1031 333 1031 q 555 997 482 1031 q 668 903 627 964 q 708 761 708 842 q 526 542 708 589 q 679 448 627 515 q 732 278 732 381 q 638 60 732 139 q 375 -20 544 -20 z "},"Ӡ":{"ha":836,"x_min":18,"x_max":818,"o":"m 417 -19 q 121 63 224 -19 q 18 295 18 145 l 155 295 q 222 147 155 197 q 418 96 289 96 q 615 147 547 96 q 682 293 682 197 q 619 436 682 387 q 445 486 556 486 l 327 486 l 327 598 l 578 897 l 77 897 l 77 1013 l 735 1013 l 735 899 l 480 600 q 631 564 551 600 q 764 459 710 529 q 805 380 793 420 q 818 291 818 340 q 714 63 818 144 q 417 -19 610 -19 z "},"Ӣ":{"ha":836,"x_min":94,"x_max":742,"o":"m 215 1256 l 621 1256 l 621 1156 l 215 1156 l 215 1256 m 94 1013 l 227 1013 l 227 179 l 568 1013 l 742 1013 l 742 0 l 610 0 l 610 833 l 268 0 l 94 0 l 94 1013 z "},"Ӥ":{"ha":836,"x_min":94,"x_max":742,"o":"m 237 1118 q 216 1139 216 1118 l 216 1236 q 237 1256 216 1256 l 334 1256 q 354 1236 354 1256 l 354 1139 q 334 1118 354 1118 l 237 1118 m 503 1118 q 482 1139 482 1118 l 482 1236 q 503 1256 482 1256 l 599 1256 q 619 1236 619 1256 l 619 1139 q 599 1118 619 1118 l 503 1118 m 94 1013 l 227 1013 l 227 179 l 568 1013 l 742 1013 l 742 0 l 610 0 l 610 833 l 268 0 l 94 0 l 94 1013 z "},"Ӧ":{"ha":836,"x_min":79,"x_max":757,"o":"m 237 1118 q 216 1139 216 1118 l 216 1236 q 237 1256 216 1256 l 334 1256 q 354 1236 354 1256 l 354 1139 q 334 1118 354 1118 l 237 1118 m 503 1118 q 482 1139 482 1118 l 482 1236 q 503 1256 482 1256 l 599 1256 q 619 1236 619 1256 l 619 1139 q 599 1118 619 1118 l 503 1118 m 417 -20 q 163 110 247 -20 q 79 505 79 239 q 163 901 79 770 q 418 1031 247 1031 q 673 901 589 1031 q 757 505 757 770 q 417 -20 757 -20 m 418 92 q 568 187 522 92 q 614 505 614 280 q 568 824 614 730 q 418 920 522 920 q 269 824 315 920 q 222 505 222 726 q 269 187 222 285 q 418 92 315 92 z "},"Ө":{"ha":836,"x_min":79,"x_max":757,"o":"m 417 -20 q 163 110 247 -20 q 79 505 79 239 q 163 901 79 770 q 418 1031 247 1031 q 673 901 589 1031 q 757 505 757 770 q 417 -20 757 -20 m 612 597 q 563 834 604 749 q 418 920 522 920 q 307 880 347 920 q 248 768 267 841 q 224 597 230 696 l 612 597 m 418 92 q 567 185 522 92 q 614 482 611 278 l 222 482 q 269 185 224 279 q 418 92 314 92 z "},"Ӫ":{"ha":836,"x_min":79,"x_max":757,"o":"m 237 1118 q 216 1139 216 1118 l 216 1236 q 237 1256 216 1256 l 334 1256 q 354 1236 354 1256 l 354 1139 q 334 1118 354 1118 l 237 1118 m 503 1118 q 482 1139 482 1118 l 482 1236 q 503 1256 482 1256 l 599 1256 q 619 1236 619 1256 l 619 1139 q 599 1118 619 1118 l 503 1118 m 417 -20 q 163 110 247 -20 q 79 505 79 239 q 163 901 79 770 q 418 1031 247 1031 q 673 901 589 1031 q 757 505 757 770 q 417 -20 757 -20 m 612 597 q 563 834 604 749 q 418 920 522 920 q 307 880 347 920 q 248 768 267 841 q 224 597 230 696 l 612 597 m 418 92 q 567 185 522 92 q 614 482 611 278 l 222 482 q 269 185 224 279 q 418 92 314 92 z "},"Ӭ":{"ha":836,"x_min":121,"x_max":755,"o":"m 228 1118 q 208 1139 208 1118 l 208 1236 q 228 1256 208 1256 l 325 1256 q 345 1236 345 1256 l 345 1139 q 325 1118 345 1118 l 228 1118 m 494 1118 q 473 1139 473 1118 l 473 1236 q 494 1256 473 1256 l 590 1256 q 610 1236 610 1256 l 610 1139 q 590 1118 610 1118 l 494 1118 m 345 -20 q 121 36 226 -20 l 121 176 q 231 113 172 134 q 347 92 289 92 q 493 137 435 92 q 580 263 551 182 q 612 448 609 343 l 183 448 l 183 564 l 608 564 q 567 767 595 688 q 488 883 539 846 q 353 920 437 920 q 121 835 223 920 l 121 975 q 345 1031 226 1031 q 647 892 538 1031 q 755 504 755 753 q 647 118 755 256 q 345 -20 540 -20 z "},"Ӯ":{"ha":836,"x_min":84,"x_max":795,"o":"m 229 1256 l 634 1256 l 634 1156 l 229 1156 l 229 1256 m 138 117 l 212 117 q 298 149 268 117 q 352 232 328 180 q 360 253 357 243 q 372 282 364 262 l 84 1013 l 231 1013 l 442 450 l 651 1013 l 795 1013 l 516 288 q 474 188 496 235 q 429 106 452 140 q 353 29 398 58 q 239 0 309 0 l 138 0 l 138 117 z "},"Ӱ":{"ha":836,"x_min":84,"x_max":795,"o":"m 250 1118 q 230 1139 230 1118 l 230 1236 q 250 1256 230 1256 l 347 1256 q 368 1236 368 1256 l 368 1139 q 347 1118 368 1118 l 250 1118 m 516 1118 q 496 1139 496 1118 l 496 1236 q 516 1256 496 1256 l 612 1256 q 633 1236 633 1256 l 633 1139 q 612 1118 633 1118 l 516 1118 m 138 117 l 212 117 q 298 149 268 117 q 352 232 328 180 q 360 253 357 243 q 372 282 364 262 l 84 1013 l 231 1013 l 442 450 l 651 1013 l 795 1013 l 516 288 q 474 188 496 235 q 429 106 452 140 q 353 29 398 58 q 239 0 309 0 l 138 0 l 138 117 z "},"Ӳ":{"ha":836,"x_min":84,"x_max":795,"o":"m 380 1256 l 507 1256 l 351 1077 l 247 1077 l 380 1256 m 597 1256 l 723 1256 l 568 1077 l 463 1077 l 597 1256 m 138 117 l 212 117 q 298 149 268 117 q 352 232 328 180 q 360 253 357 243 q 372 282 364 262 l 84 1013 l 231 1013 l 442 450 l 651 1013 l 795 1013 l 516 288 q 474 188 496 235 q 429 106 452 140 q 353 29 398 58 q 239 0 309 0 l 138 0 l 138 117 z "},"Ӵ":{"ha":836,"x_min":86,"x_max":734,"o":"m 230 1118 q 210 1139 210 1118 l 210 1236 q 230 1256 210 1256 l 327 1256 q 347 1236 347 1256 l 347 1139 q 327 1118 347 1118 l 230 1118 m 496 1118 q 475 1139 475 1118 l 475 1236 q 496 1256 475 1256 l 592 1256 q 612 1236 612 1256 l 612 1139 q 592 1118 612 1118 l 496 1118 m 596 446 q 474 401 526 411 q 362 391 423 391 q 256 400 306 391 q 168 436 206 409 q 108 518 130 463 q 86 665 86 572 l 86 1013 l 224 1013 l 224 682 q 241 571 224 606 q 296 527 259 536 q 391 517 333 517 q 464 522 433 517 q 527 540 496 526 q 596 584 557 554 l 596 1013 l 734 1013 l 734 0 l 596 0 l 596 446 z "},"Ӷ":{"ha":836,"x_min":146,"x_max":772,"o":"m 283 0 l 146 0 l 146 1013 l 772 1013 l 772 897 l 283 897 l 283 115 l 428 115 l 428 -218 l 283 -218 l 283 0 z "},"Ӹ":{"ha":836,"x_min":56,"x_max":781,"o":"m 248 1118 q 228 1139 228 1118 l 228 1236 q 248 1256 228 1256 l 345 1256 q 366 1236 366 1256 l 366 1139 q 345 1118 366 1118 l 248 1118 m 514 1118 q 494 1139 494 1118 l 494 1236 q 514 1256 494 1256 l 610 1256 q 631 1236 631 1256 l 631 1139 q 610 1118 631 1118 l 514 1118 m 56 1013 l 193 1013 l 193 606 l 254 606 q 411 571 342 606 q 520 470 480 537 q 560 303 560 403 q 520 136 560 203 q 410 34 479 68 q 254 0 341 0 l 56 0 l 56 1013 m 643 1013 l 781 1013 l 781 0 l 643 0 l 643 1013 m 254 113 q 370 157 323 113 q 417 302 417 201 q 376 443 417 393 q 254 493 336 493 l 193 493 l 193 113 l 254 113 z "},"Ԑ":{"ha":836,"x_min":93,"x_max":732,"o":"m 450 -20 q 187 60 281 -20 q 93 278 93 139 q 145 448 93 381 q 298 542 198 515 q 117 760 117 589 q 157 902 117 841 q 270 997 197 963 q 439 1031 342 1031 q 555 1020 492 1031 q 701 987 619 1009 l 701 861 q 563 903 628 890 q 447 916 498 916 q 302 874 351 916 q 252 758 252 833 q 305 638 252 680 q 452 597 357 597 l 557 597 l 557 485 l 452 485 q 289 433 349 485 q 229 289 229 381 q 289 146 229 197 q 464 96 349 96 q 595 113 529 96 q 732 167 662 130 l 732 31 q 450 -20 589 -20 z "},"Ԛ":{"ha":836,"x_min":77,"x_max":815,"o":"m 444 -18 q 431 -19 441 -18 q 418 -20 420 -20 q 163 111 250 -24 q 79 505 77 245 q 163 901 79 772 q 418 1031 248 1031 q 566 1000 501 1031 q 673 901 630 968 q 757 505 757 770 q 711 184 757 307 q 653 81 688 125 q 570 14 618 38 l 815 -237 l 655 -237 l 444 -18 m 418 92 q 568 187 522 92 q 614 505 614 280 q 568 824 614 730 q 418 920 522 920 q 269 824 315 920 q 222 505 222 726 q 269 187 222 285 q 418 92 315 92 z "},"Ԝ":{"ha":836,"x_min":0,"x_max":836,"o":"m 0 1013 l 134 1013 l 231 191 l 346 734 l 489 734 l 606 189 l 703 1013 l 836 1013 l 685 0 l 555 0 l 418 602 l 281 0 l 151 0 l 0 1013 z "},"а":{"ha":836,"x_min":92,"x_max":760,"o":"m 348 -20 q 161 46 229 -20 q 111 120 129 77 q 92 222 92 162 q 178 414 92 347 q 427 479 262 479 l 595 479 l 595 499 q 549 631 595 589 q 404 672 504 672 q 275 654 340 672 q 148 600 208 635 l 148 725 q 211 747 176 736 q 281 765 245 758 q 405 778 341 778 q 566 749 498 778 q 625 715 597 736 q 673 667 653 694 q 696 626 687 648 q 709 583 705 604 q 720 433 720 535 l 720 278 q 722 209 722 239 q 726 153 723 179 q 734 100 730 125 q 742 62 739 75 q 753 22 747 41 q 760 0 759 3 l 635 0 q 616 59 626 20 q 610 89 613 74 q 606 115 607 104 q 555 55 586 81 q 494 13 524 28 q 348 -20 431 -20 m 374 85 q 535 157 476 85 q 595 354 595 229 l 595 382 l 437 382 q 273 344 329 382 q 217 229 217 306 q 258 123 217 161 q 306 95 278 105 q 374 85 334 85 z "},"б":{"ha":836,"x_min":85,"x_max":743,"o":"m 418 -20 q 177 80 261 -20 q 93 361 93 180 q 93 388 93 380 q 94 403 94 395 q 94 411 94 406 q 93 421 94 415 l 88 534 q 86 603 87 572 q 85 647 85 633 q 86 681 85 666 q 117 810 94 745 q 184 928 140 874 q 298 1015 228 982 q 427 1052 357 1043 q 578 1067 496 1061 q 608 1070 596 1068 q 637 1079 621 1072 l 684 983 q 657 975 671 977 q 626 970 642 972 l 463 954 q 405 943 433 951 q 347 919 376 935 q 245 835 285 886 q 199 735 205 783 l 193 694 q 295 758 236 739 q 420 778 355 778 q 660 676 576 778 q 743 378 743 574 q 660 82 743 184 q 418 -20 576 -20 m 419 86 q 611 379 611 86 q 418 672 611 672 q 225 380 225 672 q 419 86 225 86 z "},"в":{"ha":836,"x_min":162,"x_max":715,"o":"m 162 760 l 431 760 q 557 739 500 760 q 648 675 614 718 q 682 568 682 633 q 650 461 682 507 q 551 407 617 415 q 678 343 642 391 q 715 223 715 296 q 645 57 715 113 q 442 0 574 0 l 162 0 l 162 760 m 441 451 q 528 480 499 451 q 556 554 556 509 q 528 629 556 600 q 441 658 499 658 l 287 658 l 287 451 l 441 451 m 449 102 q 548 139 513 102 q 582 235 582 177 q 552 318 582 286 q 452 349 523 349 l 287 349 l 287 102 l 449 102 z "},"г":{"ha":836,"x_min":208,"x_max":718,"o":"m 208 760 l 718 760 l 718 658 l 333 658 l 333 0 l 208 0 l 208 760 z "},"ѓ":{"ha":836,"x_min":208,"x_max":736,"o":"m 602 1116 l 736 1116 l 515 861 l 411 861 l 602 1116 m 208 760 l 718 760 l 718 658 l 333 658 l 333 0 l 208 0 l 208 760 z "},"ґ":{"ha":836,"x_min":215,"x_max":726,"o":"m 215 760 l 600 760 l 600 972 l 726 972 l 725 635 l 340 635 l 340 0 l 215 0 l 215 760 z "},"д":{"ha":836,"x_min":71,"x_max":765,"o":"m 71 102 l 117 102 q 142 132 132 102 q 159 208 152 161 q 169 307 165 255 q 174 405 173 359 q 176 477 176 450 l 176 760 l 683 760 l 683 102 l 765 102 l 765 -194 l 663 -194 l 663 0 l 173 0 l 173 -194 l 71 -194 l 71 102 m 557 102 l 557 658 l 300 658 l 300 475 q 297 394 300 454 q 287 239 294 333 q 276 131 279 140 q 271 113 271 119 q 275 104 271 107 q 294 102 279 102 l 557 102 z "},"е":{"ha":836,"x_min":84,"x_max":755,"o":"m 459 -20 q 183 87 283 -20 q 84 376 84 193 q 128 589 84 499 q 252 728 172 679 q 437 778 332 778 q 671 680 588 778 q 755 411 755 581 l 755 350 l 214 350 l 214 346 q 279 154 214 222 q 461 86 345 86 q 726 163 579 86 l 726 39 q 588 -5 654 9 q 459 -20 523 -20 m 630 448 q 579 613 628 554 q 439 672 531 672 q 289 613 347 672 q 219 447 231 555 l 630 448 z "},"ѐ":{"ha":836,"x_min":84,"x_max":755,"o":"m 170 1135 l 304 1135 l 494 880 l 390 880 l 170 1135 m 459 -20 q 183 87 283 -20 q 84 376 84 193 q 128 589 84 499 q 252 728 172 679 q 437 778 332 778 q 671 680 588 778 q 755 411 755 581 l 755 350 l 214 350 l 214 346 q 279 154 214 222 q 461 86 345 86 q 726 163 579 86 l 726 39 q 588 -5 654 9 q 459 -20 523 -20 m 630 448 q 579 613 628 554 q 439 672 531 672 q 289 613 347 672 q 219 447 231 555 l 630 448 z "},"ё":{"ha":836,"x_min":84,"x_max":755,"o":"m 261 913 q 241 934 241 913 l 241 1030 q 261 1050 241 1050 l 358 1050 q 378 1030 378 1050 l 378 934 q 358 913 378 913 l 261 913 m 527 913 q 507 934 507 913 l 507 1030 q 527 1050 507 1050 l 623 1050 q 644 1030 644 1050 l 644 934 q 623 913 644 913 l 527 913 m 459 -20 q 183 87 283 -20 q 84 376 84 193 q 128 589 84 499 q 252 728 172 679 q 437 778 332 778 q 671 680 588 778 q 755 411 755 581 l 755 350 l 214 350 l 214 346 q 279 154 214 222 q 461 86 345 86 q 726 163 579 86 l 726 39 q 588 -5 654 9 q 459 -20 523 -20 m 630 448 q 579 613 628 554 q 439 672 531 672 q 289 613 347 672 q 219 447 231 555 l 630 448 z "},"ж":{"ha":836,"x_min":40,"x_max":797,"o":"m 216 486 l 54 760 l 189 760 l 361 467 l 361 760 l 475 760 l 475 467 l 648 760 l 783 760 l 621 486 l 797 0 l 675 0 l 546 358 l 475 238 l 475 0 l 361 0 l 361 238 l 291 358 l 161 0 l 40 0 l 216 486 z "},"з":{"ha":836,"x_min":115,"x_max":722,"o":"m 366 -15 q 115 23 248 -15 l 115 140 q 357 94 220 94 q 536 129 475 94 q 597 227 597 165 q 540 324 597 288 q 381 361 482 361 l 274 361 l 274 458 l 386 458 q 527 488 479 458 q 576 563 576 517 q 525 638 576 610 q 378 667 475 667 q 272 659 330 667 q 142 632 214 650 l 142 745 q 391 778 285 778 q 617 725 534 778 q 700 581 700 671 q 656 472 700 515 q 531 412 612 429 q 670 347 618 395 q 722 218 722 298 q 628 48 722 111 q 366 -15 534 -15 z "},"и":{"ha":836,"x_min":132,"x_max":712,"o":"m 132 760 l 257 760 l 257 211 l 587 760 l 712 760 l 712 0 l 587 0 l 587 549 l 257 0 l 132 0 l 132 760 z "},"й":{"ha":836,"x_min":132,"x_max":712,"o":"m 418 863 q 205 1057 221 863 l 286 1057 q 325 982 294 1008 q 417 956 355 956 q 550 1057 531 956 l 631 1057 q 418 863 615 863 m 132 760 l 257 760 l 257 211 l 587 760 l 712 760 l 712 0 l 587 0 l 587 549 l 257 0 l 132 0 l 132 760 z "},"ѝ":{"ha":836,"x_min":132,"x_max":712,"o":"m 233 1117 l 367 1117 l 557 862 l 453 862 l 233 1117 m 132 760 l 257 760 l 257 211 l 587 760 l 712 760 l 712 0 l 587 0 l 587 549 l 257 0 l 132 0 l 132 760 z "},"к":{"ha":836,"x_min":160,"x_max":815,"o":"m 160 760 l 289 760 l 289 444 l 616 760 l 768 760 l 469 473 l 815 0 l 663 0 l 382 392 l 289 304 l 289 0 l 160 0 l 160 760 z "},"ќ":{"ha":836,"x_min":160,"x_max":815,"o":"m 545 1117 l 680 1117 l 459 862 l 355 862 l 545 1117 m 160 760 l 289 760 l 289 444 l 616 760 l 768 760 l 469 473 l 815 0 l 663 0 l 382 392 l 289 304 l 289 0 l 160 0 l 160 760 z "},"л":{"ha":836,"x_min":34,"x_max":726,"o":"m 34 102 l 58 102 q 149 143 119 102 q 186 277 178 184 q 191 371 189 312 q 193 490 193 430 l 193 760 l 726 760 l 726 0 l 601 0 l 601 658 l 318 658 l 318 492 q 315 343 318 419 q 298 198 312 267 q 249 79 283 129 q 179 20 221 40 q 71 0 138 0 l 34 0 l 34 102 z "},"м":{"ha":836,"x_min":41,"x_max":800,"o":"m 41 760 l 166 760 l 420 291 l 675 760 l 800 760 l 800 0 l 675 0 l 675 503 l 483 176 l 358 176 l 166 503 l 166 0 l 41 0 l 41 760 z "},"н":{"ha":836,"x_min":128,"x_max":708,"o":"m 128 760 l 253 760 l 253 451 l 583 451 l 583 760 l 708 760 l 708 0 l 583 0 l 583 349 l 253 349 l 253 0 l 128 0 l 128 760 z "},"о":{"ha":836,"x_min":93,"x_max":743,"o":"m 418 -20 q 176 82 258 -20 q 93 378 93 183 q 176 675 93 572 q 418 778 260 778 q 660 675 576 778 q 743 378 743 572 q 660 82 743 184 q 418 -20 576 -20 m 418 86 q 611 379 611 86 q 418 672 611 672 q 225 379 225 672 q 418 86 225 86 z "},"п":{"ha":836,"x_min":128,"x_max":708,"o":"m 128 760 l 708 760 l 708 0 l 583 0 l 583 658 l 253 658 l 253 0 l 128 0 l 128 760 z "},"р":{"ha":836,"x_min":129,"x_max":751,"o":"m 129 760 l 242 760 l 254 663 q 459 778 319 778 q 673 671 594 778 q 751 378 751 565 q 673 86 751 192 q 458 -20 594 -20 q 254 96 316 -20 l 254 -289 l 129 -289 l 129 760 m 439 86 q 621 379 621 86 q 439 672 621 672 q 254 379 254 672 q 439 86 254 86 z "},"с":{"ha":836,"x_min":111,"x_max":699,"o":"m 483 -20 q 210 86 309 -20 q 111 379 111 193 q 137 549 111 476 q 211 673 163 623 q 484 778 311 778 q 593 764 545 778 q 699 720 643 750 l 699 589 q 600 652 647 634 q 487 672 548 672 q 306 596 369 672 q 243 380 243 519 q 257 259 243 315 q 306 163 272 203 q 489 86 370 86 q 551 92 523 86 q 603 106 579 97 q 655 133 633 118 q 699 168 677 149 l 699 39 q 648 14 675 25 q 595 -5 621 2 q 544 -16 572 -12 q 483 -20 515 -20 z "},"т":{"ha":836,"x_min":145,"x_max":692,"o":"m 356 658 l 145 658 l 145 760 l 692 760 l 692 658 l 481 658 l 481 0 l 356 0 l 356 658 z "},"у":{"ha":836,"x_min":77,"x_max":789,"o":"m 132 -184 l 205 -184 q 257 -175 236 -184 q 292 -153 278 -166 q 325 -99 307 -137 q 371 12 344 -61 l 77 760 l 210 760 l 435 165 l 656 760 l 789 760 l 589 244 q 560 171 570 195 q 545 131 551 146 q 532 95 539 115 q 509 35 525 75 q 454 -107 474 -58 q 418 -183 435 -156 q 344 -261 389 -234 q 232 -289 300 -289 l 132 -289 l 132 -184 z "},"ў":{"ha":836,"x_min":77,"x_max":789,"o":"m 425 861 q 212 1056 228 861 l 293 1056 q 331 981 300 1007 q 424 954 362 954 q 557 1056 538 954 l 637 1056 q 425 861 622 861 m 132 -184 l 205 -184 q 257 -175 236 -184 q 292 -153 278 -166 q 325 -99 307 -137 q 371 12 344 -61 l 77 760 l 210 760 l 435 165 l 656 760 l 789 760 l 589 244 q 560 171 570 195 q 545 131 551 146 q 532 95 539 115 q 509 35 525 75 q 454 -107 474 -58 q 418 -183 435 -156 q 344 -261 389 -234 q 232 -289 300 -289 l 132 -289 l 132 -184 z "},"ф":{"ha":836,"x_min":71,"x_max":766,"o":"m 356 -20 q 193 33 256 -9 q 100 159 130 75 q 71 380 71 244 q 100 598 71 514 q 193 725 130 683 q 356 778 256 768 l 356 1055 l 481 1055 l 481 778 q 644 725 581 768 q 737 598 707 683 q 766 380 766 514 q 736 159 766 244 q 644 33 707 75 q 481 -20 581 -9 l 481 -289 l 356 -289 l 356 -20 m 356 666 q 268 630 302 655 q 218 548 234 606 q 203 379 203 490 q 218 209 203 269 q 268 123 234 149 q 356 86 302 97 l 356 666 m 481 86 q 569 123 535 97 q 618 209 603 149 q 634 379 634 269 q 618 548 634 490 q 569 630 603 606 q 481 666 535 655 l 481 86 z "},"х":{"ha":836,"x_min":52,"x_max":785,"o":"m 350 396 l 78 760 l 216 760 l 418 485 l 618 760 l 758 760 l 486 396 l 785 0 l 640 0 l 418 304 l 196 0 l 52 0 l 350 396 z "},"ч":{"ha":836,"x_min":112,"x_max":692,"o":"m 568 316 q 533 303 560 313 q 462 282 506 292 q 360 273 418 273 q 179 328 245 273 q 112 512 112 383 l 112 761 l 237 761 l 237 512 q 259 426 237 454 q 319 390 282 398 q 400 381 357 381 q 486 389 447 381 q 568 421 526 397 l 568 761 l 692 761 l 692 0 l 568 0 l 568 316 z "},"ц":{"ha":836,"x_min":125,"x_max":799,"o":"m 697 0 l 125 0 l 125 760 l 250 760 l 250 102 l 579 102 l 579 760 l 704 760 l 704 102 l 799 102 l 799 -194 l 697 -194 l 697 0 z "},"ш":{"ha":836,"x_min":85,"x_max":752,"o":"m 85 760 l 199 760 l 199 102 l 361 102 l 361 760 l 475 760 l 475 102 l 638 102 l 638 760 l 752 760 l 752 0 l 85 0 l 85 760 z "},"щ":{"ha":836,"x_min":71,"x_max":836,"o":"m 734 0 l 71 0 l 71 760 l 185 760 l 185 102 l 348 102 l 348 760 l 462 760 l 462 102 l 625 102 l 625 760 l 739 760 l 739 102 l 836 102 l 836 -194 l 734 -194 l 734 0 z "},"џ":{"ha":836,"x_min":128,"x_max":708,"o":"m 367 0 l 128 0 l 128 760 l 253 760 l 253 102 l 583 102 l 583 760 l 708 760 l 708 0 l 469 0 l 469 -194 l 367 -194 l 367 0 z "},"я":{"ha":836,"x_min":121,"x_max":674,"o":"m 305 325 q 263 345 288 332 q 213 383 237 359 q 171 446 188 408 q 154 539 154 484 q 189 666 154 617 q 280 737 223 714 q 405 760 337 760 l 674 760 l 674 0 l 549 0 l 549 309 l 418 309 l 243 0 l 121 0 l 305 325 m 549 410 l 549 658 l 395 658 q 343 645 370 658 q 298 605 317 632 q 280 534 280 578 q 298 463 280 490 q 343 423 317 436 q 395 410 370 410 l 549 410 z "},"ь":{"ha":836,"x_min":153,"x_max":753,"o":"m 153 760 l 277 760 l 277 452 l 451 452 q 672 396 592 452 q 753 224 753 340 q 674 56 753 111 q 451 0 596 0 l 153 0 l 153 760 m 446 104 q 620 226 620 104 q 446 349 620 349 l 277 349 l 277 104 l 446 104 z "},"ъ":{"ha":836,"x_min":41,"x_max":810,"o":"m 209 658 l 41 658 l 41 760 l 334 760 l 334 452 l 507 452 q 729 396 649 452 q 810 224 810 340 q 731 56 810 111 q 507 0 652 0 l 209 0 l 209 658 m 502 106 q 631 135 586 106 q 677 226 677 165 q 631 318 677 288 q 502 349 585 349 l 334 349 l 334 106 l 502 106 z "},"ы":{"ha":836,"x_min":71,"x_max":766,"o":"m 71 760 l 194 760 l 194 452 l 256 452 q 478 396 397 452 q 558 224 558 340 q 479 56 558 111 q 256 0 401 0 l 71 0 l 71 760 m 641 760 l 766 760 l 766 0 l 641 0 l 641 760 m 250 104 q 380 134 334 104 q 425 226 425 164 q 379 319 425 288 q 250 350 333 350 l 194 350 l 194 104 l 250 104 z "},"љ":{"ha":836,"x_min":11,"x_max":836,"o":"m 11 102 l 35 102 q 125 143 96 102 q 163 277 155 184 q 168 371 166 312 q 170 490 170 430 l 170 760 l 553 760 l 553 452 l 568 452 q 701 428 640 452 q 799 352 762 403 q 836 224 836 301 q 800 99 836 149 q 703 25 764 50 q 568 0 642 0 l 439 0 l 439 658 l 284 658 l 284 445 q 280 323 284 392 q 260 186 276 254 q 210 71 245 119 q 150 20 187 41 q 37 0 112 0 l 11 0 l 11 102 m 562 104 q 703 227 703 104 q 562 349 703 349 l 553 349 l 553 104 l 562 104 z "},"њ":{"ha":836,"x_min":72,"x_max":829,"o":"m 72 760 l 186 760 l 186 451 l 433 451 l 433 760 l 547 760 l 547 452 l 561 452 q 694 428 633 452 q 792 352 755 403 q 829 224 829 301 q 793 99 829 149 q 696 25 757 50 q 561 0 635 0 l 433 0 l 433 349 l 186 349 l 186 0 l 72 0 l 72 760 m 555 104 q 696 227 696 104 q 555 349 696 349 l 547 349 l 547 104 l 555 104 z "},"ѕ":{"ha":836,"x_min":144,"x_max":699,"o":"m 398 -20 q 278 -8 339 -20 q 144 28 216 4 l 144 157 q 399 85 283 85 q 527 119 481 85 q 572 207 572 153 q 534 283 572 253 q 406 332 496 313 l 401 334 l 354 343 q 195 415 243 365 q 147 549 147 466 q 220 719 147 660 q 433 778 294 778 q 660 733 551 778 l 660 611 q 552 658 605 642 q 437 673 498 673 q 273 562 273 673 q 304 486 273 511 q 361 461 322 473 q 460 437 400 449 l 510 428 q 699 220 699 392 q 618 44 699 107 q 398 -20 538 -20 z "},"є":{"ha":836,"x_min":112,"x_max":699,"o":"m 482 -20 q 285 28 368 -20 q 157 165 202 76 q 112 379 112 254 q 211 672 112 566 q 483 778 311 778 q 591 764 540 778 q 699 720 643 751 l 699 589 q 604 651 653 630 q 490 672 554 672 q 357 641 408 672 q 281 558 307 610 q 248 447 256 507 l 612 448 l 612 350 l 244 350 q 310 159 251 231 q 490 86 368 86 q 699 168 614 86 l 699 39 q 592 -6 644 7 q 482 -20 540 -20 z "},"э":{"ha":836,"x_min":153,"x_max":740,"o":"m 370 -20 q 260 -6 312 -20 q 153 39 208 7 l 153 168 q 361 86 238 86 q 542 159 484 86 q 608 350 601 231 l 240 350 l 240 448 l 604 448 q 570 558 596 507 q 494 641 545 610 q 362 672 444 672 q 250 652 300 672 q 153 589 200 631 l 153 720 q 260 764 208 751 q 369 778 312 778 q 641 672 541 778 q 740 379 740 566 q 695 165 740 254 q 567 28 650 76 q 370 -20 484 -20 z "},"і":{"ha":836,"x_min":155,"x_max":713,"o":"m 336 897 q 314 918 314 897 l 314 1035 q 336 1055 314 1055 l 424 1055 q 446 1035 446 1055 l 446 918 q 424 897 446 897 l 336 897 m 446 270 q 477 143 446 184 q 568 100 508 100 l 713 100 l 713 -5 l 555 -5 q 458 12 501 -5 q 382 66 415 28 q 321 270 321 138 l 321 662 l 155 662 l 155 760 l 446 760 l 446 270 z "},"ї":{"ha":836,"x_min":155,"x_max":713,"o":"m 175 896 q 155 916 155 896 l 155 1013 q 175 1033 155 1033 l 272 1033 q 292 1013 292 1033 l 292 916 q 272 896 292 896 l 175 896 m 441 896 q 420 916 420 896 l 420 1013 q 441 1033 420 1033 l 537 1033 q 557 1013 557 1033 l 557 916 q 537 896 557 896 l 441 896 m 446 270 q 477 143 446 184 q 568 100 508 100 l 713 100 l 713 -5 l 555 -5 q 458 12 501 -5 q 382 66 415 28 q 321 270 321 138 l 321 662 l 155 662 l 155 760 l 446 760 l 446 270 z "},"ј":{"ha":836,"x_min":161,"x_max":567,"o":"m 457 897 q 435 918 435 897 l 435 1035 q 457 1055 435 1055 l 545 1055 q 567 1035 567 1055 l 567 918 q 545 897 567 897 l 457 897 m 161 -183 l 320 -183 q 442 -14 442 -183 l 442 663 l 227 663 l 227 760 l 567 760 l 567 -14 q 507 -218 567 -146 q 334 -289 446 -289 l 161 -289 l 161 -183 z "},"ћ":{"ha":836,"x_min":44,"x_max":753,"o":"m 173 663 l 44 663 l 44 760 l 173 760 l 173 1055 l 298 1055 l 298 760 l 602 760 l 602 663 l 298 663 l 298 393 q 523 526 364 526 q 753 218 753 526 l 753 0 l 628 0 l 628 218 q 592 369 628 321 q 480 417 557 417 q 345 355 391 417 q 298 177 298 294 l 298 0 l 173 0 l 173 663 z "},"ю":{"ha":836,"x_min":80,"x_max":819,"o":"m 562 -20 q 384 73 456 -20 q 301 328 312 166 l 205 328 l 205 0 l 80 0 l 80 760 l 205 760 l 205 430 l 301 430 q 384 690 312 602 q 559 778 456 778 q 690 734 631 778 q 784 602 749 690 q 819 378 819 513 q 783 152 819 240 q 688 22 747 64 q 562 -20 629 -20 m 467 165 q 559 85 503 85 q 611 107 586 85 q 653 171 635 128 q 678 265 669 210 q 687 389 687 321 q 649 598 687 524 q 561 671 613 671 q 469 589 507 671 q 441 494 451 548 q 431 374 431 440 q 441 254 431 307 q 467 165 450 201 z "},"ђ":{"ha":836,"x_min":51,"x_max":779,"o":"m 448 -177 q 548 -120 503 -167 q 621 9 593 -73 q 648 206 648 91 q 616 363 648 309 q 496 417 585 417 q 351 355 398 417 q 304 177 304 294 l 304 0 l 180 0 l 180 663 l 51 663 l 51 760 l 180 760 l 180 1055 l 304 1055 l 304 760 l 608 760 l 608 663 l 304 663 l 304 393 q 534 526 371 526 q 720 445 661 526 q 779 201 779 364 q 695 -128 779 3 q 448 -289 612 -259 l 448 -177 z "},"ѣ":{"ha":836,"x_min":34,"x_max":803,"o":"m 202 660 l 34 660 l 34 760 l 202 760 l 202 1055 l 327 1055 l 327 760 l 615 760 l 615 660 l 327 660 l 327 452 l 500 452 q 723 396 642 452 q 803 224 803 340 q 724 56 803 111 q 500 0 646 0 l 202 0 l 202 660 m 495 106 q 625 135 579 106 q 670 226 670 165 q 624 318 670 288 q 495 349 578 349 l 327 349 l 327 106 l 495 106 z "},"ѳ":{"ha":836,"x_min":93,"x_max":743,"o":"m 418 -20 q 176 82 260 -20 q 93 380 93 184 q 176 675 93 572 q 276 751 217 725 q 417 778 335 778 q 660 675 576 778 q 743 379 743 573 q 660 82 743 184 q 418 -20 577 -20 m 610 414 q 559 603 605 534 q 418 672 513 672 q 277 603 323 672 q 226 414 231 534 l 610 414 m 418 86 q 521 115 481 86 q 581 194 560 144 q 607 303 601 243 l 229 303 q 256 194 236 243 q 315 115 276 144 q 418 86 354 86 z "},"ғ":{"ha":836,"x_min":127,"x_max":725,"o":"m 215 339 l 127 339 l 127 454 l 215 454 l 215 760 l 725 760 l 725 635 l 340 635 l 340 454 l 622 454 l 622 339 l 340 339 l 340 0 l 215 0 l 215 339 z "},"ҕ":{"ha":836,"x_min":154,"x_max":730,"o":"m 366 -183 l 482 -183 q 558 -169 532 -183 q 595 -117 585 -154 q 605 -14 605 -80 l 605 165 q 593 277 605 243 q 548 321 581 312 q 455 330 515 330 l 279 330 l 279 0 l 154 0 l 154 760 l 664 760 l 664 635 l 279 635 l 279 428 l 448 428 q 592 416 537 428 q 677 376 648 405 q 719 297 707 348 q 730 170 730 247 l 730 -14 q 674 -223 730 -158 q 496 -289 618 -289 l 366 -289 l 366 -183 z "},"җ":{"ha":836,"x_min":40,"x_max":812,"o":"m 711 0 l 675 0 l 546 358 l 475 238 l 475 0 l 361 0 l 361 238 l 291 358 l 161 0 l 40 0 l 216 486 l 54 760 l 189 760 l 361 467 l 361 760 l 475 760 l 475 467 l 648 760 l 783 760 l 621 486 l 760 102 l 812 102 l 812 -194 l 711 -194 l 711 0 z "},"ҙ":{"ha":836,"x_min":115,"x_max":722,"o":"m 722 218 q 648 63 722 123 q 439 -12 574 2 q 488 -82 472 -50 q 503 -149 503 -115 q 340 -268 503 -268 q 222 -252 282 -268 l 222 -163 q 270 -179 243 -174 q 322 -184 297 -184 q 409 -123 409 -184 q 398 -79 409 -104 q 360 -15 388 -54 q 242 -5 301 -14 q 115 23 182 3 l 115 140 q 357 94 220 94 q 536 129 475 94 q 597 227 597 165 q 540 324 597 288 q 381 361 482 361 l 274 361 l 274 458 l 386 458 q 527 488 479 458 q 576 563 576 517 q 525 638 576 610 q 378 667 475 667 q 272 659 330 667 q 142 632 214 650 l 142 745 q 391 778 285 778 q 617 725 534 778 q 700 581 700 671 q 656 472 700 515 q 531 412 612 429 q 670 347 618 395 q 722 218 722 298 z "},"қ":{"ha":836,"x_min":146,"x_max":802,"o":"m 669 0 l 649 0 l 368 392 l 275 304 l 275 0 l 146 0 l 146 760 l 275 760 l 275 444 l 603 760 l 755 760 l 456 473 l 711 125 l 802 125 l 802 -194 l 669 -194 l 669 0 z "},"ң":{"ha":836,"x_min":124,"x_max":836,"o":"m 704 0 l 579 0 l 579 342 l 249 342 l 249 0 l 124 0 l 124 760 l 249 760 l 249 458 l 579 458 l 579 760 l 704 760 l 704 125 l 836 125 l 836 -194 l 704 -194 l 704 0 z "},"ҫ":{"ha":836,"x_min":112,"x_max":699,"o":"m 490 672 q 306 596 369 672 q 243 380 243 520 q 307 162 243 238 q 491 86 370 86 q 603 106 551 86 q 699 168 654 125 l 699 39 q 619 2 659 15 q 539 -16 580 -11 q 584 -84 570 -53 q 599 -149 599 -115 q 436 -268 599 -268 q 318 -252 378 -268 l 318 -163 q 366 -179 339 -174 q 418 -184 393 -184 q 505 -123 505 -184 q 494 -81 505 -104 q 458 -19 484 -57 q 205 94 298 -11 q 112 379 112 198 q 211 672 112 566 q 483 778 311 778 q 591 764 540 778 q 699 720 643 751 l 699 589 q 490 672 606 672 z "},"ҭ":{"ha":836,"x_min":145,"x_max":692,"o":"m 481 0 l 356 0 l 356 639 l 145 639 l 145 760 l 692 760 l 692 639 l 481 639 l 481 125 l 613 125 l 613 -194 l 481 -194 l 481 0 z "},"ү":{"ha":836,"x_min":62,"x_max":773,"o":"m 353 12 l 62 760 l 195 760 l 418 165 l 641 760 l 773 760 l 483 12 l 483 -289 l 353 -289 l 353 12 z "},"ұ":{"ha":836,"x_min":62,"x_max":773,"o":"m 353 -125 l 217 -125 l 217 -24 l 353 -24 l 353 12 l 62 760 l 195 760 l 418 165 l 641 760 l 773 760 l 483 12 l 483 -24 l 618 -24 l 618 -125 l 483 -125 l 483 -289 l 353 -289 l 353 -125 z "},"ҳ":{"ha":836,"x_min":65,"x_max":799,"o":"m 666 0 l 654 0 l 431 304 l 210 0 l 65 0 l 363 396 l 92 760 l 230 760 l 431 485 l 631 760 l 772 760 l 500 396 l 704 125 l 799 125 l 799 -194 l 666 -194 l 666 0 z "},"һ":{"ha":836,"x_min":132,"x_max":713,"o":"m 132 1055 l 257 1055 l 257 646 q 482 778 323 778 q 713 471 713 778 l 713 0 l 587 0 l 587 471 q 552 621 587 573 q 439 669 516 669 q 304 608 351 669 q 257 429 257 546 l 257 0 l 132 0 l 132 1055 z "},"ӏ":{"ha":836,"x_min":309,"x_max":433,"o":"m 309 1063 l 433 1063 l 433 0 l 309 0 l 309 1063 z "},"ӂ":{"ha":836,"x_min":40,"x_max":797,"o":"m 418 896 q 205 1090 221 896 l 286 1090 q 418 989 301 989 q 550 1090 530 989 l 631 1090 q 418 896 615 896 m 216 486 l 54 760 l 189 760 l 361 467 l 361 760 l 475 760 l 475 467 l 648 760 l 783 760 l 621 486 l 797 0 l 675 0 l 546 358 l 475 238 l 475 0 l 361 0 l 361 238 l 291 358 l 161 0 l 40 0 l 216 486 z "},"ӄ":{"ha":836,"x_min":146,"x_max":755,"o":"m 362 -183 l 479 -183 q 555 -169 529 -183 q 592 -117 582 -154 q 602 -14 602 -80 l 602 165 q 589 277 602 243 q 545 321 577 312 q 452 330 513 330 l 302 330 l 275 304 l 275 0 l 146 0 l 146 760 l 275 760 l 275 444 l 603 760 l 755 760 l 406 428 l 445 428 q 589 416 533 428 q 674 376 644 405 q 715 297 704 348 q 726 170 726 247 l 726 -14 q 671 -223 726 -158 q 493 -289 615 -289 l 362 -289 l 362 -183 z "},"ӈ":{"ha":836,"x_min":139,"x_max":719,"o":"m 355 -183 l 471 -183 q 548 -169 521 -183 q 584 -117 574 -154 q 594 -14 594 -80 l 594 342 l 264 342 l 264 0 l 139 0 l 139 760 l 264 760 l 264 458 l 594 458 l 594 760 l 719 760 l 719 -14 q 663 -223 719 -158 q 486 -289 608 -289 l 355 -289 l 355 -183 z "},"ӌ":{"ha":836,"x_min":119,"x_max":699,"o":"m 442 125 l 574 125 l 574 384 q 515 325 556 349 q 511 322 516 326 q 484 307 505 319 q 350 273 426 273 q 119 580 119 273 l 119 761 l 244 761 l 244 580 q 280 429 244 477 q 392 381 315 381 q 528 443 481 381 q 574 621 574 505 l 574 761 l 699 761 l 699 0 l 574 0 l 574 -194 l 442 -194 l 442 125 z "},"ӑ":{"ha":836,"x_min":97,"x_max":765,"o":"m 418 880 q 205 1075 221 880 l 286 1075 q 325 1000 294 1026 q 417 973 355 973 q 550 1075 531 973 l 631 1075 q 418 880 615 880 m 353 -20 q 166 46 234 -20 q 115 120 134 77 q 97 222 97 162 q 182 414 97 347 q 432 479 267 479 l 600 479 l 600 499 q 553 631 600 589 q 409 672 509 672 q 279 654 345 672 q 153 600 213 635 l 153 725 q 216 747 181 736 q 286 765 250 758 q 410 778 346 778 q 570 749 502 778 q 630 715 602 736 q 677 667 658 694 q 701 626 692 648 q 714 583 709 604 q 725 433 725 535 l 725 278 q 727 209 726 239 q 731 153 728 179 q 739 100 734 125 q 747 62 743 75 q 758 22 751 41 q 765 0 764 3 l 640 0 q 621 59 631 20 q 615 89 618 74 q 610 115 612 104 q 560 55 591 81 q 499 13 529 28 q 353 -20 436 -20 m 378 85 q 540 157 481 85 q 600 354 600 229 l 600 382 l 441 382 q 277 344 334 382 q 222 229 222 306 q 263 123 222 161 q 311 95 283 105 q 378 85 339 85 z "},"ӓ":{"ha":836,"x_min":97,"x_max":765,"o":"m 237 916 q 216 936 216 916 l 216 1032 q 237 1053 216 1053 l 334 1053 q 354 1032 354 1053 l 354 936 q 334 916 354 916 l 237 916 m 503 916 q 482 936 482 916 l 482 1032 q 503 1053 482 1053 l 599 1053 q 619 1032 619 1053 l 619 936 q 599 916 619 916 l 503 916 m 353 -20 q 166 46 234 -20 q 115 120 134 77 q 97 222 97 162 q 182 414 97 347 q 432 479 267 479 l 600 479 l 600 499 q 553 631 600 589 q 409 672 509 672 q 279 654 345 672 q 153 600 213 635 l 153 725 q 216 747 181 736 q 286 765 250 758 q 410 778 346 778 q 570 749 502 778 q 630 715 602 736 q 677 667 658 694 q 701 626 692 648 q 714 583 709 604 q 725 433 725 535 l 725 278 q 727 209 726 239 q 731 153 728 179 q 739 100 734 125 q 747 62 743 75 q 758 22 751 41 q 765 0 764 3 l 640 0 q 621 59 631 20 q 615 89 618 74 q 610 115 612 104 q 560 55 591 81 q 499 13 529 28 q 353 -20 436 -20 m 378 85 q 540 157 481 85 q 600 354 600 229 l 600 382 l 441 382 q 277 344 334 382 q 222 229 222 306 q 263 123 222 161 q 311 95 283 105 q 378 85 339 85 z "},"ӗ":{"ha":836,"x_min":84,"x_max":755,"o":"m 428 880 q 216 1075 231 880 l 296 1075 q 335 1000 304 1026 q 427 973 366 973 q 560 1075 541 973 l 641 1075 q 428 880 625 880 m 459 -20 q 183 87 283 -20 q 84 376 84 193 q 128 589 84 499 q 252 728 172 679 q 437 778 332 778 q 671 680 588 778 q 755 411 755 581 l 755 350 l 214 350 l 214 346 q 279 154 214 222 q 461 86 345 86 q 726 163 579 86 l 726 39 q 588 -5 654 9 q 459 -20 523 -20 m 630 448 q 579 613 628 554 q 439 672 531 672 q 289 613 347 672 q 219 447 231 555 l 630 448 z "},"ә":{"ha":836,"x_min":96,"x_max":767,"o":"m 414 -20 q 180 79 263 -20 q 96 347 96 177 l 96 408 l 637 408 l 637 412 q 572 604 637 536 q 390 672 507 672 q 125 595 272 672 l 125 720 q 263 763 197 749 q 392 778 328 778 q 593 730 509 778 q 722 593 677 682 q 767 382 767 504 q 723 169 767 259 q 599 30 678 79 q 414 -20 519 -20 m 412 86 q 563 145 505 86 q 632 311 621 203 l 221 311 q 272 143 221 201 q 412 86 323 86 z "},"ӛ":{"ha":836,"x_min":96,"x_max":767,"o":"m 250 916 q 230 936 230 916 l 230 1032 q 250 1053 230 1053 l 347 1053 q 368 1032 368 1053 l 368 936 q 347 916 368 916 l 250 916 m 516 916 q 496 936 496 916 l 496 1032 q 516 1053 496 1053 l 612 1053 q 633 1032 633 1053 l 633 936 q 612 916 633 916 l 516 916 m 414 -20 q 180 79 263 -20 q 96 347 96 177 l 96 408 l 637 408 l 637 412 q 572 604 637 536 q 390 672 507 672 q 125 595 272 672 l 125 720 q 263 763 197 749 q 392 778 328 778 q 593 730 509 778 q 722 593 677 682 q 767 382 767 504 q 723 169 767 259 q 599 30 678 79 q 414 -20 519 -20 m 412 86 q 563 145 505 86 q 632 311 621 203 l 221 311 q 272 143 221 201 q 412 86 323 86 z "},"ӝ":{"ha":836,"x_min":40,"x_max":797,"o":"m 237 896 q 216 916 216 896 l 216 1013 q 237 1033 216 1033 l 334 1033 q 354 1013 354 1033 l 354 916 q 334 896 354 896 l 237 896 m 503 896 q 482 916 482 896 l 482 1013 q 503 1033 482 1033 l 599 1033 q 619 1013 619 1033 l 619 916 q 599 896 619 896 l 503 896 m 216 486 l 54 760 l 189 760 l 361 467 l 361 760 l 475 760 l 475 467 l 648 760 l 783 760 l 621 486 l 797 0 l 675 0 l 546 358 l 475 238 l 475 0 l 361 0 l 361 238 l 291 358 l 161 0 l 40 0 l 216 486 z "},"ӟ":{"ha":836,"x_min":115,"x_max":722,"o":"m 227 916 q 206 936 206 916 l 206 1032 q 227 1053 206 1053 l 323 1053 q 344 1032 344 1053 l 344 936 q 323 916 344 916 l 227 916 m 492 916 q 472 936 472 916 l 472 1032 q 492 1053 472 1053 l 589 1053 q 609 1032 609 1053 l 609 936 q 589 916 609 916 l 492 916 m 366 -15 q 115 23 248 -15 l 115 140 q 357 94 220 94 q 536 129 475 94 q 597 227 597 165 q 540 324 597 288 q 381 361 482 361 l 274 361 l 274 458 l 386 458 q 527 488 479 458 q 576 563 576 517 q 525 638 576 610 q 378 667 475 667 q 272 659 330 667 q 142 632 214 650 l 142 745 q 391 778 285 778 q 617 725 534 778 q 700 581 700 671 q 656 472 700 515 q 531 412 612 429 q 670 347 618 395 q 722 218 722 298 q 628 48 722 111 q 366 -15 534 -15 z "},"ӡ":{"ha":836,"x_min":98,"x_max":765,"o":"m 374 -296 q 241 -284 308 -296 q 98 -245 175 -273 l 98 -113 q 365 -180 215 -180 q 562 -130 494 -180 q 629 16 629 -79 q 566 159 629 109 q 391 209 503 209 l 273 209 l 273 321 l 565 660 l 113 660 l 113 760 l 705 760 l 705 646 l 427 323 q 572 291 492 323 q 710 182 652 258 q 765 15 765 111 q 661 -214 765 -133 q 374 -296 557 -296 z "},"ӣ":{"ha":836,"x_min":132,"x_max":712,"o":"m 215 996 l 621 996 l 621 895 l 215 895 l 215 996 m 132 760 l 257 760 l 257 211 l 587 760 l 712 760 l 712 0 l 587 0 l 587 549 l 257 0 l 132 0 l 132 760 z "},"ӥ":{"ha":836,"x_min":132,"x_max":712,"o":"m 237 897 q 216 917 216 897 l 216 1013 q 237 1034 216 1034 l 334 1034 q 354 1013 354 1034 l 354 917 q 334 897 354 897 l 237 897 m 503 897 q 482 917 482 897 l 482 1013 q 503 1034 482 1034 l 599 1034 q 619 1013 619 1034 l 619 917 q 599 897 619 897 l 503 897 m 132 760 l 257 760 l 257 211 l 587 760 l 712 760 l 712 0 l 587 0 l 587 549 l 257 0 l 132 0 l 132 760 z "},"ӧ":{"ha":836,"x_min":93,"x_max":743,"o":"m 237 916 q 216 936 216 916 l 216 1032 q 237 1053 216 1053 l 334 1053 q 354 1032 354 1053 l 354 936 q 334 916 354 916 l 237 916 m 503 916 q 482 936 482 916 l 482 1032 q 503 1053 482 1053 l 599 1053 q 619 1032 619 1053 l 619 936 q 599 916 619 916 l 503 916 m 418 -20 q 176 82 258 -20 q 93 378 93 183 q 176 675 93 572 q 418 778 260 778 q 660 675 576 778 q 743 378 743 572 q 660 82 743 184 q 418 -20 576 -20 m 418 86 q 611 379 611 86 q 418 672 611 672 q 225 379 225 672 q 418 86 225 86 z "},"ө":{"ha":836,"x_min":93,"x_max":743,"o":"m 418 -20 q 176 82 260 -20 q 93 380 93 184 q 176 675 93 572 q 276 751 217 725 q 417 778 335 778 q 660 675 576 778 q 743 379 743 573 q 660 82 743 184 q 418 -20 577 -20 m 610 414 q 559 603 605 534 q 418 672 513 672 q 277 603 323 672 q 226 414 231 534 l 610 414 m 418 86 q 521 115 481 86 q 581 194 560 144 q 607 303 601 243 l 229 303 q 256 194 236 243 q 315 115 276 144 q 418 86 354 86 z "},"ӫ":{"ha":836,"x_min":93,"x_max":743,"o":"m 237 916 q 216 936 216 916 l 216 1032 q 237 1053 216 1053 l 334 1053 q 354 1032 354 1053 l 354 936 q 334 916 354 916 l 237 916 m 503 916 q 482 936 482 916 l 482 1032 q 503 1053 482 1053 l 599 1053 q 619 1032 619 1053 l 619 936 q 599 916 619 916 l 503 916 m 418 -20 q 176 82 260 -20 q 93 380 93 184 q 176 675 93 572 q 276 751 217 725 q 417 778 335 778 q 660 675 576 778 q 743 379 743 573 q 660 82 743 184 q 418 -20 577 -20 m 610 414 q 559 603 605 534 q 418 672 513 672 q 277 603 323 672 q 226 414 231 534 l 610 414 m 418 86 q 521 115 481 86 q 581 194 560 144 q 607 303 601 243 l 229 303 q 256 194 236 243 q 315 115 276 144 q 418 86 354 86 z "},"ӭ":{"ha":836,"x_min":146,"x_max":733,"o":"m 223 916 q 203 936 203 916 l 203 1032 q 223 1053 203 1053 l 320 1053 q 340 1032 340 1053 l 340 936 q 320 916 340 916 l 223 916 m 489 916 q 469 936 469 916 l 469 1032 q 489 1053 469 1053 l 585 1053 q 606 1032 606 1053 l 606 936 q 585 916 606 916 l 489 916 m 363 -20 q 253 -6 305 -20 q 146 39 201 7 l 146 168 q 355 86 231 86 q 535 159 477 86 q 601 350 594 231 l 233 350 l 233 448 l 597 448 q 564 558 589 507 q 487 641 538 610 q 355 672 437 672 q 243 652 294 672 q 146 589 193 631 l 146 720 q 253 764 201 751 q 362 778 305 778 q 634 672 534 778 q 733 379 733 566 q 688 165 733 254 q 560 28 643 76 q 363 -20 477 -20 z "},"ӯ":{"ha":836,"x_min":71,"x_max":782,"o":"m 215 996 l 621 996 l 621 895 l 215 895 l 215 996 m 125 -184 l 199 -184 q 250 -175 229 -184 q 285 -153 271 -166 q 318 -99 300 -137 q 364 12 337 -61 l 71 760 l 203 760 l 428 165 l 650 760 l 782 760 l 582 244 q 553 171 563 195 q 538 131 544 146 q 525 95 532 115 q 503 35 518 75 q 448 -107 467 -58 q 412 -183 428 -156 q 337 -261 382 -234 q 225 -289 293 -289 l 125 -289 l 125 -184 z "},"ӱ":{"ha":836,"x_min":71,"x_max":782,"o":"m 237 890 q 216 910 216 890 l 216 1006 q 237 1027 216 1027 l 334 1027 q 354 1006 354 1027 l 354 910 q 334 890 354 890 l 237 890 m 503 890 q 482 910 482 890 l 482 1006 q 503 1027 482 1027 l 599 1027 q 619 1006 619 1027 l 619 910 q 599 890 619 890 l 503 890 m 125 -184 l 199 -184 q 250 -175 229 -184 q 285 -153 271 -166 q 318 -99 300 -137 q 364 12 337 -61 l 71 760 l 203 760 l 428 165 l 650 760 l 782 760 l 582 244 q 553 171 563 195 q 538 131 544 146 q 525 95 532 115 q 503 35 518 75 q 448 -107 467 -58 q 412 -183 428 -156 q 337 -261 382 -234 q 225 -289 293 -289 l 125 -289 l 125 -184 z "},"ӳ":{"ha":836,"x_min":71,"x_max":782,"o":"m 363 1118 l 478 1118 l 326 863 l 233 863 l 363 1118 m 589 1118 l 710 1118 l 542 863 l 450 863 l 589 1118 m 125 -184 l 199 -184 q 250 -175 229 -184 q 285 -153 271 -166 q 318 -99 300 -137 q 364 12 337 -61 l 71 760 l 203 760 l 428 165 l 650 760 l 782 760 l 582 244 q 553 171 563 195 q 538 131 544 146 q 525 95 532 115 q 503 35 518 75 q 448 -107 467 -58 q 412 -183 428 -156 q 337 -261 382 -234 q 225 -289 293 -289 l 125 -289 l 125 -184 z "},"ӵ":{"ha":836,"x_min":112,"x_max":692,"o":"m 243 897 q 223 918 223 897 l 223 1014 q 243 1034 223 1034 l 340 1034 q 361 1014 361 1034 l 361 918 q 340 897 361 897 l 243 897 m 509 897 q 489 918 489 897 l 489 1014 q 509 1034 489 1034 l 606 1034 q 626 1014 626 1034 l 626 918 q 606 897 626 897 l 509 897 m 568 316 q 533 303 560 313 q 462 282 506 292 q 360 273 418 273 q 179 328 245 273 q 112 512 112 383 l 112 761 l 237 761 l 237 512 q 259 426 237 454 q 318 390 281 398 q 400 381 355 381 q 488 389 450 381 q 568 421 526 397 l 568 761 l 692 761 l 692 0 l 568 0 l 568 316 z "},"ӷ":{"ha":836,"x_min":198,"x_max":708,"o":"m 323 0 l 198 0 l 198 760 l 708 760 l 708 635 l 323 635 l 323 125 l 455 125 l 455 -194 l 323 -194 l 323 0 z "},"ӹ":{"ha":836,"x_min":71,"x_max":766,"o":"m 237 896 q 216 916 216 896 l 216 1013 q 237 1033 216 1033 l 334 1033 q 354 1013 354 1033 l 354 916 q 334 896 354 896 l 237 896 m 503 896 q 482 916 482 896 l 482 1013 q 503 1033 482 1033 l 599 1033 q 619 1013 619 1033 l 619 916 q 599 896 619 896 l 503 896 m 71 760 l 194 760 l 194 452 l 256 452 q 478 396 397 452 q 558 224 558 340 q 479 56 558 111 q 256 0 401 0 l 71 0 l 71 760 m 641 760 l 766 760 l 766 0 l 641 0 l 641 760 m 250 104 q 380 134 334 104 q 425 226 425 164 q 379 319 425 288 q 250 350 333 350 l 194 350 l 194 104 l 250 104 z "},"ԑ":{"ha":836,"x_min":115,"x_max":722,"o":"m 470 -15 q 208 48 301 -15 q 115 218 115 111 q 166 347 115 298 q 304 412 217 395 q 180 472 223 429 q 136 581 136 515 q 219 725 136 671 q 444 778 302 778 q 694 745 551 778 l 694 632 q 564 659 623 650 q 457 667 506 667 q 311 638 361 667 q 260 563 260 610 q 309 488 260 517 q 450 458 357 458 l 562 458 l 562 361 l 454 361 q 296 324 353 361 q 239 227 239 288 q 300 129 239 165 q 479 94 361 94 q 722 140 614 94 l 722 23 q 595 -5 656 4 q 470 -15 534 -15 z "},"ԛ":{"ha":836,"x_min":90,"x_max":712,"o":"m 587 94 q 382 -22 524 -22 q 168 83 247 -22 q 90 376 90 189 q 168 668 90 562 q 382 775 247 775 q 587 660 524 775 l 599 757 l 712 757 l 712 -292 l 587 -292 l 587 94 m 404 83 q 587 376 587 83 q 404 669 587 669 q 222 376 222 669 q 404 83 222 83 z "},"ԝ":{"ha":836,"x_min":0,"x_max":836,"o":"m 0 760 l 123 760 l 256 146 l 364 538 l 471 538 l 581 146 l 713 760 l 836 760 l 659 0 l 539 0 l 418 416 l 297 0 l 178 0 l 0 760 z "},"Ҥ":{"ha":836,"x_min":144,"x_max":836,"o":"m 144 1013 l 271 1013 l 271 597 l 517 597 l 517 1013 l 836 1013 l 836 897 l 644 897 l 644 0 l 517 0 l 517 482 l 271 482 l 271 0 l 144 0 l 144 1013 z "},"ҥ":{"ha":836,"x_min":125,"x_max":836,"o":"m 125 760 l 239 760 l 239 451 l 517 451 l 517 760 l 836 760 l 836 658 l 631 658 l 631 0 l 517 0 l 517 349 l 239 349 l 239 0 l 125 0 l 125 760 z "},"Ӕ":{"ha":836,"x_min":0,"x_max":800,"o":"m 278 1013 l 787 1013 l 787 897 l 558 897 l 558 597 l 766 597 l 766 482 l 558 482 l 558 115 l 800 115 l 800 0 l 432 0 l 432 260 l 193 260 l 125 0 l 0 0 l 278 1013 m 432 374 l 432 897 l 359 897 l 222 374 l 432 374 z "},"ӕ":{"ha":836,"x_min":28,"x_max":814,"o":"m 242 -20 q 82 39 137 -20 q 28 205 28 98 q 95 386 28 326 q 293 446 163 446 l 372 446 l 372 505 q 241 673 372 673 q 72 618 161 673 l 72 732 q 256 778 174 778 q 425 692 376 778 q 489 754 447 730 q 602 778 532 778 q 725 743 678 778 q 793 627 772 708 q 814 410 814 547 l 814 349 l 481 349 q 480 326 480 338 q 479 299 479 314 q 513 134 479 184 q 627 85 547 85 q 799 154 732 85 l 799 37 q 621 -20 723 -20 q 497 9 547 -20 q 427 89 448 37 q 242 -20 373 -20 m 703 446 l 703 481 q 676 628 703 583 q 591 673 650 673 q 507 627 532 673 q 481 475 481 581 l 481 446 l 703 446 m 254 85 q 343 130 318 85 q 361 191 355 152 q 368 300 368 231 l 368 349 l 335 349 q 181 319 224 349 q 139 217 139 289 q 169 117 139 149 q 254 85 199 85 z "},"Δ":{"ha":836,"x_min":25,"x_max":811,"o":"m 335 1013 l 501 1013 l 811 0 l 25 0 l 335 1013 m 636 115 l 418 892 l 199 115 l 636 115 z "},"ϴ":{"ha":836,"x_min":79,"x_max":757,"o":"m 417 -20 q 163 110 247 -20 q 79 505 79 239 q 163 901 79 770 q 418 1031 247 1031 q 673 901 589 1031 q 757 505 757 770 q 417 -20 757 -20 m 612 597 q 563 834 604 749 q 418 920 522 920 q 307 880 347 920 q 248 768 267 841 q 224 597 230 696 l 612 597 m 418 92 q 567 185 522 92 q 614 482 611 278 l 222 482 q 269 185 224 279 q 418 92 314 92 z "},"μ":{"ha":836,"x_min":132,"x_max":802,"o":"m 132 760 l 257 760 l 257 288 q 297 140 257 191 q 414 89 338 89 q 587 317 587 89 l 587 760 l 713 760 l 713 174 q 757 96 713 96 q 773 99 761 96 q 802 111 783 102 l 802 11 q 707 -20 751 -20 q 606 87 622 -20 q 424 -20 545 -20 q 318 6 361 -20 q 245 86 276 31 l 245 -290 l 132 -290 l 132 760 z "},"Ա":{"ha":836,"x_min":81,"x_max":755,"o":"m 708 -41 q 648 -10 677 -27 q 589 26 619 7 q 398 -20 512 -20 q 165 61 246 -20 q 102 163 124 102 q 81 310 81 225 l 81 1013 l 218 1013 l 218 268 q 231 187 218 228 q 283 119 244 146 q 399 92 321 92 q 486 105 448 92 q 412 178 444 142 q 361 248 380 214 l 454 311 q 500 244 473 276 q 565 182 528 212 q 577 224 574 203 q 580 268 580 246 l 580 1013 l 717 1013 l 717 310 q 705 198 717 247 q 670 110 693 149 q 755 66 709 87 l 708 -41 z "},"Բ":{"ha":836,"x_min":87,"x_max":749,"o":"m 87 703 q 109 849 87 787 q 172 951 130 910 q 404 1031 252 1031 q 639 951 558 1031 q 701 849 680 910 q 723 703 723 787 l 723 593 l 586 593 l 586 745 q 573 825 586 785 q 520 892 559 865 q 404 920 481 920 q 289 892 328 920 q 237 825 250 865 q 224 745 224 785 l 224 421 l 749 421 l 749 306 l 224 306 l 224 0 l 87 0 l 87 703 z "},"Գ":{"ha":836,"x_min":58,"x_max":779,"o":"m 557 306 l 374 306 q 144 393 224 306 q 80 505 102 437 q 58 672 58 573 q 141 947 58 863 q 374 1031 224 1031 q 509 1011 450 1031 q 609 947 568 991 q 672 836 650 904 q 694 670 694 768 l 694 421 l 779 421 l 779 306 l 694 306 l 694 0 l 557 0 l 557 306 m 557 421 l 557 718 q 543 814 557 768 q 491 890 530 860 q 374 920 452 920 q 258 888 297 920 q 207 800 220 856 q 195 670 195 743 q 201 569 195 615 q 227 491 208 524 q 280 439 245 458 q 374 421 315 421 l 557 421 z "},"Դ":{"ha":836,"x_min":37,"x_max":800,"o":"m 536 745 q 523 825 536 785 q 470 892 509 865 q 354 920 431 920 q 238 892 277 920 q 186 825 199 865 q 174 745 174 785 l 174 593 l 37 593 l 37 703 q 58 849 37 787 q 121 951 80 910 q 354 1031 202 1031 q 589 951 508 1031 q 651 849 629 910 q 673 703 673 787 l 673 421 l 800 421 l 800 306 l 673 306 l 673 0 l 536 0 l 536 745 z "},"Ե":{"ha":836,"x_min":87,"x_max":749,"o":"m 404 -20 q 172 61 252 -20 q 109 163 130 102 q 87 310 87 225 l 87 1013 l 224 1013 l 224 760 l 749 760 l 749 644 l 224 644 l 224 268 q 237 187 224 228 q 289 119 250 146 q 404 92 328 92 q 520 119 481 92 q 573 187 559 146 q 586 268 586 228 l 586 419 l 723 419 l 723 310 q 701 163 723 225 q 639 61 680 102 q 538 0 597 20 q 404 -20 478 -20 z "},"Զ":{"ha":836,"x_min":65,"x_max":771,"o":"m 95 224 l 233 224 l 233 115 l 267 115 q 420 180 337 115 q 499 256 462 212 q 566 354 537 300 q 628 625 628 471 q 616 749 628 690 q 576 849 605 808 q 513 903 551 886 q 416 920 475 920 q 254 850 305 920 q 203 607 203 780 l 203 593 l 65 593 l 65 607 q 111 856 65 763 q 237 990 157 949 q 415 1031 316 1031 q 555 1008 492 1031 q 665 935 617 985 q 771 618 771 825 q 759 487 771 547 q 723 374 746 427 q 674 281 702 325 q 614 202 646 237 q 554 146 584 168 q 500 115 525 124 l 744 115 l 744 0 l 95 0 l 95 224 z "},"Է":{"ha":836,"x_min":81,"x_max":755,"o":"m 81 1013 l 219 1013 l 219 760 l 755 760 l 755 644 l 219 644 l 219 115 l 661 115 l 661 0 l 81 0 l 81 1013 z "},"Ը":{"ha":836,"x_min":87,"x_max":749,"o":"m 87 703 q 109 849 87 787 q 172 951 130 911 q 404 1032 252 1032 q 538 1013 478 1032 q 639 951 597 993 q 701 849 680 911 q 723 703 723 787 l 723 593 l 586 593 l 586 745 q 573 825 586 785 q 520 893 559 866 q 404 921 481 921 q 289 893 328 921 q 237 825 250 866 q 224 745 224 785 l 224 115 l 749 115 l 749 0 l 87 0 l 87 703 z "},"Թ":{"ha":836,"x_min":50,"x_max":827,"o":"m 509 -20 q 395 12 446 -20 q 315 109 345 43 q 286 281 286 175 q 350 517 286 441 q 511 593 414 593 l 605 593 l 605 610 q 595 753 605 696 q 563 848 586 810 q 498 903 540 885 q 395 920 460 920 q 266 889 312 920 q 201 792 220 859 q 182 616 182 726 l 182 0 l 50 0 l 50 633 q 141 932 50 830 q 394 1031 231 1031 q 648 930 559 1031 q 715 805 692 880 q 739 629 739 730 l 739 593 l 827 593 l 827 475 l 739 475 l 739 281 q 722 153 739 208 q 675 59 705 98 q 601 -1 643 18 q 509 -20 559 -20 m 510 92 q 552 101 534 92 q 582 133 570 110 q 605 281 605 176 l 605 475 l 511 475 q 454 454 476 475 q 425 376 433 433 q 421 334 422 357 q 420 280 420 311 q 442 130 420 172 q 472 99 454 106 q 510 92 490 92 z "},"Ժ":{"ha":836,"x_min":47,"x_max":768,"o":"m 368 -20 q 130 78 212 -20 q 47 366 47 175 q 70 538 47 465 q 134 660 93 611 q 364 760 218 760 l 547 760 l 547 1013 l 684 1013 l 684 760 l 768 760 l 768 644 l 684 644 l 684 342 q 599 64 684 155 q 498 0 557 20 q 368 -20 439 -20 m 367 92 q 481 121 442 92 q 533 198 519 151 q 547 294 547 244 l 547 644 l 364 644 q 270 622 305 644 q 216 562 235 600 q 192 476 199 525 q 184 368 184 427 q 197 232 184 294 q 248 130 209 169 q 367 92 287 92 z "},"Ի":{"ha":836,"x_min":127,"x_max":763,"o":"m 127 1013 l 264 1013 l 264 720 q 450 774 341 774 q 578 754 519 774 q 679 693 637 734 q 741 591 720 652 q 763 444 763 529 l 763 335 l 626 335 l 626 486 q 613 567 626 526 q 561 635 600 608 q 444 663 522 663 q 329 635 368 663 q 277 567 290 608 q 264 486 264 526 l 264 0 l 127 0 l 127 1013 z "},"Լ":{"ha":836,"x_min":125,"x_max":751,"o":"m 125 1013 l 262 1013 l 262 115 l 751 115 l 751 0 l 125 0 l 125 1013 z "},"Խ":{"ha":836,"x_min":63,"x_max":773,"o":"m 547 -20 q 428 -1 471 -20 q 359 54 385 18 q 323 150 333 92 q 313 288 313 207 l 313 641 l 189 641 l 189 0 l 63 0 l 63 1013 l 189 1013 l 189 760 l 439 760 l 439 272 q 460 131 439 170 q 547 92 481 92 q 629 131 610 92 q 643 186 640 152 q 647 272 647 221 l 647 760 l 773 760 l 773 288 q 764 150 773 207 q 731 54 755 92 q 662 -2 706 16 q 547 -20 618 -20 z "},"Ծ":{"ha":836,"x_min":37,"x_max":799,"o":"m 425 -20 q 249 15 317 -20 q 140 108 180 49 q 83 247 99 168 q 68 414 68 326 q 83 586 68 509 q 130 733 99 663 l 37 733 l 37 1013 l 161 1013 l 161 846 l 196 846 q 351 982 262 934 q 447 1018 396 1006 q 562 1031 498 1031 q 686 1019 629 1031 q 741 1003 714 1013 q 796 982 768 994 l 796 836 q 661 902 723 884 q 543 920 598 920 q 429 901 479 920 q 340 846 379 881 q 538 813 454 843 q 679 732 623 784 q 768 597 736 678 q 799 402 799 517 q 791 295 799 347 q 766 197 783 243 q 720 109 749 149 q 651 41 691 69 q 552 -4 608 12 q 425 -20 496 -20 m 429 92 q 548 112 503 92 q 616 170 593 133 q 648 252 640 206 q 656 327 655 286 q 658 394 658 368 q 654 487 658 441 q 637 570 651 532 q 599 636 624 606 q 532 687 574 665 q 425 721 488 709 q 271 733 361 733 l 262 733 q 221 588 233 667 q 208 421 208 509 l 208 397 q 209 326 208 360 q 216 260 210 292 q 234 191 222 221 q 271 139 247 161 q 333 104 295 117 q 429 92 371 92 z "},"Կ":{"ha":836,"x_min":100,"x_max":736,"o":"m 599 292 q 518 253 562 268 q 412 239 474 239 q 184 319 267 239 q 121 422 143 360 q 100 568 100 484 l 100 1013 l 237 1013 l 237 526 q 250 446 237 486 q 301 377 262 405 q 417 350 340 350 q 534 377 495 350 q 586 446 572 405 q 599 526 599 486 l 599 760 l 736 760 l 736 0 l 599 0 l 599 292 z "},"Հ":{"ha":836,"x_min":48,"x_max":761,"o":"m 217 180 q 98 245 140 212 q 61 286 75 264 q 48 335 48 307 q 84 430 48 376 q 201 553 119 484 q 370 678 272 613 q 573 799 468 743 l 450 1013 l 612 1013 l 759 758 q 615 684 684 722 q 488 609 547 646 q 375 534 427 571 q 286 464 322 496 q 227 406 248 430 q 206 362 206 380 q 211 345 206 353 q 225 330 216 338 q 284 298 247 313 l 761 102 l 761 -37 l 217 180 z "},"Ձ":{"ha":836,"x_min":64,"x_max":772,"o":"m 666 -33 q 618 37 642 4 q 569 100 593 70 q 440 12 509 43 q 294 -20 371 -20 q 207 -7 247 -20 q 136 31 166 5 q 75 180 75 83 q 91 267 75 229 q 136 332 106 305 q 295 387 194 387 q 430 360 365 387 q 554 290 494 334 q 609 440 591 362 q 627 611 627 517 q 615 750 627 689 q 576 849 602 812 q 507 904 549 888 q 414 920 465 920 q 254 850 305 920 q 202 607 202 780 l 202 592 l 64 592 l 64 607 q 92 805 64 724 q 165 936 119 885 q 276 1008 212 986 q 413 1031 340 1031 q 553 1008 488 1031 q 665 937 618 986 q 742 806 714 887 q 770 611 770 725 q 738 386 770 489 q 652 200 706 283 q 772 37 719 128 l 666 -33 m 297 90 q 392 115 343 90 q 485 189 441 140 q 298 277 388 277 q 228 252 252 277 q 203 182 203 227 q 297 90 203 90 z "},"Ղ":{"ha":836,"x_min":37,"x_max":800,"o":"m 536 745 q 523 825 536 785 q 470 892 509 865 q 354 920 431 920 q 238 892 277 920 q 186 825 199 865 q 174 745 174 785 l 174 593 l 37 593 l 37 703 q 58 849 37 787 q 121 951 80 910 q 354 1031 202 1031 q 589 951 508 1031 q 651 849 629 910 q 673 703 673 787 l 673 115 l 800 115 l 800 0 l 536 0 l 536 745 z "},"Ճ":{"ha":836,"x_min":58,"x_max":777,"o":"m 246 0 q 174 8 208 0 q 112 37 139 16 q 73 85 87 56 q 58 161 58 115 q 85 290 58 220 q 173 466 112 361 q 300 667 237 577 l 102 1013 l 256 1013 l 388 783 q 578 966 484 902 q 777 1031 673 1031 l 777 912 q 623 850 703 912 q 453 670 542 789 l 774 111 l 774 0 l 246 0 m 616 119 l 369 548 q 330 486 349 517 q 291 419 311 454 q 225 289 246 341 q 205 200 205 236 q 238 136 205 153 q 333 119 271 119 l 616 119 z "},"Մ":{"ha":836,"x_min":58,"x_max":821,"o":"m 376 -20 q 143 61 224 -20 q 80 163 102 102 q 58 310 58 225 l 58 1013 l 195 1013 l 195 268 q 208 187 195 228 q 260 119 221 146 q 376 92 298 92 q 492 119 453 92 q 544 187 531 146 q 557 268 557 228 l 557 1013 l 821 1013 l 821 897 l 694 897 l 694 310 q 673 163 694 225 q 610 61 651 102 q 509 0 569 20 q 376 -20 450 -20 z "},"Յ":{"ha":836,"x_min":43,"x_max":793,"o":"m 445 -20 q 248 25 324 -20 q 136 143 172 70 q 100 303 100 217 l 242 303 q 253 220 242 258 q 289 154 264 182 q 350 109 313 126 q 446 92 388 92 q 538 107 500 92 q 602 151 577 123 q 650 292 650 203 q 597 429 650 380 q 445 478 543 478 l 43 478 l 43 593 l 445 593 q 521 608 490 593 q 573 646 553 622 q 602 700 593 670 q 610 765 610 730 q 444 920 610 920 q 324 881 365 920 q 283 760 283 843 l 140 760 q 179 903 140 842 q 286 998 217 964 q 444 1031 354 1031 q 570 1012 513 1031 q 667 958 626 993 q 729 876 705 925 q 753 764 753 827 q 743 688 753 723 q 715 625 733 654 q 615 546 677 567 q 750 454 708 523 q 793 299 793 385 q 773 181 793 239 q 710 77 754 123 q 602 6 667 32 q 445 -20 536 -20 z "},"Ն":{"ha":836,"x_min":37,"x_max":800,"o":"m 481 -20 q 248 61 329 -20 q 185 163 207 102 q 163 310 163 225 l 163 897 l 37 897 l 37 1013 l 300 1013 l 300 268 q 313 187 300 228 q 365 119 326 146 q 481 92 404 92 q 597 119 559 92 q 649 187 636 146 q 663 268 663 228 l 663 419 l 800 419 l 800 310 q 778 163 800 225 q 715 61 756 102 q 614 0 674 20 q 481 -20 555 -20 z "},"Շ":{"ha":836,"x_min":65,"x_max":771,"o":"m 424 -20 q 244 23 326 -20 q 114 159 162 65 q 65 405 65 252 q 91 598 65 517 q 156 734 116 680 q 241 812 195 785 q 334 841 288 840 l 273 868 q 197 891 234 885 q 135 897 160 897 l 104 897 l 104 1013 l 188 1013 q 265 1004 222 1013 q 357 975 308 995 l 701 830 l 701 686 l 535 756 q 484 771 518 764 q 423 778 450 778 q 267 676 324 778 q 241 621 251 650 q 223 559 231 591 q 208 403 208 492 q 260 163 208 237 q 423 92 311 92 q 583 161 534 92 q 633 404 633 233 l 633 419 l 771 419 l 771 404 q 744 206 771 286 q 670 75 717 126 q 559 3 623 25 q 424 -20 496 -20 z "},"Ո":{"ha":836,"x_min":100,"x_max":736,"o":"m 100 703 q 121 849 100 787 q 184 951 143 911 q 417 1032 265 1032 q 551 1013 491 1032 q 652 951 610 993 q 714 849 692 911 q 736 703 736 787 l 736 0 l 599 0 l 599 745 q 586 825 599 785 q 534 893 572 866 q 417 921 495 921 q 301 893 340 921 q 250 825 262 866 q 237 745 237 785 l 237 0 l 100 0 l 100 703 z "},"Չ":{"ha":836,"x_min":65,"x_max":771,"o":"m 136 181 l 136 325 l 297 256 q 350 240 319 247 q 410 233 382 233 q 503 260 463 233 q 570 335 543 287 q 613 453 597 382 q 628 608 628 517 q 576 848 628 774 q 413 920 525 920 q 319 903 359 920 q 254 850 279 887 q 203 607 203 779 l 203 592 l 65 592 l 65 607 q 92 805 65 724 q 166 936 119 885 q 277 1008 213 986 q 412 1031 340 1031 q 552 1007 488 1031 q 666 933 617 984 q 743 802 714 882 q 771 606 771 722 q 745 410 771 492 q 677 274 719 328 q 590 196 636 221 q 503 170 543 170 l 660 103 l 660 -39 l 136 181 z "},"Պ":{"ha":836,"x_min":31,"x_max":779,"o":"m 650 622 q 644 726 650 675 q 618 817 638 776 q 563 883 599 857 q 469 916 528 910 l 469 322 l 340 322 l 340 916 q 223 866 262 905 q 172 764 184 826 q 159 622 159 701 l 159 593 l 31 593 l 31 632 q 68 840 31 750 q 189 980 106 930 q 408 1031 272 1031 q 628 980 547 1031 q 744 840 709 930 q 779 632 779 750 l 779 0 l 650 0 l 650 622 z "},"Ջ":{"ha":836,"x_min":65,"x_max":770,"o":"m 94 225 l 232 225 l 232 115 l 259 115 q 420 176 340 115 q 433 243 429 211 q 438 303 438 275 q 407 412 438 374 q 353 445 384 439 q 300 452 323 451 q 216 459 258 454 q 136 489 173 465 q 96 527 110 505 q 74 574 81 549 q 66 616 68 596 q 65 651 65 637 q 72 746 65 702 q 96 830 79 789 q 139 908 113 872 q 203 971 165 944 q 293 1015 242 999 q 414 1031 345 1031 q 583 996 516 1031 q 692 904 650 962 q 752 768 734 844 q 770 618 770 693 q 747 445 770 524 q 687 304 724 367 q 600 190 649 239 q 500 115 551 140 l 743 115 l 743 0 l 94 0 l 94 225 m 526 287 q 601 437 574 358 q 627 621 627 515 q 618 733 627 676 q 587 831 610 791 q 416 920 537 920 q 340 909 372 920 q 286 880 309 898 q 246 836 261 861 q 222 787 231 812 q 204 676 204 736 q 208 632 204 653 q 224 598 212 612 q 268 576 241 580 q 328 571 294 572 q 402 559 359 570 q 480 505 445 549 q 530 342 530 443 q 526 287 530 315 z "},"Ռ":{"ha":836,"x_min":66,"x_max":829,"o":"m 66 703 q 88 849 66 787 q 151 951 110 910 q 384 1031 232 1031 q 618 951 538 1031 q 681 849 659 910 q 703 703 703 787 l 703 421 l 829 421 l 829 306 l 703 306 l 703 0 l 566 0 l 566 745 q 552 825 566 785 q 500 892 539 865 q 384 920 461 920 q 268 892 307 920 q 216 825 229 865 q 203 745 203 785 l 203 0 l 66 0 l 66 703 z "},"Ս":{"ha":836,"x_min":100,"x_max":736,"o":"m 417 -20 q 184 61 265 -20 q 121 163 143 102 q 100 310 100 225 l 100 1013 l 237 1013 l 237 268 q 250 187 237 228 q 301 119 262 146 q 417 92 340 92 q 534 119 495 92 q 586 187 572 146 q 599 268 599 228 l 599 1013 l 736 1013 l 736 310 q 714 163 736 225 q 652 61 692 102 q 551 0 610 20 q 417 -20 491 -20 z "},"Վ":{"ha":836,"x_min":22,"x_max":813,"o":"m 522 292 q 441 253 485 268 q 334 239 397 239 q 107 319 190 239 q 44 422 66 360 q 22 568 22 484 l 22 760 l 159 760 l 159 526 q 172 446 159 486 q 224 377 185 405 q 340 350 263 350 q 456 377 418 350 q 508 446 495 405 q 522 526 522 486 l 522 1013 l 659 1013 l 659 115 l 813 115 l 813 0 l 522 0 l 522 292 z "},"Տ":{"ha":836,"x_min":71,"x_max":764,"o":"m 428 -20 q 237 21 317 -20 q 114 134 157 62 q 71 303 71 207 l 214 303 q 275 146 214 204 q 428 92 334 92 q 573 142 519 92 q 614 201 599 166 q 629 281 629 237 q 609 365 629 332 q 549 422 588 398 q 466 460 512 444 q 370 492 419 475 q 274 528 317 509 q 193 578 230 547 q 134 651 156 608 q 111 760 111 694 q 144 895 111 833 q 243 994 176 956 q 414 1031 311 1031 q 588 994 519 1031 q 691 895 657 956 q 724 760 724 833 l 582 760 q 543 875 582 831 q 415 919 503 919 q 340 908 372 919 q 288 877 309 897 q 257 827 267 855 q 247 769 247 798 q 262 704 247 730 q 300 661 277 678 q 360 627 326 641 q 429 602 393 614 q 473 586 463 590 q 488 582 484 583 q 506 576 492 581 q 581 547 542 564 q 652 508 620 530 q 710 455 684 486 q 750 382 736 425 q 764 287 764 340 q 677 68 764 151 q 572 3 635 26 q 428 -20 510 -20 z "},"Ր":{"ha":836,"x_min":100,"x_max":736,"o":"m 100 703 q 121 849 100 787 q 184 951 143 911 q 417 1032 265 1032 q 551 1013 491 1032 q 652 951 610 993 q 714 849 692 911 q 736 703 736 787 l 736 593 l 599 593 l 599 745 q 586 825 599 785 q 534 893 572 866 q 417 921 495 921 q 301 893 340 921 q 250 825 262 866 q 237 745 237 785 l 237 0 l 100 0 l 100 703 z "},"Ց":{"ha":836,"x_min":43,"x_max":793,"o":"m 445 -20 q 250 24 328 -22 q 135 145 172 71 q 100 303 97 220 l 242 303 q 262 197 242 245 q 327 120 282 149 q 445 92 372 92 q 542 109 503 92 q 605 155 581 127 q 640 223 629 184 q 650 299 650 261 q 598 431 650 383 q 446 478 545 478 l 43 478 l 43 593 l 229 593 q 162 666 185 616 q 140 766 140 715 q 160 869 140 819 q 221 956 181 919 q 314 1010 258 990 q 446 1031 370 1031 q 672 956 591 1031 q 753 760 753 882 q 743 685 753 719 q 715 623 733 651 q 615 546 677 567 q 750 452 708 523 q 793 298 793 382 q 773 180 793 238 q 711 78 753 123 q 602 6 667 32 q 445 -20 536 -20 m 445 593 q 543 617 507 593 q 595 678 579 640 q 610 760 610 716 q 603 820 610 790 q 577 872 596 850 q 527 907 556 895 q 492 916 511 913 q 448 920 473 920 q 365 907 397 920 q 315 872 334 894 q 290 822 298 850 q 282 759 282 793 q 289 697 282 727 q 315 644 296 667 q 365 607 333 621 q 445 593 397 593 z "},"Ւ":{"ha":836,"x_min":105,"x_max":758,"o":"m 105 1013 l 243 1013 l 243 760 l 758 760 l 758 641 l 243 641 l 243 0 l 105 0 l 105 1013 z "},"Փ":{"ha":836,"x_min":47,"x_max":788,"o":"m 351 107 q 203 140 262 111 q 108 223 144 168 q 61 345 75 273 q 47 517 47 416 q 61 688 47 614 q 109 815 74 762 q 201 898 143 869 q 351 930 260 926 l 351 1013 l 482 1013 l 482 930 q 670 875 604 925 q 762 735 736 825 q 788 519 788 644 q 762 302 788 393 q 670 161 736 212 q 482 106 604 111 l 482 0 l 351 0 l 351 107 m 351 816 q 269 798 302 814 q 216 747 236 782 q 188 656 196 712 q 180 519 180 600 q 188 381 180 438 q 217 287 196 325 q 351 214 254 218 l 351 816 m 482 214 q 586 248 549 217 q 638 345 623 279 q 654 519 654 411 q 646 656 654 601 q 618 747 637 712 q 565 798 598 782 q 482 816 532 814 l 482 214 z "},"Ք":{"ha":836,"x_min":24,"x_max":791,"o":"m 154 165 l 24 165 l 24 284 l 154 284 l 154 732 q 173 851 154 798 q 231 946 191 905 q 331 1009 271 987 q 472 1031 391 1031 q 655 991 585 1031 q 758 884 725 952 q 791 730 791 816 q 772 610 791 664 q 715 516 754 557 q 620 454 677 477 q 486 430 562 430 q 376 448 425 430 q 291 505 318 470 l 291 284 l 782 284 l 782 165 l 291 165 l 291 0 l 154 0 l 154 165 m 479 541 q 565 555 532 541 q 617 592 598 569 q 645 652 637 616 q 653 730 653 687 q 645 808 653 774 q 616 867 637 842 q 562 906 596 892 q 473 920 524 920 q 330 868 368 920 q 292 734 292 817 q 333 595 292 648 q 479 541 374 541 z "},"Օ":{"ha":836,"x_min":79,"x_max":757,"o":"m 417 -20 q 163 110 247 -20 q 79 505 79 239 q 163 901 79 770 q 418 1031 247 1031 q 673 901 589 1031 q 757 505 757 770 q 417 -20 757 -20 m 418 92 q 510 117 474 92 q 568 188 547 142 q 602 308 590 233 q 614 507 614 384 q 601 704 614 629 q 568 824 589 779 q 418 920 521 920 q 269 823 314 920 q 222 505 222 726 q 269 188 222 283 q 327 116 291 140 q 418 92 363 92 z "},"Ֆ":{"ha":836,"x_min":48,"x_max":788,"o":"m 426 -20 q 287 -12 343 -20 q 189 16 230 -3 q 98 98 129 45 q 58 220 68 151 q 48 364 48 289 l 48 377 l 180 377 l 180 364 q 185 244 180 292 q 208 163 191 197 q 259 110 226 129 q 351 90 293 90 l 351 646 q 157 690 218 646 q 96 829 96 735 q 110 911 96 876 q 157 968 125 945 q 359 1013 221 1013 l 482 1013 l 482 760 q 631 731 575 755 q 720 664 686 707 q 773 539 759 614 q 788 366 788 464 q 782 254 788 307 q 761 155 777 201 q 718 75 745 111 q 648 16 690 39 q 552 -13 609 -5 q 490 -18 524 -17 q 426 -20 457 -20 m 351 901 q 260 889 288 901 q 232 829 232 877 q 260 771 232 783 q 351 760 288 760 l 351 901 m 482 90 q 593 121 557 90 q 642 214 630 153 q 654 368 654 275 q 642 524 654 463 q 593 614 630 585 q 482 644 557 644 l 482 90 z "},"ա":{"ha":836,"x_min":70,"x_max":766,"o":"m 233 -18 q 160 -3 191 -18 q 108 52 129 12 q 79 151 88 88 q 70 319 70 214 l 70 760 l 184 760 l 184 325 q 188 195 184 244 q 205 115 192 144 q 267 86 218 86 q 314 97 298 86 q 340 127 331 108 q 356 195 351 149 q 361 325 361 241 l 361 760 l 475 760 l 475 325 q 481 183 475 224 q 495 124 487 142 q 564 86 513 86 q 609 98 593 86 q 632 127 624 109 q 648 201 644 153 q 652 325 652 249 l 652 760 l 766 760 l 766 0 l 652 0 l 652 65 q 518 -18 606 -18 q 436 4 472 -18 q 381 77 401 27 q 323 5 357 28 q 233 -18 289 -18 z "},"բ":{"ha":836,"x_min":131,"x_max":718,"o":"m 131 760 l 256 760 l 256 646 q 481 778 322 778 q 655 702 598 778 q 711 471 711 627 l 711 305 l 586 305 l 586 471 q 550 621 586 573 q 438 669 515 669 q 302 608 349 669 q 256 429 256 547 l 256 97 l 718 97 l 718 0 l 256 0 l 256 -289 l 131 -289 l 131 760 z "},"գ":{"ha":836,"x_min":50,"x_max":786,"o":"m 547 94 q 343 -22 485 -22 q 221 5 275 -22 q 128 84 167 33 q 50 374 50 191 q 129 668 50 561 q 343 775 208 775 q 547 660 484 775 l 559 760 l 672 760 l 672 97 l 786 97 l 786 0 l 672 0 l 672 -289 l 547 -289 l 547 94 m 363 83 q 547 376 547 83 q 363 669 547 669 q 227 596 273 669 q 182 376 182 522 q 363 83 182 83 z "},"դ":{"ha":836,"x_min":125,"x_max":806,"o":"m 580 471 q 544 621 580 573 q 432 669 509 669 q 296 608 343 669 q 250 429 250 547 l 250 0 l 125 0 l 125 760 l 237 760 l 250 646 q 475 778 316 778 q 649 702 592 778 q 705 471 705 627 l 705 97 l 806 97 l 806 0 l 705 0 l 705 -289 l 580 -289 l 580 471 z "},"ե":{"ha":836,"x_min":125,"x_max":739,"o":"m 354 -20 q 181 56 237 -20 q 125 288 125 132 l 125 1055 l 250 1055 l 250 760 l 739 760 l 739 663 l 250 663 l 250 288 q 286 137 250 185 q 398 89 322 89 q 534 150 488 89 q 580 329 580 212 l 580 488 l 705 488 l 705 0 l 580 0 l 580 114 q 354 -20 513 -20 z "},"զ":{"ha":836,"x_min":70,"x_max":806,"o":"m 567 94 q 363 -22 505 -22 q 241 5 296 -22 q 149 84 187 33 q 70 374 70 191 q 149 668 70 561 q 363 775 228 775 q 567 660 505 775 l 579 760 l 692 760 l 692 -191 l 806 -191 l 806 -289 l 567 -289 l 567 94 m 384 83 q 567 376 567 83 q 384 669 567 669 q 248 596 293 669 q 202 376 202 522 q 384 83 202 83 z "},"է":{"ha":836,"x_min":154,"x_max":709,"o":"m 154 1055 l 279 1055 l 279 760 l 709 760 l 709 663 l 279 663 l 279 100 l 651 100 l 651 0 l 154 0 l 154 1055 z "},"ը":{"ha":836,"x_min":124,"x_max":711,"o":"m 124 760 l 237 760 l 249 646 q 474 778 315 778 q 648 702 591 778 q 705 471 705 627 l 705 0 l 579 0 l 579 471 q 544 621 579 573 q 431 669 508 669 q 296 608 342 669 q 249 429 249 547 l 249 -192 l 711 -192 l 711 -289 l 124 -289 l 124 760 z "},"թ":{"ha":836,"x_min":72,"x_max":818,"o":"m 72 760 l 184 760 l 197 644 q 298 751 241 720 q 427 778 350 778 q 563 750 507 778 q 659 670 619 722 q 749 379 742 562 l 818 379 l 818 282 l 747 282 q 700 98 738 164 q 608 6 662 33 q 496 -20 553 -20 q 343 32 401 -20 q 286 173 286 83 q 316 289 286 243 q 395 357 347 334 q 498 379 444 379 l 634 379 q 617 507 633 453 q 574 596 601 560 q 401 675 516 675 q 250 616 302 675 q 197 420 197 557 l 197 -289 l 72 -289 l 72 760 m 496 73 q 585 119 551 73 q 614 184 602 145 q 631 282 626 224 l 498 282 q 433 255 460 282 q 411 220 419 241 q 402 172 402 199 q 425 102 402 129 q 452 81 435 90 q 496 73 469 73 z "},"ժ":{"ha":836,"x_min":63,"x_max":800,"o":"m 374 -20 q 232 10 290 -20 q 136 94 174 40 q 80 221 98 149 q 63 376 63 294 q 80 525 63 457 q 134 646 97 593 q 230 729 172 698 q 372 760 289 760 l 560 760 l 560 1055 l 686 1055 l 686 760 l 800 760 l 800 663 l 686 663 l 686 342 q 653 157 686 239 q 551 28 620 75 q 374 -20 481 -20 m 376 86 q 516 165 468 86 q 560 379 560 240 l 560 663 l 374 663 q 244 587 294 663 q 195 374 195 512 q 206 257 195 311 q 239 164 217 203 q 376 86 285 86 z "},"ի":{"ha":836,"x_min":127,"x_max":708,"o":"m 127 1055 l 252 1055 l 252 646 q 477 778 319 778 q 651 702 595 778 q 708 471 708 627 l 708 0 l 583 0 l 583 471 q 547 621 583 573 q 435 669 511 669 q 299 608 346 669 q 252 429 252 547 l 252 -289 l 127 -289 l 127 1055 z "},"լ":{"ha":836,"x_min":276,"x_max":669,"o":"m 276 760 l 401 760 l 401 -192 l 669 -192 l 669 -289 l 276 -289 l 276 760 z "},"խ":{"ha":836,"x_min":71,"x_max":765,"o":"m 71 1055 l 184 1055 l 184 694 q 320 778 231 778 q 445 704 408 778 q 469 615 463 667 q 475 496 475 564 l 475 325 q 480 183 475 224 q 494 124 486 142 q 564 86 513 86 q 608 98 593 86 q 631 127 623 109 q 647 201 643 153 q 652 325 652 249 l 652 760 l 765 760 l 765 0 l 652 0 l 652 65 q 515 -18 604 -18 q 391 56 428 -18 q 367 144 374 92 q 361 264 361 196 l 361 435 q 355 576 361 535 q 341 635 349 618 q 272 673 323 673 q 228 662 243 673 q 204 632 212 650 q 188 559 193 607 q 184 435 184 511 l 184 -289 l 71 -289 l 71 1055 z "}}}
